  0
SECTION
  2
ENTITIES
  0
TEXT
  8
PG-AA
 10
442990.19
 20
4474295.61
 30
0.0
 40
0.7
  1
-I
 72
1
 73
3
 11
442990.82
 21
4474296.31
 31
0.0
  0
TEXT
  8
PG-AS
 10
442990.19
 20
4474296.31
 30
0.0
 40
0.7
  1
20
 72
1
 73
1
 11
442990.82
 21
4474296.31
 31
0.0
  0
TEXT
  8
PG-AA
 10
443007.67
 20
4474302.11
 30
0.0
 40
0.7
  1
-I
 72
1
 73
3
 11
443008.30
 21
4474302.81
 31
0.0
  0
TEXT
  8
PG-AS
 10
443007.67
 20
4474302.81
 30
0.0
 40
0.7
  1
13
 72
1
 73
1
 11
443008.30
 21
4474302.81
 31
0.0
  0
TEXT
  8
PG-AA
 10
443004.14
 20
4474306.03
 30
0.0
 40
0.7
  1
-I
 72
1
 73
3
 11
443004.77
 21
4474306.73
 31
0.0
  0
TEXT
  8
PG-AS
 10
443004.45
 20
4474306.73
 30
0.0
 40
0.7
  1
2
 72
1
 73
1
 11
443004.77
 21
4474306.73
 31
0.0
  0
TEXT
  8
PG-AA
 10
443007.48
 20
4474303.84
 30
0.0
 40
0.7
  1
-I+I
 72
1
 73
3
 11
443008.74
 21
4474304.54
 31
0.0
  0
TEXT
  8
PG-AS
 10
443008.11
 20
4474304.54
 30
0.0
 40
0.7
  1
24
 72
1
 73
1
 11
443008.74
 21
4474304.54
 31
0.0
  0
TEXT
  8
PG-AA
 10
443009.10
 20
4474315.64
 30
0.0
 40
0.7
  1
P
 72
1
 73
3
 11
443009.42
 21
4474316.34
 31
0.0
  0
TEXT
  8
PG-AS
 10
443008.79
 20
4474316.34
 30
0.0
 40
0.7
  1
28
 72
1
 73
1
 11
443009.42
 21
4474316.34
 31
0.0
  0
TEXT
  8
PG-AA
 10
442991.00
 20
4474307.19
 30
0.0
 40
0.7
  1
P
 72
1
 73
3
 11
442991.32
 21
4474307.89
 31
0.0
  0
TEXT
  8
PG-AS
 10
442990.69
 20
4474307.89
 30
0.0
 40
0.7
  1
68
 72
1
 73
1
 11
442991.32
 21
4474307.89
 31
0.0
  0
TEXT
  8
PG-AA
 10
443008.37
 20
4474305.69
 30
0.0
 40
0.7
  1
P
 72
1
 73
3
 11
443008.69
 21
4474306.39
 31
0.0
  0
TEXT
  8
PG-AS
 10
443008.06
 20
4474306.39
 30
0.0
 40
0.7
  1
11
 72
1
 73
1
 11
443008.69
 21
4474306.39
 31
0.0
  0
TEXT
  8
PG-AA
 10
443008.10
 20
4474292.42
 30
0.0
 40
0.7
  1
P
 72
1
 73
3
 11
443008.41
 21
4474293.12
 31
0.0
  0
TEXT
  8
PG-AS
 10
443007.78
 20
4474293.12
 30
0.0
 40
0.7
  1
27
 72
1
 73
1
 11
443008.41
 21
4474293.12
 31
0.0
  0
TEXT
  8
PG-AA
 10
443019.96
 20
4474305.41
 30
0.0
 40
0.7
  1
-I+VI
 72
1
 73
3
 11
443021.53
 21
4474306.11
 31
0.0
  0
TEXT
  8
PG-AS
 10
443020.90
 20
4474306.11
 30
0.0
 40
0.7
  1
17
 72
1
 73
1
 11
443021.53
 21
4474306.11
 31
0.0
  0
TEXT
  8
PG-AA
 10
443020.62
 20
4474314.07
 30
0.0
 40
0.7
  1
-I+VI
 72
1
 73
3
 11
443022.19
 21
4474314.77
 31
0.0
  0
TEXT
  8
PG-AS
 10
443021.56
 20
4474314.77
 30
0.0
 40
0.7
  1
12
 72
1
 73
1
 11
443022.19
 21
4474314.77
 31
0.0
  0
TEXT
  8
PG-AA
 10
443019.23
 20
4474291.45
 30
0.0
 40
0.7
  1
-I+VI
 72
1
 73
3
 11
443020.80
 21
4474292.15
 31
0.0
  0
TEXT
  8
PG-AS
 10
443020.49
 20
4474292.15
 30
0.0
 40
0.7
  1
7
 72
1
 73
1
 11
443020.80
 21
4474292.15
 31
0.0
  0
TEXT
  8
PG-AA
 10
443020.31
 20
4474293.78
 30
0.0
 40
0.7
  1
VI
 72
1
 73
3
 11
443020.94
 21
4474294.48
 31
0.0
  0
TEXT
  8
PG-AS
 10
443020.63
 20
4474294.48
 30
0.0
 40
0.7
  1
4
 72
1
 73
1
 11
443020.94
 21
4474294.48
 31
0.0
  0
TEXT
  8
PG-AA
 10
443018.04
 20
4474300.26
 30
0.0
 40
0.7
  1
-I+I+EPT+V
 72
1
 73
3
 11
443021.19
 21
4474300.96
 31
0.0
  0
TEXT
  8
PG-AS
 10
443020.87
 20
4474300.96
 30
0.0
 40
0.7
  1
7
 72
1
 73
1
 11
443021.19
 21
4474300.96
 31
0.0
  0
TEXT
  8
PG-AA
 10
443022.62
 20
4474303.39
 30
0.0
 40
0.7
  1
3B
 72
1
 73
3
 11
443023.25
 21
4474304.09
 31
0.0
  0
TEXT
  8
PG-AS
 10
443022.94
 20
4474304.09
 30
0.0
 40
0.7
  1
5
 72
1
 73
1
 11
443023.25
 21
4474304.09
 31
0.0
  0
TEXT
  8
PG-AA
 10
443023.06
 20
4474309.79
 30
0.0
 40
0.7
  1
IV
 72
1
 73
3
 11
443023.69
 21
4474310.49
 31
0.0
  0
TEXT
  8
PG-AS
 10
443023.38
 20
4474310.49
 30
0.0
 40
0.7
  1
5
 72
1
 73
1
 11
443023.69
 21
4474310.49
 31
0.0
  0
TEXT
  8
PG-AA
 10
443022.16
 20
4474296.60
 30
0.0
 40
0.7
  1
IV
 72
1
 73
3
 11
443022.79
 21
4474297.30
 31
0.0
  0
TEXT
  8
PG-AS
 10
443022.47
 20
4474297.30
 30
0.0
 40
0.7
  1
5
 72
1
 73
1
 11
443022.79
 21
4474297.30
 31
0.0
  0
TEXT
  8
PG-AA
 10
443013.43
 20
4474309.47
 30
0.0
 40
0.7
  1
-I+VII
 72
1
 73
3
 11
443015.32
 21
4474310.17
 31
0.0
  0
TEXT
  8
PG-AS
 10
443014.38
 20
4474310.17
 30
0.0
 40
0.7
  1
145
 72
1
 73
1
 11
443015.32
 21
4474310.17
 31
0.0
  0
TEXT
  8
PG-AA
 10
443014.77
 20
4474291.87
 30
0.0
 40
0.7
  1
-I+VII
 72
1
 73
3
 11
443016.66
 21
4474292.57
 31
0.0
  0
TEXT
  8
PG-AS
 10
443016.03
 20
4474292.57
 30
0.0
 40
0.7
  1
13
 72
1
 73
1
 11
443016.66
 21
4474292.57
 31
0.0
  0
TEXT
  8
PG-AA
 10
443014.39
 20
4474294.97
 30
0.0
 40
0.7
  1
VII
 72
1
 73
3
 11
443015.34
 21
4474295.67
 31
0.0
  0
TEXT
  8
PG-AS
 10
443014.71
 20
4474295.67
 30
0.0
 40
0.7
  1
49
 72
1
 73
1
 11
443015.34
 21
4474295.67
 31
0.0
  0
TEXT
  8
PG-AA
 10
443010.34
 20
4474299.56
 30
0.0
 40
0.7
  1
-I+I+EPT+VI
 72
1
 73
3
 11
443013.81
 21
4474300.26
 31
0.0
  0
TEXT
  8
PG-AS
 10
443013.18
 20
4474300.26
 30
0.0
 40
0.7
  1
61
 72
1
 73
1
 11
443013.81
 21
4474300.26
 31
0.0
  0
TEXT
  8
PG-AA
 10
442996.09
 20
4474304.58
 30
0.0
 40
0.7
  1
-I+VIII
 72
1
 73
3
 11
442998.30
 21
4474305.28
 31
0.0
  0
TEXT
  8
PG-AS
 10
442997.35
 20
4474305.28
 30
0.0
 40
0.7
  1
342
 72
1
 73
1
 11
442998.30
 21
4474305.28
 31
0.0
  0
TEXT
  8
PG-CO
 10
443008.71
 20
4474320.54
 30
0.0
 40
0.7
  1
33,39
 50
176.91
 72
1
 73
3
 11
443007.10
 21
4474319.93
 31
0.0
  0
LINE
  8
PG-CO
 10
442990.43
 20
4474320.83
 11
443023.77
 21
4474319.03
  0
TEXT
  8
PG-CO
 10
443025.81
 20
4474302.23
 30
0.0
 40
0.7
  1
25,36
 50
86.36
 72
1
 73
3
 11
443025.21
 21
4474303.85
 31
0.0
  0
LINE
  8
PG-CO
 10
443026.01
 20
4474316.50
 11
443024.40
 21
4474291.19
  0
TEXT
  8
PG-CO
 10
443005.33
 20
4474288.90
 30
0.0
 40
0.7
  1
29,77
 50
356.05
 72
1
 73
3
 11
443006.95
 21
4474289.49
 31
0.0
  0
LINE
  8
PG-CO
 10
443021.80
 20
4474288.47
 11
442992.10
 21
4474290.52
  0
TEXT
  8
PG-CO
 10
442989.15
 20
4474290.26
 30
0.0
 40
0.7
  1
3,42
 50
356.81
 72
1
 73
3
 11
442990.45
 21
4474290.89
 31
0.0
  0
LINE
  8
PG-CO
 10
442992.15
 20
4474290.79
 11
442988.74
 21
4474290.98
  0
TEXT
  8
PG-CO
 10
442986.61
 20
4474307.65
 30
0.0
 40
0.7
  1
25,14
 50
266.74
 72
1
 73
3
 11
442987.22
 21
4474306.04
 31
0.0
  0
LINE
  8
PG-CO
 10
442986.50
 20
4474293.49
 11
442987.93
 21
4474318.59
  0
LINE
  8
PG-LP
 10
442988.87
 20
4474293.36
 11
442989.21
 21
4474299.17
  0
LINE
  8
PG-LP
 10
442992.28
 20
4474293.17
 11
442988.87
 21
4474293.36
  0
LINE
  8
PG-LP
 10
442989.22
 20
4474299.50
 11
442990.09
 21
4474314.57
  0
LINE
  8
PG-LP
 10
442990.09
 20
4474314.57
 11
442990.31
 21
4474318.46
  0
LINE
  8
PG-LP
 10
442990.31
 20
4474318.46
 11
442993.89
 21
4474318.18
  0
LINE
  8
PG-LP
 10
443003.83
 20
4474292.10
 11
443003.67
 21
4474292.11
  0
LINE
  8
PG-LP
 10
442994.11
 20
4474318.17
 11
443004.32
 21
4474317.71
  0
LINE
  8
PG-LP
 10
443014.21
 20
4474291.51
 11
443003.83
 21
4474292.10
  0
LINE
  8
PG-LP
 10
443004.37
 20
4474317.71
 11
443014.89
 21
4474317.15
  0
LINE
  8
PG-LP
 10
443019.21
 20
4474291.08
 11
443018.20
 21
4474291.17
  0
LINE
  8
PG-LP
 10
443018.20
 20
4474291.17
 11
443014.23
 21
4474291.50
  0
LINE
  8
PG-LP
 10
443014.89
 20
4474317.15
 11
443020.90
 21
4474316.81
  0
LINE
  8
PG-LP
 10
443022.03
 20
4474291.35
 11
443021.96
 21
4474290.84
  0
LINE
  8
PG-LP
 10
443021.96
 20
4474290.84
 11
443019.23
 21
4474291.07
  0
LINE
  8
PG-LP
 10
443020.90
 20
4474316.81
 11
443023.64
 21
4474316.66
  0
LINE
  8
PG-LP
 10
443023.64
 20
4474316.66
 11
443023.57
 21
4474315.68
  0
LINE
  8
PG-LP
 10
443022.17
 20
4474294.06
 11
443022.16
 21
4474293.68
  0
LINE
  8
PG-LP
 10
443022.24
 20
4474295.23
 11
443022.24
 21
4474295.15
  0
LINE
  8
PG-LP
 10
443022.52
 20
4474299.43
 11
443022.38
 21
4474297.19
  0
LINE
  8
PG-LP
 10
443022.59
 20
4474300.60
 11
443022.59
 21
4474300.53
  0
LINE
  8
PG-LP
 10
443023.01
 20
4474306.90
 11
443022.70
 21
4474302.14
  0
LINE
  8
PG-LP
 10
443023.08
 20
4474308.04
 11
443023.06
 21
4474307.61
  0
LINE
  8
PG-LP
 10
443023.36
 20
4474312.27
 11
443023.11
 21
4474308.42
  0
LINE
  8
PG-LP
 10
443023.57
 20
4474315.68
 11
443023.51
 21
4474314.57
  0
LINE
  8
PG-LP
 10
443023.51
 20
4474314.57
 11
443023.46
 21
4474313.79
  0
LINE
  8
PG-LP
 10
442989.21
 20
4474299.17
 11
442989.22
 21
4474299.50
  0
LINE
  8
PG-LP
 10
442993.89
 20
4474318.18
 11
442994.11
 21
4474318.17
  0
LINE
  8
PG-LP
 10
443003.67
 20
4474292.11
 11
442999.18
 21
4474292.43
  0
LINE
  8
PG-LP
 10
442999.18
 20
4474292.43
 11
442997.77
 21
4474292.48
  0
LINE
  8
PG-LP
 10
442997.77
 20
4474292.48
 11
442992.26
 21
4474292.89
  0
LINE
  8
PG-LP
 10
442992.26
 20
4474292.89
 11
442992.28
 21
4474293.17
  0
LINE
  8
PG-LP
 10
443004.32
 20
4474317.71
 11
443004.37
 21
4474317.71
  0
LINE
  8
PG-LP
 10
443014.23
 20
4474291.50
 11
443014.21
 21
4474291.51
  0
LINE
  8
PG-LP
 10
443022.15
 20
4474293.53
 11
443022.09
 21
4474292.48
  0
LINE
  8
PG-LP
 10
443022.09
 20
4474292.48
 11
443022.03
 21
4474291.35
  0
LINE
  8
PG-LP
 10
443022.38
 20
4474297.19
 11
443022.24
 21
4474295.23
  0
LINE
  8
PG-LP
 10
443019.23
 20
4474291.07
 11
443019.21
 21
4474291.08
  0
LINE
  8
PG-LP
 10
443022.16
 20
4474293.68
 11
443022.15
 21
4474293.53
  0
LINE
  8
PG-LP
 10
443022.24
 20
4474295.15
 11
443022.17
 21
4474294.06
  0
LINE
  8
PG-LP
 10
443022.59
 20
4474300.53
 11
443022.54
 21
4474299.69
  0
LINE
  8
PG-LP
 10
443022.70
 20
4474302.14
 11
443022.59
 21
4474300.60
  0
LINE
  8
PG-LP
 10
443023.06
 20
4474307.61
 11
443023.01
 21
4474306.90
  0
LINE
  8
PG-LP
 10
443023.11
 20
4474308.42
 11
443023.08
 21
4474308.04
  0
LINE
  8
PG-LP
 10
443023.46
 20
4474313.79
 11
443023.44
 21
4474313.55
  0
LINE
  8
PG-LP
 10
443023.44
 20
4474313.55
 11
443023.36
 21
4474312.27
  0
LINE
  8
PG-LP
 10
443022.54
 20
4474299.69
 11
443022.52
 21
4474299.43
  0
LINE
  8
PG-LI
 10
442993.89
 20
4474318.18
 11
442992.66
 21
4474298.98
  0
LINE
  8
PG-LI
 10
443004.32
 20
4474317.71
 11
443004.15
 21
4474315.09
  0
LINE
  8
PG-LI
 10
443004.15
 20
4474315.09
 11
443008.82
 21
4474314.85
  0
LINE
  8
PG-LI
 10
443003.67
 20
4474292.11
 11
443003.83
 21
4474294.71
  0
LINE
  8
PG-LI
 10
443003.83
 20
4474294.71
 11
443007.50
 21
4474294.47
  0
LINE
  8
PG-LI
 10
443022.15
 20
4474293.53
 11
443019.40
 21
4474293.71
  0
LINE
  8
PG-LI
 10
443005.41
 20
4474307.25
 11
443005.33
 21
4474305.95
  0
LINE
  8
PG-LI
 10
443003.70
 20
4474303.72
 11
443003.62
 21
4474302.42
  0
LINE
  8
PG-LI
 10
443003.62
 20
4474302.42
 11
443007.99
 21
4474302.13
  0
LINE
  8
PG-LI
 10
443005.41
 20
4474307.25
 11
443003.93
 21
4474307.34
  0
LINE
  8
PG-LI
 10
443003.93
 20
4474307.34
 11
443003.85
 21
4474306.04
  0
LINE
  8
PG-LI
 10
442992.66
 20
4474298.98
 11
442992.28
 21
4474293.17
  0
LINE
  8
PG-LI
 10
443014.40
 20
4474294.03
 11
443007.53
 21
4474294.47
  0
LINE
  8
PG-LI
 10
442992.66
 20
4474298.98
 11
442989.21
 21
4474299.17
  0
LINE
  8
PG-LI
 10
443014.40
 20
4474294.03
 11
443014.23
 21
4474291.50
  0
LINE
  8
PG-LI
 10
443005.33
 20
4474305.95
 11
443013.92
 21
4474305.39
  0
LINE
  8
PG-LI
 10
443013.75
 20
4474302.72
 11
443019.96
 21
4474302.32
  0
LINE
  8
PG-LI
 10
443007.50
 20
4474294.47
 11
443007.73
 21
4474298.14
  0
LINE
  8
PG-LI
 10
443003.85
 20
4474306.04
 11
443003.70
 21
4474303.72
  0
LINE
  8
PG-LI
 10
443013.77
 20
4474303.06
 11
443013.92
 21
4474305.39
  0
LINE
  8
PG-LI
 10
443023.46
 20
4474313.79
 11
443024.22
 21
4474313.74
  0
LINE
  8
PG-LI
 10
443024.22
 20
4474313.74
 11
443023.82
 21
4474307.56
  0
LINE
  8
PG-LI
 10
443023.82
 20
4474307.56
 11
443023.36
 21
4474300.48
  0
LINE
  8
PG-LI
 10
443023.36
 20
4474300.48
 11
443022.91
 21
4474293.63
  0
LINE
  8
PG-LI
 10
443022.91
 20
4474293.63
 11
443022.16
 21
4474293.68
  0
LINE
  8
PG-LI
 10
443019.23
 20
4474291.07
 11
443019.40
 21
4474293.71
  0
LINE
  8
PG-LI
 10
443022.54
 20
4474299.69
 11
443019.80
 21
4474299.87
  0
LINE
  8
PG-LI
 10
443019.80
 20
4474299.87
 11
443019.96
 21
4474302.32
  0
LINE
  8
PG-LI
 10
443023.36
 20
4474312.27
 11
443020.62
 21
4474312.45
  0
LINE
  8
PG-LI
 10
443020.62
 20
4474312.45
 11
443020.90
 21
4474316.81
  0
LINE
  8
PG-LI
 10
443008.82
 20
4474314.85
 11
443008.31
 21
4474307.06
  0
LINE
  8
PG-LI
 10
443007.73
 20
4474298.14
 11
443022.38
 21
4474297.19
  0
LINE
  8
PG-LI
 10
443008.82
 20
4474314.85
 11
443014.71
 21
4474314.54
  0
LINE
  8
PG-LI
 10
443014.71
 20
4474314.54
 11
443014.89
 21
4474317.15
  0
LINE
  8
PG-LI
 10
443007.50
 20
4474294.47
 11
443007.53
 21
4474294.47
  0
LINE
  8
PG-LI
 10
443019.40
 20
4474293.71
 11
443019.50
 21
4474295.33
  0
LINE
  8
PG-LI
 10
443019.50
 20
4474295.33
 11
443022.24
 21
4474295.15
  0
LINE
  8
PG-LI
 10
443019.40
 20
4474293.71
 11
443014.40
 21
4474294.03
  0
LINE
  8
PG-LI
 10
443013.75
 20
4474302.72
 11
443013.77
 21
4474303.06
  0
LINE
  8
PG-LI
 10
443007.99
 20
4474302.13
 11
443013.69
 21
4474301.77
  0
LINE
  8
PG-LI
 10
443013.69
 20
4474301.77
 11
443013.75
 21
4474302.72
  0
LINE
  8
PG-LI
 10
443003.85
 20
4474306.04
 11
443005.33
 21
4474305.95
  0
LINE
  8
PG-LI
 10
443013.92
 20
4474305.39
 11
443014.01
 21
4474306.69
  0
LINE
  8
PG-LI
 10
443014.01
 20
4474306.69
 11
443008.31
 21
4474307.06
  0
LINE
  8
PG-LI
 10
443019.96
 20
4474302.32
 11
443020.37
 21
4474308.60
  0
LINE
  8
PG-LI
 10
443020.37
 20
4474308.60
 11
443023.11
 21
4474308.42
  0
LINE
  8
PG-LI
 10
443019.96
 20
4474302.32
 11
443022.70
 21
4474302.14
  0
LINE
  8
PG-LI
 10
443007.73
 20
4474298.14
 11
443007.99
 21
4474302.13
  0
LINE
  8
PG-LI
 10
443013.77
 20
4474303.06
 11
443003.70
 21
4474303.72
  0
LINE
  8
PG-LI
 10
443023.82
 20
4474307.56
 11
443023.06
 21
4474307.61
  0
LINE
  8
PG-LI
 10
443023.36
 20
4474300.48
 11
443022.59
 21
4474300.53
  0
LINE
  8
PG-LI
 10
443008.31
 20
4474307.06
 11
443005.41
 21
4474307.25
  0
TEXT
  8
PG-TL
 10
443028.35
 20
4474281.96
 30
0.0
 40
2.5
  1
CL ANTONIO ARIAS, 9
 50
86.28
 72
1
 73
2
 11
443028.49
 21
4474303.38
 31
0.0
  0
POLYLINE
  8
PG-LF
 66
1
  0
VERTEX
  8
PG-LF
 10
443026.22
 20
4474303.52
  0
VERTEX
  8
PG-LF
 10
443026.82
 20
4474302.69
  0
VERTEX
  8
PG-LF
 10
443026.85
 20
4474303.08
  0
VERTEX
  8
PG-LF
 10
443027.51
 20
4474303.04
  0
VERTEX
  8
PG-LF
 10
443027.56
 20
4474303.83
  0
VERTEX
  8
PG-LF
 10
443026.90
 20
4474303.88
  0
VERTEX
  8
PG-LF
 10
443026.93
 20
4474304.27
  0
VERTEX
  8
PG-LF
 10
443026.22
 20
4474303.52
  0
SEQEND
  0
TEXT
  8
PS01-AU
 10
443007.77
 20
4474311.80
 30
0.0
 40
0.7
  1
V.B
 72
1
 73
3
 11
443008.71
 21
4474312.50
 31
0.0
  0
TEXT
  8
PS01-AS
 10
443007.77
 20
4474312.50
 30
0.0
 40
0.7
  1
122
 72
1
 73
1
 11
443008.71
 21
4474312.50
 31
0.0
  0
TEXT
  8
PS01-AU
 10
442995.15
 20
4474305.67
 30
0.0
 40
0.7
  1
V.A
 72
1
 73
3
 11
442996.09
 21
4474306.37
 31
0.0
  0
TEXT
  8
PS01-AS
 10
442995.46
 20
4474306.37
 30
0.0
 40
0.7
  1
97
 72
1
 73
1
 11
442996.09
 21
4474306.37
 31
0.0
  0
TEXT
  8
PS01-AU
 10
442995.54
 20
4474314.27
 30
0.0
 40
0.7
  1
COM.VP-
 72
1
 73
3
 11
442997.75
 21
4474314.97
 31
0.0
  0
TEXT
  8
PS01-AS
 10
442997.12
 20
4474314.97
 30
0.0
 40
0.7
  1
65
 72
1
 73
1
 11
442997.75
 21
4474314.97
 31
0.0
  0
TEXT
  8
PS01-AU
 10
442999.19
 20
4474304.76
 30
0.0
 40
0.7
  1
COM.VA-
 72
1
 73
3
 11
443001.40
 21
4474305.46
 31
0.0
  0
TEXT
  8
PS01-AS
 10
443000.77
 20
4474305.46
 30
0.0
 40
0.7
  1
25
 72
1
 73
1
 11
443001.40
 21
4474305.46
 31
0.0
  0
TEXT
  8
PS01-AU
 10
443007.70
 20
4474305.71
 30
0.0
 40
0.7
  1
PTO
 72
1
 73
3
 11
443008.64
 21
4474306.41
 31
0.0
  0
TEXT
  8
PS01-AS
 10
443008.01
 20
4474306.41
 30
0.0
 40
0.7
  1
11
 72
1
 73
1
 11
443008.64
 21
4474306.41
 31
0.0
  0
TEXT
  8
PS01-AU
 10
443012.76
 20
4474298.53
 30
0.0
 40
0.7
  1
AAL.02
 72
1
 73
3
 11
443014.65
 21
4474299.23
 31
0.0
  0
TEXT
  8
PS01-AS
 10
443014.02
 20
4474299.23
 30
0.0
 40
0.7
  1
49
 72
1
 73
1
 11
443014.65
 21
4474299.23
 31
0.0
  0
TEXT
  8
PS01-AU
 10
443016.46
 20
4474291.91
 30
0.0
 40
0.7
  1
AAL.01
 72
1
 73
3
 11
443018.35
 21
4474292.61
 31
0.0
  0
TEXT
  8
PS01-AS
 10
443017.72
 20
4474292.61
 30
0.0
 40
0.7
  1
20
 72
1
 73
1
 11
443018.35
 21
4474292.61
 31
0.0
  0
TEXT
  8
PS01-AU
 10
442995.52
 20
4474296.54
 30
0.0
 40
0.7
  1
COM.GJ-
 72
1
 73
3
 11
442997.73
 21
4474297.24
 31
0.0
  0
TEXT
  8
PS01-AS
 10
442997.10
 20
4474297.24
 30
0.0
 40
0.7
  1
91
 72
1
 73
1
 11
442997.73
 21
4474297.24
 31
0.0
  0
TEXT
  8
PS01-TO
 10
442991.55
 20
4474295.60
 30
0.0
 40
0.7
  1
servidumbre de paso
 72
1
 73
2
 11
442997.54
 21
4474295.95
 31
0.0
  0
LINE
  8
PS01-LA
 10
442998.09
 20
4474294.84
 11
442988.99
 21
4474295.37
  0
LINE
  8
PS01-LA
 10
442993.49
 20
4474295.11
 11
442993.33
 21
4474292.81
  0
LINE
  8
PS01-LA
 10
443022.38
 20
4474297.19
 11
443022.24
 21
4474295.23
  0
LINE
  8
PS01-LA
 10
443022.24
 20
4474295.23
 11
443022.17
 21
4474294.06
  0
LINE
  8
PS01-LA
 10
443022.17
 20
4474294.06
 11
443022.15
 21
4474293.53
  0
LINE
  8
PS01-LA
 10
443014.23
 20
4474291.50
 11
443014.21
 21
4474291.51
  0
LINE
  8
PS01-LA
 10
443014.21
 20
4474291.51
 11
443003.83
 21
4474292.10
  0
LINE
  8
PS01-LA
 10
443003.83
 20
4474292.10
 11
443003.67
 21
4474292.11
  0
LINE
  8
PS01-LA
 10
443014.23
 20
4474291.50
 11
443014.21
 21
4474291.51
  0
TEXT
  8
PS01-AU
 10
443018.87
 20
4474310.03
 30
0.0
 40
0.7
  1
COM.TA-
 72
1
 73
3
 11
443021.08
 21
4474310.73
 31
0.0
  0
TEXT
  8
PS01-AS
 10
443020.45
 20
4474310.73
 30
0.0
 40
0.7
  1
23
 72
1
 73
1
 11
443021.08
 21
4474310.73
 31
0.0
  0
TEXT
  8
PS01-AU
 10
442998.84
 20
4474292.90
 30
0.0
 40
0.7
  1
COM.O-
 72
1
 73
3
 11
443000.73
 21
4474293.60
 31
0.0
  0
TEXT
  8
PS01-AS
 10
443000.10
 20
4474293.60
 30
0.0
 40
0.7
  1
14
 72
1
 73
1
 11
443000.73
 21
4474293.60
 31
0.0
  0
LINE
  8
PS01-LA
 10
443004.32
 20
4474317.71
 11
443004.37
 21
4474317.71
  0
LINE
  8
PS01-LA
 10
443004.37
 20
4474317.71
 11
443014.88
 21
4474317.15
  0
LINE
  8
PS01-LA
 10
442989.21
 20
4474299.17
 11
442990.09
 21
4474314.57
  0
LINE
  8
PS01-LA
 10
442990.09
 20
4474314.57
 11
442990.31
 21
4474318.46
  0
LINE
  8
PS01-LA
 10
442990.31
 20
4474318.46
 11
442993.89
 21
4474318.18
  0
LINE
  8
PS01-LA
 10
443007.53
 20
4474294.47
 11
443014.40
 21
4474294.03
  0
TEXT
  8
PS01-AU
 10
443002.52
 20
4474306.97
 30
0.0
 40
0.7
  1
COM.TA-
 72
1
 73
3
 11
443004.72
 21
4474307.67
 31
0.0
  0
TEXT
  8
PS01-AS
 10
443004.41
 20
4474307.67
 30
0.0
 40
0.7
  1
5
 72
1
 73
1
 11
443004.72
 21
4474307.67
 31
0.0
  0
TEXT
  8
PS01-AU
 10
443007.02
 20
4474303.43
 30
0.0
 40
0.7
  1
AAL.C
 72
1
 73
3
 11
443008.59
 21
4474304.13
 31
0.0
  0
TEXT
  8
PS01-AS
 10
443007.96
 20
4474304.13
 30
0.0
 40
0.7
  1
37
 72
1
 73
1
 11
443008.59
 21
4474304.13
 31
0.0
  0
TEXT
  8
PS01-AU
 10
443015.93
 20
4474302.71
 30
0.0
 40
0.7
  1
AAL.03
 72
1
 73
3
 11
443017.82
 21
4474303.41
 31
0.0
  0
TEXT
  8
PS01-AS
 10
443017.19
 20
4474303.41
 30
0.0
 40
0.7
  1
54
 72
1
 73
1
 11
443017.82
 21
4474303.41
 31
0.0
  0
TEXT
  8
PS01-AU
 10
443002.24
 20
4474299.75
 30
0.0
 40
0.7
  1
AAL.D
 72
1
 73
3
 11
443003.81
 21
4474300.45
 31
0.0
  0
TEXT
  8
PS01-AS
 10
443003.18
 20
4474300.45
 30
0.0
 40
0.7
  1
31
 72
1
 73
1
 11
443003.81
 21
4474300.45
 31
0.0
  0
TEXT
  8
PS01-AU
 10
443012.48
 20
4474307.70
 30
0.0
 40
0.7
  1
COM.VL-
 72
1
 73
3
 11
443014.68
 21
4474308.40
 31
0.0
  0
TEXT
  8
PS01-AS
 10
443014.05
 20
4474308.40
 30
0.0
 40
0.7
  1
31
 72
1
 73
1
 11
443014.68
 21
4474308.40
 31
0.0
  0
LINE
  8
PS01-LP
 10
442992.28
 20
4474293.17
 11
442988.87
 21
4474293.36
  0
LINE
  8
PS01-LP
 10
442988.87
 20
4474293.36
 11
442989.21
 21
4474299.17
  0
LINE
  8
PS01-LP
 10
443023.57
 20
4474315.68
 11
443023.51
 21
4474314.57
  0
LINE
  8
PS01-LP
 10
443023.51
 20
4474314.57
 11
443023.44
 21
4474313.55
  0
LINE
  8
PS01-LP
 10
443023.44
 20
4474313.55
 11
443023.38
 21
4474312.44
  0
LINE
  8
PS01-LP
 10
443023.24
 20
4474310.37
 11
443023.08
 21
4474308.04
  0
LINE
  8
PS01-LP
 10
443023.08
 20
4474308.04
 11
443023.01
 21
4474306.90
  0
LINE
  8
PS01-LP
 10
443023.01
 20
4474306.90
 11
443022.96
 21
4474306.12
  0
LINE
  8
PS01-LP
 10
443014.88
 20
4474317.15
 11
443014.89
 21
4474317.15
  0
LINE
  8
PS01-LP
 10
443014.89
 20
4474317.15
 11
443020.90
 21
4474316.81
  0
LINE
  8
PS01-LP
 10
443020.90
 20
4474316.81
 11
443023.64
 21
4474316.66
  0
LINE
  8
PS01-LP
 10
443023.64
 20
4474316.66
 11
443023.57
 21
4474315.68
  0
LINE
  8
PS01-LP
 10
442993.89
 20
4474318.18
 11
442994.11
 21
4474318.17
  0
LINE
  8
PS01-LP
 10
442994.11
 20
4474318.17
 11
443004.32
 21
4474317.71
  0
LINE
  8
PS01-LP
 10
443022.83
 20
4474304.07
 11
443022.70
 21
4474302.14
  0
LINE
  8
PS01-LP
 10
443022.38
 20
4474297.27
 11
443022.38
 21
4474297.21
  0
LINE
  8
PS01-LP
 10
443003.67
 20
4474292.11
 11
442999.18
 21
4474292.43
  0
LINE
  8
PS01-LP
 10
442999.18
 20
4474292.43
 11
442997.94
 21
4474292.47
  0
LINE
  8
PS01-LP
 10
443022.38
 20
4474297.21
 11
443022.38
 21
4474297.19
  0
LINE
  8
PS01-LP
 10
443022.38
 20
4474297.31
 11
443022.38
 21
4474297.27
  0
LINE
  8
PS01-LP
 10
443023.38
 20
4474312.44
 11
443023.36
 21
4474312.27
  0
LINE
  8
PS01-LP
 10
443023.36
 20
4474312.27
 11
443023.24
 21
4474310.37
  0
LINE
  8
PS01-LP
 10
443022.90
 20
4474305.11
 11
443022.83
 21
4474304.07
  0
LINE
  8
PS01-LP
 10
443022.70
 20
4474302.14
 11
443022.59
 21
4474300.60
  0
LINE
  8
PS01-LP
 10
443022.59
 20
4474300.60
 11
443022.57
 21
4474300.15
  0
LINE
  8
PS01-LP
 10
443022.15
 20
4474293.53
 11
443022.09
 21
4474292.48
  0
LINE
  8
PS01-LP
 10
443022.09
 20
4474292.48
 11
443022.03
 21
4474291.35
  0
LINE
  8
PS01-LP
 10
443022.03
 20
4474291.35
 11
443021.96
 21
4474290.84
  0
LINE
  8
PS01-LP
 10
443021.96
 20
4474290.84
 11
443019.21
 21
4474291.08
  0
LINE
  8
PS01-LP
 10
443019.21
 20
4474291.08
 11
443018.20
 21
4474291.17
  0
LINE
  8
PS01-LP
 10
443018.20
 20
4474291.17
 11
443014.23
 21
4474291.50
  0
LINE
  8
PS01-LP
 10
443003.83
 20
4474294.71
 11
443003.82
 21
4474294.52
  0
LINE
  8
PS01-LP
 10
443014.40
 20
4474294.03
 11
443014.23
 21
4474291.50
  0
LINE
  8
PS01-LP
 10
443003.83
 20
4474294.71
 11
443007.53
 21
4474294.47
  0
LINE
  8
PS01-LP
 10
443014.40
 20
4474294.03
 11
443022.15
 21
4474293.53
  0
LINE
  8
PS01-LP
 10
443007.77
 20
4474298.13
 11
443022.38
 21
4474297.19
  0
LINE
  8
PS01-LP
 10
443007.77
 20
4474298.13
 11
443007.53
 21
4474294.47
  0
LINE
  8
PS01-LP
 10
442997.94
 20
4474292.47
 11
442997.77
 21
4474292.48
  0
LINE
  8
PS01-LP
 10
442997.77
 20
4474292.48
 11
442992.26
 21
4474292.89
  0
LINE
  8
PS01-LP
 10
442992.26
 20
4474292.89
 11
442992.28
 21
4474293.17
  0
LINE
  8
PS01-LP
 10
443003.82
 20
4474294.52
 11
443003.67
 21
4474292.11
  0
LINE
  8
PS01-LP
 10
443022.96
 20
4474306.12
 11
443022.90
 21
4474305.11
  0
LINE
  8
PS01-LP
 10
443022.57
 20
4474300.15
 11
443022.52
 21
4474299.43
  0
LINE
  8
PS01-LP
 10
443022.52
 20
4474299.43
 11
443022.38
 21
4474297.31
  0
LINE
  8
PS01-LP
 10
442993.89
 20
4474318.18
 11
442993.51
 21
4474312.22
  0
LINE
  8
PS01-LP
 10
442992.68
 20
4474299.27
 11
442992.66
 21
4474298.98
  0
LINE
  8
PS01-LP
 10
442993.47
 20
4474311.66
 11
442992.68
 21
4474299.34
  0
LINE
  8
PS01-LP
 10
443014.88
 20
4474317.15
 11
443014.71
 21
4474314.54
  0
LINE
  8
PS01-LP
 10
443014.71
 20
4474314.54
 11
443004.15
 21
4474315.09
  0
LINE
  8
PS01-LP
 10
443004.15
 20
4474315.09
 11
443004.32
 21
4474317.71
  0
LINE
  8
PS01-LP
 10
442992.68
 20
4474299.34
 11
442992.68
 21
4474299.27
  0
LINE
  8
PS01-LP
 10
442992.66
 20
4474298.98
 11
442989.21
 21
4474299.17
  0
LINE
  8
PS01-LP
 10
442993.51
 20
4474312.22
 11
442993.47
 21
4474311.66
  0
LINE
  8
PS01-LI
 10
442999.44
 20
4474307.21
 11
443000.96
 21
4474307.11
  0
LINE
  8
PS01-LI
 10
442999.44
 20
4474307.21
 11
442999.17
 21
4474303.15
  0
LINE
  8
PS01-LI
 10
442999.17
 20
4474303.15
 11
443000.94
 21
4474303.03
  0
LINE
  8
PS01-LI
 10
443000.94
 20
4474303.03
 11
443001.00
 21
4474303.03
  0
LINE
  8
PS01-LI
 10
443014.01
 20
4474306.69
 11
443013.94
 21
4474305.69
  0
LINE
  8
PS01-LI
 10
443004.05
 20
4474309.15
 11
443003.93
 21
4474307.34
  0
LINE
  8
PS01-LI
 10
443003.93
 20
4474307.34
 11
443003.85
 21
4474306.04
  0
LINE
  8
PS01-LI
 10
443013.69
 20
4474301.77
 11
443008.03
 21
4474302.13
  0
LINE
  8
PS01-LI
 10
443001.22
 20
4474311.16
 11
443001.11
 21
4474309.52
  0
LINE
  8
PS01-LI
 10
443003.85
 20
4474306.04
 11
443005.33
 21
4474305.95
  0
LINE
  8
PS01-LI
 10
443023.38
 20
4474312.44
 11
443019.42
 21
4474312.69
  0
LINE
  8
PS01-LI
 10
443009.71
 20
4474306.97
 11
443010.63
 21
4474306.91
  0
LINE
  8
PS01-LI
 10
443013.94
 20
4474305.69
 11
443013.92
 21
4474305.39
  0
LINE
  8
PS01-LI
 10
443013.75
 20
4474302.72
 11
443013.69
 21
4474301.77
  0
LINE
  8
PS01-LI
 10
443008.03
 20
4474302.13
 11
443007.77
 21
4474298.13
  0
LINE
  8
PS01-LI
 10
443013.92
 20
4474305.39
 11
443013.75
 21
4474302.72
  0
LINE
  8
PS01-LI
 10
443008.03
 20
4474302.13
 11
443003.62
 21
4474302.42
  0
LINE
  8
PS01-LI
 10
443003.70
 20
4474303.72
 11
443003.64
 21
4474302.86
  0
LINE
  8
PS01-LI
 10
443007.77
 20
4474298.13
 11
442999.78
 21
4474298.58
  0
LINE
  8
PS01-LI
 10
442997.94
 20
4474292.47
 11
442998.09
 21
4474294.84
  0
LINE
  8
PS01-LI
 10
443003.82
 20
4474294.52
 11
442998.09
 21
4474294.84
  0
LINE
  8
PS01-LI
 10
443000.79
 20
4474299.80
 11
443001.00
 21
4474303.03
  0
LINE
  8
PS01-LI
 10
443001.00
 20
4474303.03
 11
443002.26
 21
4474302.95
  0
LINE
  8
PS01-LI
 10
442999.78
 20
4474298.58
 11
442992.66
 21
4474298.98
  0
LINE
  8
PS01-LI
 10
442999.86
 20
4474299.85
 11
442999.78
 21
4474298.58
  0
LINE
  8
PS01-LI
 10
443000.79
 20
4474299.80
 11
442999.86
 21
4474299.85
  0
LINE
  8
PS01-LI
 10
443002.26
 20
4474302.95
 11
443003.64
 21
4474302.86
  0
LINE
  8
PS01-LI
 10
443003.70
 20
4474303.72
 11
443003.85
 21
4474306.04
  0
LINE
  8
PS01-LI
 10
443003.64
 20
4474302.86
 11
443003.62
 21
4474302.42
  0
LINE
  8
PS01-LI
 10
443001.22
 20
4474311.16
 11
443001.25
 21
4474311.72
  0
LINE
  8
PS01-LI
 10
443001.25
 20
4474311.72
 11
442993.51
 21
4474312.22
  0
LINE
  8
PS01-LI
 10
443004.15
 20
4474315.09
 11
443003.97
 21
4474312.27
  0
LINE
  8
PS01-LI
 10
443002.37
 20
4474312.38
 11
443002.19
 21
4474309.45
  0
LINE
  8
PS01-LI
 10
443002.87
 20
4474312.34
 11
443003.97
 21
4474312.27
  0
LINE
  8
PS01-LI
 10
443002.37
 20
4474312.38
 11
443002.87
 21
4474312.34
  0
LINE
  8
PS01-LI
 10
443005.33
 20
4474305.95
 11
443005.41
 21
4474307.25
  0
LINE
  8
PS01-LI
 10
443005.54
 20
4474309.24
 11
443004.06
 21
4474309.33
  0
LINE
  8
PS01-LI
 10
443004.05
 20
4474309.15
 11
443004.06
 21
4474309.33
  0
LINE
  8
PS01-LI
 10
443005.41
 20
4474307.25
 11
443005.54
 21
4474309.24
  0
LINE
  8
PS01-LI
 10
443005.41
 20
4474307.25
 11
443009.71
 21
4474306.97
  0
LINE
  8
PS01-LI
 10
443001.11
 20
4474309.52
 11
443000.96
 21
4474307.11
  0
LINE
  8
PS01-LI
 10
443005.33
 20
4474305.95
 11
443013.92
 21
4474305.39
  0
LINE
  8
PS01-LI
 10
443002.19
 20
4474309.45
 11
443001.11
 21
4474309.52
  0
LINE
  8
PS01-LI
 10
443002.68
 20
4474309.42
 11
443002.19
 21
4474309.45
  0
LINE
  8
PS01-LI
 10
443004.06
 20
4474309.33
 11
443002.68
 21
4474309.42
  0
LINE
  8
PS01-LI
 10
443013.69
 20
4474301.77
 11
443013.62
 21
4474300.72
  0
LINE
  8
PS01-LI
 10
443013.62
 20
4474300.72
 11
443022.57
 21
4474300.15
  0
LINE
  8
PS01-LI
 10
443014.01
 20
4474306.69
 11
443019.01
 21
4474306.37
  0
LINE
  8
PS01-LI
 10
443019.01
 20
4474306.37
 11
443019.13
 21
4474308.23
  0
LINE
  8
PS01-LI
 10
443019.19
 20
4474309.18
 11
443020.94
 21
4474309.07
  0
LINE
  8
PS01-LI
 10
443020.88
 20
4474308.12
 11
443019.13
 21
4474308.23
  0
LINE
  8
PS01-LI
 10
443019.23
 20
4474309.86
 11
443010.85
 21
4474310.40
  0
LINE
  8
PS01-LI
 10
443010.85
 20
4474310.40
 11
443010.63
 21
4474306.91
  0
LINE
  8
PS01-LI
 10
443010.63
 20
4474306.91
 11
443014.01
 21
4474306.69
  0
LINE
  8
PS01-LI
 10
443019.01
 20
4474306.37
 11
443022.96
 21
4474306.12
  0
LINE
  8
PS01-LI
 10
443019.19
 20
4474309.18
 11
443019.23
 21
4474309.86
  0
LINE
  8
PS01-LI
 10
443020.88
 20
4474308.12
 11
443020.94
 21
4474309.07
  0
LINE
  8
PS01-LI
 10
443019.23
 20
4474309.86
 11
443019.42
 21
4474312.69
  0
TEXT
  8
PS02-AU
 10
443007.77
 20
4474311.80
 30
0.0
 40
0.7
  1
V.A
 72
1
 73
3
 11
443008.71
 21
4474312.50
 31
0.0
  0
TEXT
  8
PS02-AS
 10
443007.77
 20
4474312.50
 30
0.0
 40
0.7
  1
115
 72
1
 73
1
 11
443008.71
 21
4474312.50
 31
0.0
  0
TEXT
  8
PS02-AU
 10
442997.53
 20
4474294.24
 30
0.0
 40
0.7
  1
O99.B
 72
1
 73
3
 11
442999.11
 21
4474294.94
 31
0.0
  0
TEXT
  8
PS02-AS
 10
442998.48
 20
4474294.94
 30
0.0
 40
0.7
  1
98
 72
1
 73
1
 11
442999.11
 21
4474294.94
 31
0.0
  0
TEXT
  8
PS02-AU
 10
442995.15
 20
4474305.67
 30
0.0
 40
0.7
  1
V.C
 72
1
 73
3
 11
442996.09
 21
4474306.37
 31
0.0
  0
TEXT
  8
PS02-AS
 10
442995.15
 20
4474306.37
 30
0.0
 40
0.7
  1
106
 72
1
 73
1
 11
442996.09
 21
4474306.37
 31
0.0
  0
TEXT
  8
PS02-AU
 10
442996.80
 20
4474314.27
 30
0.0
 40
0.7
  1
V.D
 72
1
 73
3
 11
442997.75
 21
4474314.97
 31
0.0
  0
TEXT
  8
PS02-AS
 10
442997.12
 20
4474314.97
 30
0.0
 40
0.7
  1
71
 72
1
 73
1
 11
442997.75
 21
4474314.97
 31
0.0
  0
TEXT
  8
PS02-AU
 10
443005.66
 20
4474303.91
 30
0.0
 40
0.7
  1
COM.VA
 72
1
 73
3
 11
443007.55
 21
4474304.61
 31
0.0
  0
TEXT
  8
PS02-AS
 10
443006.92
 20
4474304.61
 30
0.0
 40
0.7
  1
75
 72
1
 73
1
 11
443007.55
 21
4474304.61
 31
0.0
  0
TEXT
  8
PS02-AU
 10
443008.72
 20
4474315.44
 30
0.0
 40
0.7
  1
PTO
 72
1
 73
3
 11
443009.67
 21
4474316.14
 31
0.0
  0
TEXT
  8
PS02-AS
 10
443009.04
 20
4474316.14
 30
0.0
 40
0.7
  1
28
 72
1
 73
1
 11
443009.67
 21
4474316.14
 31
0.0
  0
TEXT
  8
PS02-AU
 10
443008.49
 20
4474292.42
 30
0.0
 40
0.7
  1
PTO
 72
1
 73
3
 11
443009.43
 21
4474293.12
 31
0.0
  0
TEXT
  8
PS02-AS
 10
443008.80
 20
4474293.12
 30
0.0
 40
0.7
  1
27
 72
1
 73
1
 11
443009.43
 21
4474293.12
 31
0.0
  0
TEXT
  8
PS02-AU
 10
442990.35
 20
4474305.86
 30
0.0
 40
0.7
  1
PTO
 72
1
 73
3
 11
442991.29
 21
4474306.56
 31
0.0
  0
TEXT
  8
PS02-AS
 10
442990.66
 20
4474306.56
 30
0.0
 40
0.7
  1
88
 72
1
 73
1
 11
442991.29
 21
4474306.56
 31
0.0
  0
TEXT
  8
PS02-AU
 10
443007.70
 20
4474305.71
 30
0.0
 40
0.7
  1
PTO
 72
1
 73
3
 11
443008.64
 21
4474306.41
 31
0.0
  0
TEXT
  8
PS02-AS
 10
443008.01
 20
4474306.41
 30
0.0
 40
0.7
  1
13
 72
1
 73
1
 11
443008.64
 21
4474306.41
 31
0.0
  0
TEXT
  8
PS02-AU
 10
443007.26
 20
4474301.95
 30
0.0
 40
0.7
  1
PTO
 72
1
 73
3
 11
443008.21
 21
4474302.65
 31
0.0
  0
TEXT
  8
PS02-AS
 10
443007.58
 20
4474302.65
 30
0.0
 40
0.7
  1
13
 72
1
 73
1
 11
443008.21
 21
4474302.65
 31
0.0
  0
TEXT
  8
PS02-AU
 10
443015.34
 20
4474308.19
 30
0.0
 40
0.7
  1
O99.03
 72
1
 73
3
 11
443017.23
 21
4474308.89
 31
0.0
  0
TEXT
  8
PS02-AS
 10
443016.60
 20
4474308.89
 30
0.0
 40
0.7
  1
75
 72
1
 73
1
 11
443017.23
 21
4474308.89
 31
0.0
  0
TEXT
  8
PS02-AU
 10
443014.52
 20
4474299.44
 30
0.0
 40
0.7
  1
O99.02
 72
1
 73
3
 11
443016.41
 21
4474300.14
 31
0.0
  0
TEXT
  8
PS02-AS
 10
443015.78
 20
4474300.14
 30
0.0
 40
0.7
  1
67
 72
1
 73
1
 11
443016.41
 21
4474300.14
 31
0.0
  0
TEXT
  8
PS02-AU
 10
443016.46
 20
4474291.91
 30
0.0
 40
0.7
  1
CCE.01
 72
1
 73
3
 11
443018.35
 21
4474292.61
 31
0.0
  0
TEXT
  8
PS02-AS
 10
443017.72
 20
4474292.61
 30
0.0
 40
0.7
  1
20
 72
1
 73
1
 11
443018.35
 21
4474292.61
 31
0.0
  0
TEXT
  8
PS02-AU
 10
443013.89
 20
4474295.27
 30
0.0
 40
0.7
  1
COM.GJ
 72
1
 73
3
 11
443015.78
 21
4474295.97
 31
0.0
  0
TEXT
  8
PS02-AS
 10
443015.15
 20
4474295.97
 30
0.0
 40
0.7
  1
54
 72
1
 73
1
 11
443015.78
 21
4474295.97
 31
0.0
  0
TEXT
  8
PS02-TO
 10
443009.28
 20
4474294.68
 30
0.0
 40
0.7
  1
servidumbre de paso
 72
1
 73
2
 11
443015.26
 21
4474295.03
 31
0.0
  0
LINE
  8
PS02-LP
 10
443004.32
 20
4474317.71
 11
443004.37
 21
4474317.71
  0
LINE
  8
PS02-LP
 10
443004.37
 20
4474317.71
 11
443014.88
 21
4474317.15
  0
LINE
  8
PS02-LP
 10
442992.28
 20
4474293.17
 11
442988.87
 21
4474293.36
  0
LINE
  8
PS02-LP
 10
442988.87
 20
4474293.36
 11
442990.09
 21
4474314.57
  0
LINE
  8
PS02-LP
 10
442990.09
 20
4474314.57
 11
442990.31
 21
4474318.46
  0
LINE
  8
PS02-LP
 10
442990.31
 20
4474318.46
 11
442993.89
 21
4474318.18
  0
LINE
  8
PS02-LP
 10
443014.23
 20
4474291.50
 11
443014.21
 21
4474291.51
  0
LINE
  8
PS02-LP
 10
443014.21
 20
4474291.51
 11
443003.83
 21
4474292.10
  0
LINE
  8
PS02-LP
 10
443003.83
 20
4474292.10
 11
443003.67
 21
4474292.11
  0
LINE
  8
PS02-LP
 10
443023.57
 20
4474315.68
 11
443023.51
 21
4474314.57
  0
LINE
  8
PS02-LP
 10
443023.51
 20
4474314.57
 11
443023.44
 21
4474313.55
  0
LINE
  8
PS02-LP
 10
443023.44
 20
4474313.55
 11
443023.38
 21
4474312.44
  0
LINE
  8
PS02-LP
 10
443023.24
 20
4474310.37
 11
443023.08
 21
4474308.04
  0
LINE
  8
PS02-LP
 10
443023.08
 20
4474308.04
 11
443023.01
 21
4474306.90
  0
LINE
  8
PS02-LP
 10
443023.01
 20
4474306.90
 11
443022.90
 21
4474305.11
  0
LINE
  8
PS02-LP
 10
443014.88
 20
4474317.15
 11
443014.89
 21
4474317.15
  0
LINE
  8
PS02-LP
 10
443014.89
 20
4474317.15
 11
443020.90
 21
4474316.81
  0
LINE
  8
PS02-LP
 10
443020.90
 20
4474316.81
 11
443023.64
 21
4474316.66
  0
LINE
  8
PS02-LP
 10
443023.64
 20
4474316.66
 11
443023.57
 21
4474315.68
  0
LINE
  8
PS02-LP
 10
442993.89
 20
4474318.18
 11
442994.11
 21
4474318.17
  0
LINE
  8
PS02-LP
 10
442994.11
 20
4474318.17
 11
443004.32
 21
4474317.71
  0
LINE
  8
PS02-LP
 10
443022.83
 20
4474304.07
 11
443022.70
 21
4474302.14
  0
LINE
  8
PS02-LP
 10
443022.38
 20
4474297.27
 11
443022.38
 21
4474297.21
  0
LINE
  8
PS02-LP
 10
443003.67
 20
4474292.11
 11
442999.18
 21
4474292.43
  0
LINE
  8
PS02-LP
 10
442999.18
 20
4474292.43
 11
442997.77
 21
4474292.48
  0
LINE
  8
PS02-LP
 10
442997.77
 20
4474292.48
 11
442992.26
 21
4474292.89
  0
LINE
  8
PS02-LP
 10
442992.26
 20
4474292.89
 11
442992.28
 21
4474293.17
  0
LINE
  8
PS02-LP
 10
443022.38
 20
4474297.21
 11
443022.38
 21
4474297.19
  0
LINE
  8
PS02-LP
 10
443022.38
 20
4474297.31
 11
443022.38
 21
4474297.27
  0
LINE
  8
PS02-LP
 10
443023.38
 20
4474312.44
 11
443023.36
 21
4474312.27
  0
LINE
  8
PS02-LP
 10
443023.36
 20
4474312.27
 11
443023.24
 21
4474310.37
  0
LINE
  8
PS02-LP
 10
443022.90
 20
4474305.11
 11
443022.83
 21
4474304.07
  0
LINE
  8
PS02-LP
 10
443022.70
 20
4474302.14
 11
443022.59
 21
4474300.60
  0
LINE
  8
PS02-LP
 10
443022.59
 20
4474300.60
 11
443022.52
 21
4474299.43
  0
LINE
  8
PS02-LP
 10
443022.52
 20
4474299.43
 11
443022.38
 21
4474297.31
  0
LINE
  8
PS02-LP
 10
443022.15
 20
4474293.53
 11
443022.09
 21
4474292.48
  0
LINE
  8
PS02-LP
 10
443022.09
 20
4474292.48
 11
443022.03
 21
4474291.35
  0
LINE
  8
PS02-LP
 10
443022.03
 20
4474291.35
 11
443021.96
 21
4474290.84
  0
LINE
  8
PS02-LP
 10
443021.96
 20
4474290.84
 11
443019.21
 21
4474291.08
  0
LINE
  8
PS02-LP
 10
443019.21
 20
4474291.08
 11
443018.20
 21
4474291.17
  0
LINE
  8
PS02-LP
 10
443018.20
 20
4474291.17
 11
443014.23
 21
4474291.50
  0
LINE
  8
PS02-LP
 10
443022.38
 20
4474297.19
 11
443022.24
 21
4474295.23
  0
LINE
  8
PS02-LP
 10
443022.24
 20
4474295.23
 11
443022.17
 21
4474294.06
  0
LINE
  8
PS02-LP
 10
443022.17
 20
4474294.06
 11
443022.15
 21
4474293.53
  0
LINE
  8
PS02-LI
 10
442993.89
 20
4474318.18
 11
442993.47
 21
4474311.66
  0
LINE
  8
PS02-LI
 10
442992.68
 20
4474299.27
 11
442992.61
 21
4474298.27
  0
LINE
  8
PS02-LI
 10
442993.47
 20
4474311.66
 11
442992.68
 21
4474299.34
  0
LINE
  8
PS02-LI
 10
443014.88
 20
4474317.15
 11
443014.71
 21
4474314.54
  0
LINE
  8
PS02-LI
 10
443014.71
 20
4474314.54
 11
443004.15
 21
4474315.09
  0
LINE
  8
PS02-LI
 10
443003.83
 20
4474294.71
 11
443003.67
 21
4474292.11
  0
LINE
  8
PS02-LI
 10
443014.40
 20
4474294.03
 11
443014.23
 21
4474291.50
  0
LINE
  8
PS02-LI
 10
443004.15
 20
4474315.09
 11
443004.32
 21
4474317.71
  0
LINE
  8
PS02-LI
 10
443003.83
 20
4474294.71
 11
443007.53
 21
4474294.47
  0
LINE
  8
PS02-LI
 10
442992.68
 20
4474299.34
 11
442992.68
 21
4474299.27
  0
LINE
  8
PS02-LI
 10
443003.05
 20
4474315.14
 11
443002.67
 21
4474309.23
  0
LINE
  8
PS02-LI
 10
442999.44
 20
4474307.21
 11
443000.96
 21
4474307.11
  0
LINE
  8
PS02-LI
 10
442999.44
 20
4474307.21
 11
442999.17
 21
4474303.15
  0
LINE
  8
PS02-LI
 10
442999.17
 20
4474303.15
 11
443000.94
 21
4474303.03
  0
LINE
  8
PS02-LI
 10
443002.67
 20
4474309.23
 11
443002.52
 21
4474307.01
  0
LINE
  8
PS02-LI
 10
443001.22
 20
4474311.16
 11
442993.47
 21
4474311.66
  0
LINE
  8
PS02-LI
 10
443001.20
 20
4474307.10
 11
443002.52
 21
4474307.01
  0
LINE
  8
PS02-LI
 10
443002.26
 20
4474302.95
 11
443002.17
 21
4474301.45
  0
LINE
  8
PS02-LI
 10
443000.94
 20
4474303.03
 11
443002.26
 21
4474302.95
  0
LINE
  8
PS02-LI
 10
443002.17
 20
4474301.45
 11
443002.10
 21
4474300.43
  0
LINE
  8
PS02-LI
 10
443002.07
 20
4474299.95
 11
443001.92
 21
4474297.67
  0
LINE
  8
PS02-LI
 10
443003.93
 20
4474307.34
 11
443009.71
 21
4474306.97
  0
LINE
  8
PS02-LI
 10
443014.01
 20
4474306.69
 11
443013.94
 21
4474305.69
  0
LINE
  8
PS02-LI
 10
443004.05
 20
4474309.15
 11
443003.93
 21
4474307.34
  0
LINE
  8
PS02-LI
 10
443004.05
 20
4474309.15
 11
443002.67
 21
4474309.23
  0
LINE
  8
PS02-LI
 10
443003.93
 20
4474307.34
 11
443003.85
 21
4474306.04
  0
LINE
  8
PS02-LI
 10
443003.61
 20
4474302.33
 11
443003.48
 21
4474300.35
  0
LINE
  8
PS02-LI
 10
443004.15
 20
4474315.09
 11
443003.05
 21
4474315.14
  0
LINE
  8
PS02-LI
 10
443003.61
 20
4474302.36
 11
443003.61
 21
4474302.33
  0
LINE
  8
PS02-LI
 10
443003.62
 20
4474302.42
 11
443003.61
 21
4474302.36
  0
LINE
  8
PS02-LI
 10
443013.69
 20
4474301.77
 11
443008.03
 21
4474302.13
  0
LINE
  8
PS02-LI
 10
443001.22
 20
4474311.16
 11
443000.96
 21
4474307.11
  0
LINE
  8
PS02-LI
 10
443001.92
 20
4474297.67
 11
442992.61
 21
4474298.27
  0
LINE
  8
PS02-LI
 10
442992.61
 20
4474298.27
 11
442992.28
 21
4474293.17
  0
LINE
  8
PS02-LI
 10
443000.96
 20
4474307.11
 11
443001.20
 21
4474307.10
  0
LINE
  8
PS02-LI
 10
443002.10
 20
4474300.43
 11
443003.48
 21
4474300.35
  0
LINE
  8
PS02-LI
 10
443002.10
 20
4474300.43
 11
443002.07
 21
4474299.95
  0
LINE
  8
PS02-LI
 10
443014.40
 20
4474294.03
 11
443022.15
 21
4474293.53
  0
LINE
  8
PS02-LI
 10
443018.01
 20
4474312.78
 11
443017.86
 21
4474310.51
  0
LINE
  8
PS02-LI
 10
443009.98
 20
4474311.02
 11
443009.71
 21
4474306.97
  0
LINE
  8
PS02-LI
 10
443009.98
 20
4474311.02
 11
443017.86
 21
4474310.51
  0
LINE
  8
PS02-LI
 10
443013.94
 20
4474305.69
 11
443022.90
 21
4474305.11
  0
LINE
  8
PS02-LI
 10
443013.75
 20
4474302.72
 11
443022.70
 21
4474302.14
  0
LINE
  8
PS02-LI
 10
443003.85
 20
4474306.04
 11
443013.92
 21
4474305.39
  0
LINE
  8
PS02-LI
 10
443023.38
 20
4474312.44
 11
443018.01
 21
4474312.78
  0
LINE
  8
PS02-LI
 10
443009.71
 20
4474306.97
 11
443014.01
 21
4474306.69
  0
LINE
  8
PS02-LI
 10
443013.94
 20
4474305.69
 11
443013.92
 21
4474305.39
  0
LINE
  8
PS02-LI
 10
443013.75
 20
4474302.72
 11
443013.69
 21
4474301.77
  0
LINE
  8
PS02-LI
 10
443008.03
 20
4474302.13
 11
443007.77
 21
4474298.13
  0
LINE
  8
PS02-LI
 10
443007.77
 20
4474298.13
 11
443022.38
 21
4474297.19
  0
LINE
  8
PS02-LI
 10
443007.53
 20
4474294.47
 11
443014.40
 21
4474294.03
  0
LINE
  8
PS02-LI
 10
443013.77
 20
4474303.06
 11
443003.70
 21
4474303.72
  0
LINE
  8
PS02-LI
 10
443013.77
 20
4474303.06
 11
443013.75
 21
4474302.72
  0
LINE
  8
PS02-LI
 10
443008.03
 20
4474302.13
 11
443003.62
 21
4474302.42
  0
LINE
  8
PS02-LI
 10
443003.70
 20
4474303.72
 11
443003.62
 21
4474302.42
  0
LINE
  8
PS02-LI
 10
443007.77
 20
4474298.13
 11
443007.53
 21
4474294.47
  0
TEXT
  8
PS03-AU
 10
443014.52
 20
4474299.44
 30
0.0
 40
0.7
  1
O99.02
 72
1
 73
3
 11
443016.41
 21
4474300.14
 31
0.0
  0
TEXT
  8
PS03-AS
 10
443015.78
 20
4474300.14
 30
0.0
 40
0.7
  1
67
 72
1
 73
1
 11
443016.41
 21
4474300.14
 31
0.0
  0
LINE
  8
PS03-LA
 10
443004.32
 20
4474317.71
 11
443004.37
 21
4474317.71
  0
LINE
  8
PS03-LA
 10
443004.37
 20
4474317.71
 11
443014.88
 21
4474317.15
  0
LINE
  8
PS03-LA
 10
442992.28
 20
4474293.17
 11
442988.87
 21
4474293.36
  0
LINE
  8
PS03-LA
 10
442988.87
 20
4474293.36
 11
442990.09
 21
4474314.57
  0
LINE
  8
PS03-LA
 10
442990.09
 20
4474314.57
 11
442990.31
 21
4474318.46
  0
LINE
  8
PS03-LA
 10
442990.31
 20
4474318.46
 11
442993.89
 21
4474318.18
  0
LINE
  8
PS03-LA
 10
443014.23
 20
4474291.50
 11
443014.21
 21
4474291.51
  0
LINE
  8
PS03-LA
 10
443014.21
 20
4474291.51
 11
443003.83
 21
4474292.10
  0
LINE
  8
PS03-LA
 10
443003.83
 20
4474292.10
 11
443003.67
 21
4474292.11
  0
LINE
  8
PS03-LA
 10
443023.24
 20
4474310.37
 11
443023.08
 21
4474308.04
  0
LINE
  8
PS03-LA
 10
443023.08
 20
4474308.04
 11
443023.01
 21
4474306.90
  0
LINE
  8
PS03-LA
 10
443023.01
 20
4474306.90
 11
443022.90
 21
4474305.11
  0
LINE
  8
PS03-LA
 10
442993.89
 20
4474318.18
 11
442994.11
 21
4474318.17
  0
LINE
  8
PS03-LA
 10
442994.11
 20
4474318.17
 11
443004.32
 21
4474317.71
  0
LINE
  8
PS03-LA
 10
443022.83
 20
4474304.07
 11
443022.70
 21
4474302.14
  0
LINE
  8
PS03-LA
 10
443003.67
 20
4474292.11
 11
442999.18
 21
4474292.43
  0
LINE
  8
PS03-LA
 10
442999.18
 20
4474292.43
 11
442997.77
 21
4474292.48
  0
LINE
  8
PS03-LA
 10
442997.77
 20
4474292.48
 11
442992.26
 21
4474292.89
  0
LINE
  8
PS03-LA
 10
442992.26
 20
4474292.89
 11
442992.28
 21
4474293.17
  0
LINE
  8
PS03-LA
 10
443023.38
 20
4474312.44
 11
443023.36
 21
4474312.27
  0
LINE
  8
PS03-LA
 10
443023.36
 20
4474312.27
 11
443023.24
 21
4474310.37
  0
LINE
  8
PS03-LA
 10
443022.90
 20
4474305.11
 11
443022.83
 21
4474304.07
  0
LINE
  8
PS03-LA
 10
443022.15
 20
4474293.53
 11
443022.09
 21
4474292.48
  0
LINE
  8
PS03-LA
 10
443022.09
 20
4474292.48
 11
443022.03
 21
4474291.35
  0
LINE
  8
PS03-LA
 10
443022.03
 20
4474291.35
 11
443021.96
 21
4474290.84
  0
LINE
  8
PS03-LA
 10
443021.96
 20
4474290.84
 11
443019.21
 21
4474291.08
  0
LINE
  8
PS03-LA
 10
443019.21
 20
4474291.08
 11
443018.20
 21
4474291.17
  0
LINE
  8
PS03-LA
 10
443018.20
 20
4474291.17
 11
443014.23
 21
4474291.50
  0
LINE
  8
PS03-LA
 10
443022.38
 20
4474297.19
 11
443022.24
 21
4474295.23
  0
LINE
  8
PS03-LA
 10
443022.24
 20
4474295.23
 11
443022.17
 21
4474294.06
  0
LINE
  8
PS03-LA
 10
443022.17
 20
4474294.06
 11
443022.15
 21
4474293.53
  0
LINE
  8
PS03-LA
 10
443014.40
 20
4474294.03
 11
443014.23
 21
4474291.50
  0
LINE
  8
PS03-LA
 10
443007.53
 20
4474294.47
 11
443014.40
 21
4474294.03
  0
LINE
  8
PS03-LA
 10
443007.77
 20
4474298.13
 11
443007.53
 21
4474294.47
  0
LINE
  8
PS03-LA
 10
443014.40
 20
4474294.03
 11
443022.15
 21
4474293.53
  0
LINE
  8
PS03-LA
 10
442993.89
 20
4474318.18
 11
442993.47
 21
4474311.66
  0
LINE
  8
PS03-LA
 10
442992.68
 20
4474299.27
 11
442992.61
 21
4474298.27
  0
LINE
  8
PS03-LA
 10
442993.47
 20
4474311.66
 11
442992.68
 21
4474299.34
  0
LINE
  8
PS03-LA
 10
443014.88
 20
4474317.15
 11
443014.71
 21
4474314.54
  0
LINE
  8
PS03-LA
 10
443014.71
 20
4474314.54
 11
443004.15
 21
4474315.09
  0
LINE
  8
PS03-LA
 10
443003.83
 20
4474294.71
 11
443003.67
 21
4474292.11
  0
LINE
  8
PS03-LA
 10
443004.15
 20
4474315.09
 11
443004.32
 21
4474317.71
  0
LINE
  8
PS03-LA
 10
443003.83
 20
4474294.71
 11
443007.53
 21
4474294.47
  0
LINE
  8
PS03-LA
 10
442992.68
 20
4474299.34
 11
442992.68
 21
4474299.27
  0
LINE
  8
PS03-LA
 10
442999.44
 20
4474307.21
 11
443000.96
 21
4474307.11
  0
LINE
  8
PS03-LA
 10
442999.44
 20
4474307.21
 11
442999.17
 21
4474303.15
  0
LINE
  8
PS03-LA
 10
442999.17
 20
4474303.15
 11
443000.94
 21
4474303.03
  0
LINE
  8
PS03-LA
 10
443002.67
 20
4474309.23
 11
443002.52
 21
4474307.01
  0
LINE
  8
PS03-LA
 10
443001.20
 20
4474307.10
 11
443002.52
 21
4474307.01
  0
LINE
  8
PS03-LA
 10
443002.26
 20
4474302.95
 11
443002.17
 21
4474301.45
  0
LINE
  8
PS03-LA
 10
443000.94
 20
4474303.03
 11
443002.26
 21
4474302.95
  0
LINE
  8
PS03-LA
 10
443002.17
 20
4474301.45
 11
443002.10
 21
4474300.43
  0
LINE
  8
PS03-LA
 10
443003.93
 20
4474307.34
 11
443009.71
 21
4474306.97
  0
LINE
  8
PS03-LA
 10
443014.01
 20
4474306.69
 11
443013.94
 21
4474305.69
  0
LINE
  8
PS03-LA
 10
443004.05
 20
4474309.15
 11
443003.93
 21
4474307.34
  0
LINE
  8
PS03-LA
 10
443004.05
 20
4474309.15
 11
443002.67
 21
4474309.23
  0
LINE
  8
PS03-LA
 10
443003.93
 20
4474307.34
 11
443003.85
 21
4474306.04
  0
LINE
  8
PS03-LA
 10
443003.61
 20
4474302.33
 11
443003.48
 21
4474300.35
  0
LINE
  8
PS03-LA
 10
443003.61
 20
4474302.36
 11
443003.61
 21
4474302.33
  0
LINE
  8
PS03-LA
 10
443003.62
 20
4474302.42
 11
443003.61
 21
4474302.36
  0
LINE
  8
PS03-LA
 10
442992.61
 20
4474298.27
 11
442992.28
 21
4474293.17
  0
LINE
  8
PS03-LA
 10
443000.96
 20
4474307.11
 11
443001.20
 21
4474307.10
  0
LINE
  8
PS03-LA
 10
443002.10
 20
4474300.43
 11
443003.48
 21
4474300.35
  0
LINE
  8
PS03-LA
 10
443013.94
 20
4474305.69
 11
443022.90
 21
4474305.11
  0
LINE
  8
PS03-LA
 10
443003.85
 20
4474306.04
 11
443013.92
 21
4474305.39
  0
LINE
  8
PS03-LA
 10
443009.71
 20
4474306.97
 11
443014.01
 21
4474306.69
  0
LINE
  8
PS03-LA
 10
443013.94
 20
4474305.69
 11
443013.92
 21
4474305.39
  0
LINE
  8
PS03-LA
 10
443013.77
 20
4474303.06
 11
443003.70
 21
4474303.72
  0
LINE
  8
PS03-LA
 10
443013.77
 20
4474303.06
 11
443013.75
 21
4474302.72
  0
LINE
  8
PS03-LA
 10
443008.03
 20
4474302.13
 11
443003.62
 21
4474302.42
  0
LINE
  8
PS03-LA
 10
443003.70
 20
4474303.72
 11
443003.62
 21
4474302.42
  0
LINE
  8
PS03-LA
 10
443014.88
 20
4474317.15
 11
443014.89
 21
4474317.15
  0
LINE
  8
PS03-LA
 10
443014.89
 20
4474317.15
 11
443020.90
 21
4474316.81
  0
LINE
  8
PS03-LA
 10
443020.90
 20
4474316.81
 11
443023.64
 21
4474316.66
  0
LINE
  8
PS03-LA
 10
443023.64
 20
4474316.66
 11
443023.57
 21
4474315.68
  0
LINE
  8
PS03-LA
 10
443023.57
 20
4474315.68
 11
443023.51
 21
4474314.57
  0
LINE
  8
PS03-LA
 10
443023.51
 20
4474314.57
 11
443023.44
 21
4474313.55
  0
LINE
  8
PS03-LA
 10
443023.44
 20
4474313.55
 11
443023.38
 21
4474312.44
  0
LINE
  8
PS03-LP
 10
443022.38
 20
4474297.27
 11
443022.38
 21
4474297.21
  0
LINE
  8
PS03-LP
 10
443022.38
 20
4474297.21
 11
443022.38
 21
4474297.19
  0
LINE
  8
PS03-LP
 10
443022.38
 20
4474297.31
 11
443022.38
 21
4474297.27
  0
LINE
  8
PS03-LP
 10
443022.70
 20
4474302.14
 11
443022.59
 21
4474300.60
  0
LINE
  8
PS03-LP
 10
443022.59
 20
4474300.60
 11
443022.52
 21
4474299.43
  0
LINE
  8
PS03-LP
 10
443022.52
 20
4474299.43
 11
443022.38
 21
4474297.31
  0
LINE
  8
PS03-LP
 10
443013.69
 20
4474301.77
 11
443008.03
 21
4474302.13
  0
LINE
  8
PS03-LP
 10
443013.75
 20
4474302.72
 11
443022.70
 21
4474302.14
  0
LINE
  8
PS03-LP
 10
443013.75
 20
4474302.72
 11
443013.69
 21
4474301.77
  0
LINE
  8
PS03-LP
 10
443008.03
 20
4474302.13
 11
443007.77
 21
4474298.13
  0
LINE
  8
PS03-LP
 10
443007.77
 20
4474298.13
 11
443022.38
 21
4474297.19
  0
TEXT
  8
PS04-AU
 10
443017.17
 20
4474313.40
 30
0.0
 40
0.7
  1
V.A
 72
1
 73
3
 11
443018.11
 21
4474314.10
 31
0.0
  0
TEXT
  8
PS04-AS
 10
443017.17
 20
4474314.10
 30
0.0
 40
0.7
  1
100
 72
1
 73
1
 11
443018.11
 21
4474314.10
 31
0.0
  0
TEXT
  8
PS04-AU
 10
443015.92
 20
4474307.40
 30
0.0
 40
0.7
  1
V.B
 72
1
 73
3
 11
443016.87
 21
4474308.10
 31
0.0
  0
TEXT
  8
PS04-AS
 10
443015.92
 20
4474308.10
 30
0.0
 40
0.7
  1
100
 72
1
 73
1
 11
443016.87
 21
4474308.10
 31
0.0
  0
TEXT
  8
PS04-AU
 10
443016.32
 20
4474300.76
 30
0.0
 40
0.7
  1
V.C
 72
1
 73
3
 11
443017.27
 21
4474301.46
 31
0.0
  0
TEXT
  8
PS04-AS
 10
443016.32
 20
4474301.46
 30
0.0
 40
0.7
  1
100
 72
1
 73
1
 11
443017.27
 21
4474301.46
 31
0.0
  0
TEXT
  8
PS04-AU
 10
443016.85
 20
4474293.80
 30
0.0
 40
0.7
  1
V.D
 72
1
 73
3
 11
443017.79
 21
4474294.50
 31
0.0
  0
TEXT
  8
PS04-AS
 10
443016.85
 20
4474294.50
 30
0.0
 40
0.7
  1
100
 72
1
 73
1
 11
443017.79
 21
4474294.50
 31
0.0
  0
TEXT
  8
PS04-AU
 10
442996.15
 20
4474295.33
 30
0.0
 40
0.7
  1
V.E
 72
1
 73
3
 11
442997.10
 21
4474296.03
 31
0.0
  0
TEXT
  8
PS04-AS
 10
442996.47
 20
4474296.03
 30
0.0
 40
0.7
  1
70
 72
1
 73
1
 11
442997.10
 21
4474296.03
 31
0.0
  0
TEXT
  8
PS04-AU
 10
442995.51
 20
4474304.42
 30
0.0
 40
0.7
  1
V.F
 72
1
 73
3
 11
442996.45
 21
4474305.12
 31
0.0
  0
TEXT
  8
PS04-AS
 10
442995.82
 20
4474305.12
 30
0.0
 40
0.7
  1
94
 72
1
 73
1
 11
442996.45
 21
4474305.12
 31
0.0
  0
TEXT
  8
PS04-AU
 10
442997.32
 20
4474314.09
 30
0.0
 40
0.7
  1
V.G
 72
1
 73
3
 11
442998.26
 21
4474314.79
 31
0.0
  0
TEXT
  8
PS04-AS
 10
442997.63
 20
4474314.79
 30
0.0
 40
0.7
  1
70
 72
1
 73
1
 11
442998.26
 21
4474314.79
 31
0.0
  0
TEXT
  8
PS04-AU
 10
442999.43
 20
4474304.42
 30
0.0
 40
0.7
  1
COM.VA
 72
1
 73
3
 11
443001.32
 21
4474305.12
 31
0.0
  0
TEXT
  8
PS04-AS
 10
443000.69
 20
4474305.12
 30
0.0
 40
0.7
  1
25
 72
1
 73
1
 11
443001.32
 21
4474305.12
 31
0.0
  0
TEXT
  8
PS04-AU
 10
443007.59
 20
4474303.94
 30
0.0
 40
0.7
  1
PTO
 72
1
 73
3
 11
443008.53
 21
4474304.64
 31
0.0
  0
TEXT
  8
PS04-AS
 10
443007.90
 20
4474304.64
 30
0.0
 40
0.7
  1
50
 72
1
 73
1
 11
443008.53
 21
4474304.64
 31
0.0
  0
LINE
  8
PS04-LA
 10
443004.32
 20
4474317.71
 11
443004.37
 21
4474317.71
  0
LINE
  8
PS04-LA
 10
443004.37
 20
4474317.71
 11
443014.88
 21
4474317.15
  0
LINE
  8
PS04-LA
 10
442992.28
 20
4474293.17
 11
442988.87
 21
4474293.36
  0
LINE
  8
PS04-LA
 10
442988.87
 20
4474293.36
 11
442990.09
 21
4474314.57
  0
LINE
  8
PS04-LA
 10
442990.09
 20
4474314.57
 11
442990.31
 21
4474318.46
  0
LINE
  8
PS04-LA
 10
442990.31
 20
4474318.46
 11
442993.89
 21
4474318.18
  0
LINE
  8
PS04-LA
 10
443014.23
 20
4474291.50
 11
443014.21
 21
4474291.51
  0
LINE
  8
PS04-LA
 10
443014.21
 20
4474291.51
 11
443003.83
 21
4474292.10
  0
LINE
  8
PS04-LA
 10
443003.83
 20
4474292.10
 11
443003.67
 21
4474292.11
  0
LINE
  8
PS04-LP
 10
443023.57
 20
4474315.68
 11
443023.51
 21
4474314.57
  0
LINE
  8
PS04-LP
 10
443023.51
 20
4474314.57
 11
443023.44
 21
4474313.55
  0
LINE
  8
PS04-LP
 10
443023.44
 20
4474313.55
 11
443023.36
 21
4474312.27
  0
LINE
  8
PS04-LP
 10
443023.36
 20
4474312.27
 11
443023.24
 21
4474310.37
  0
LINE
  8
PS04-LP
 10
443023.24
 20
4474310.37
 11
443023.08
 21
4474308.04
  0
LINE
  8
PS04-LP
 10
443023.08
 20
4474308.04
 11
443023.01
 21
4474306.90
  0
LINE
  8
PS04-LP
 10
443023.01
 20
4474306.90
 11
443022.83
 21
4474304.07
  0
LINE
  8
PS04-LP
 10
443014.88
 20
4474317.15
 11
443014.89
 21
4474317.15
  0
LINE
  8
PS04-LP
 10
443014.89
 20
4474317.15
 11
443020.90
 21
4474316.81
  0
LINE
  8
PS04-LP
 10
443020.90
 20
4474316.81
 11
443023.64
 21
4474316.66
  0
LINE
  8
PS04-LP
 10
443023.64
 20
4474316.66
 11
443023.57
 21
4474315.68
  0
LINE
  8
PS04-LP
 10
442993.89
 20
4474318.18
 11
442994.11
 21
4474318.17
  0
LINE
  8
PS04-LP
 10
442994.11
 20
4474318.17
 11
443004.32
 21
4474317.71
  0
LINE
  8
PS04-LP
 10
443022.83
 20
4474304.07
 11
443022.59
 21
4474300.60
  0
LINE
  8
PS04-LP
 10
443022.59
 20
4474300.60
 11
443022.52
 21
4474299.43
  0
LINE
  8
PS04-LP
 10
443022.52
 20
4474299.43
 11
443022.38
 21
4474297.31
  0
LINE
  8
PS04-LP
 10
443022.38
 20
4474297.27
 11
443022.38
 21
4474297.21
  0
LINE
  8
PS04-LP
 10
443003.67
 20
4474292.11
 11
442999.18
 21
4474292.43
  0
LINE
  8
PS04-LP
 10
442999.18
 20
4474292.43
 11
442997.77
 21
4474292.48
  0
LINE
  8
PS04-LP
 10
442997.77
 20
4474292.48
 11
442992.26
 21
4474292.89
  0
LINE
  8
PS04-LP
 10
442992.26
 20
4474292.89
 11
442992.28
 21
4474293.17
  0
LINE
  8
PS04-LP
 10
442993.89
 20
4474318.18
 11
442993.47
 21
4474311.66
  0
LINE
  8
PS04-LP
 10
442992.68
 20
4474299.27
 11
442992.28
 21
4474293.17
  0
LINE
  8
PS04-LP
 10
442993.47
 20
4474311.66
 11
442992.68
 21
4474299.34
  0
LINE
  8
PS04-LP
 10
443014.88
 20
4474317.15
 11
443014.71
 21
4474314.54
  0
LINE
  8
PS04-LP
 10
443014.71
 20
4474314.54
 11
443004.15
 21
4474315.09
  0
LINE
  8
PS04-LP
 10
443003.83
 20
4474294.71
 11
443003.67
 21
4474292.11
  0
LINE
  8
PS04-LP
 10
443014.40
 20
4474294.03
 11
443014.23
 21
4474291.50
  0
LINE
  8
PS04-LP
 10
443004.15
 20
4474315.09
 11
443004.32
 21
4474317.71
  0
LINE
  8
PS04-LP
 10
443003.83
 20
4474294.71
 11
443014.40
 21
4474294.03
  0
LINE
  8
PS04-LP
 10
442992.68
 20
4474299.34
 11
442992.68
 21
4474299.27
  0
LINE
  8
PS04-LP
 10
443022.38
 20
4474297.21
 11
443022.24
 21
4474295.23
  0
LINE
  8
PS04-LP
 10
443022.24
 20
4474295.23
 11
443022.17
 21
4474294.06
  0
LINE
  8
PS04-LP
 10
443022.17
 20
4474294.06
 11
443022.09
 21
4474292.48
  0
LINE
  8
PS04-LP
 10
443022.09
 20
4474292.48
 11
443022.03
 21
4474291.35
  0
LINE
  8
PS04-LP
 10
443022.03
 20
4474291.35
 11
443021.96
 21
4474290.84
  0
LINE
  8
PS04-LP
 10
443021.96
 20
4474290.84
 11
443019.21
 21
4474291.08
  0
LINE
  8
PS04-LP
 10
443019.21
 20
4474291.08
 11
443018.20
 21
4474291.17
  0
LINE
  8
PS04-LP
 10
443018.20
 20
4474291.17
 11
443014.23
 21
4474291.50
  0
LINE
  8
PS04-LP
 10
443022.38
 20
4474297.31
 11
443022.38
 21
4474297.27
  0
LINE
  8
PS04-LI
 10
443023.24
 20
4474310.37
 11
443004.21
 21
4474311.60
  0
LINE
  8
PS04-LI
 10
443003.05
 20
4474315.14
 11
443002.67
 21
4474309.23
  0
LINE
  8
PS04-LI
 10
442999.44
 20
4474307.21
 11
443001.20
 21
4474307.10
  0
LINE
  8
PS04-LI
 10
442999.44
 20
4474307.21
 11
442999.17
 21
4474303.15
  0
LINE
  8
PS04-LI
 10
442999.17
 20
4474303.15
 11
443000.94
 21
4474303.03
  0
LINE
  8
PS04-LI
 10
443000.84
 20
4474301.54
 11
443002.17
 21
4474301.45
  0
LINE
  8
PS04-LI
 10
443002.07
 20
4474299.95
 11
443003.45
 21
4474299.86
  0
LINE
  8
PS04-LI
 10
443002.67
 20
4474309.23
 11
443002.52
 21
4474307.01
  0
LINE
  8
PS04-LI
 10
443001.46
 20
4474311.14
 11
443001.20
 21
4474307.10
  0
LINE
  8
PS04-LI
 10
443001.46
 20
4474311.14
 11
442993.47
 21
4474311.66
  0
LINE
  8
PS04-LI
 10
443001.20
 20
4474307.10
 11
443002.52
 21
4474307.01
  0
LINE
  8
PS04-LI
 10
443002.26
 20
4474302.95
 11
443002.17
 21
4474301.45
  0
LINE
  8
PS04-LI
 10
443000.94
 20
4474303.03
 11
443002.26
 21
4474302.95
  0
LINE
  8
PS04-LI
 10
443002.17
 20
4474301.45
 11
443002.07
 21
4474299.95
  0
LINE
  8
PS04-LI
 10
443000.84
 20
4474301.54
 11
443000.67
 21
4474298.83
  0
LINE
  8
PS04-LI
 10
443002.07
 20
4474299.95
 11
443001.74
 21
4474294.84
  0
LINE
  8
PS04-LI
 10
443004.21
 20
4474311.60
 11
443004.05
 21
4474309.15
  0
LINE
  8
PS04-LI
 10
443003.93
 20
4474307.34
 11
443014.01
 21
4474306.69
  0
LINE
  8
PS04-LI
 10
443014.01
 20
4474306.69
 11
443013.88
 21
4474304.64
  0
LINE
  8
PS04-LI
 10
443013.88
 20
4474304.64
 11
443022.83
 21
4474304.07
  0
LINE
  8
PS04-LI
 10
443004.05
 20
4474309.15
 11
443003.93
 21
4474307.34
  0
LINE
  8
PS04-LI
 10
443004.05
 20
4474309.15
 11
443002.67
 21
4474309.23
  0
LINE
  8
PS04-LI
 10
443003.45
 20
4474299.86
 11
443003.37
 21
4474298.53
  0
LINE
  8
PS04-LI
 10
443003.93
 20
4474307.34
 11
443003.62
 21
4474302.42
  0
LINE
  8
PS04-LI
 10
443013.88
 20
4474304.64
 11
443013.69
 21
4474301.77
  0
LINE
  8
PS04-LI
 10
443003.61
 20
4474302.33
 11
443003.45
 21
4474299.86
  0
LINE
  8
PS04-LI
 10
443001.74
 20
4474294.84
 11
443003.83
 21
4474294.71
  0
LINE
  8
PS04-LI
 10
443004.15
 20
4474315.09
 11
443003.05
 21
4474315.14
  0
LINE
  8
PS04-LI
 10
443000.67
 20
4474298.83
 11
442992.68
 21
4474299.34
  0
LINE
  8
PS04-LI
 10
443003.61
 20
4474302.36
 11
443003.61
 21
4474302.33
  0
LINE
  8
PS04-LI
 10
443003.37
 20
4474298.53
 11
443022.38
 21
4474297.31
  0
LINE
  8
PS04-LI
 10
443003.62
 20
4474302.42
 11
443003.61
 21
4474302.36
  0
LINE
  8
PS04-LI
 10
443013.69
 20
4474301.77
 11
443003.62
 21
4474302.42
  0
TEXT
  8
PS05-AU
 10
443017.17
 20
4474313.40
 30
0.0
 40
0.7
  1
V.A
 72
1
 73
3
 11
443018.11
 21
4474314.10
 31
0.0
  0
TEXT
  8
PS05-AS
 10
443017.17
 20
4474314.10
 30
0.0
 40
0.7
  1
102
 72
1
 73
1
 11
443018.11
 21
4474314.10
 31
0.0
  0
TEXT
  8
PS05-AU
 10
443015.92
 20
4474307.40
 30
0.0
 40
0.7
  1
V.B
 72
1
 73
3
 11
443016.87
 21
4474308.10
 31
0.0
  0
TEXT
  8
PS05-AS
 10
443015.92
 20
4474308.10
 30
0.0
 40
0.7
  1
102
 72
1
 73
1
 11
443016.87
 21
4474308.10
 31
0.0
  0
TEXT
  8
PS05-AU
 10
443016.32
 20
4474300.76
 30
0.0
 40
0.7
  1
V.C
 72
1
 73
3
 11
443017.27
 21
4474301.46
 31
0.0
  0
TEXT
  8
PS05-AS
 10
443016.32
 20
4474301.46
 30
0.0
 40
0.7
  1
102
 72
1
 73
1
 11
443017.27
 21
4474301.46
 31
0.0
  0
TEXT
  8
PS05-AU
 10
443016.85
 20
4474293.80
 30
0.0
 40
0.7
  1
V.D
 72
1
 73
3
 11
443017.79
 21
4474294.50
 31
0.0
  0
TEXT
  8
PS05-AS
 10
443016.85
 20
4474294.50
 30
0.0
 40
0.7
  1
102
 72
1
 73
1
 11
443017.79
 21
4474294.50
 31
0.0
  0
TEXT
  8
PS05-AU
 10
442996.15
 20
4474295.33
 30
0.0
 40
0.7
  1
V.E
 72
1
 73
3
 11
442997.10
 21
4474296.03
 31
0.0
  0
TEXT
  8
PS05-AS
 10
442996.47
 20
4474296.03
 30
0.0
 40
0.7
  1
70
 72
1
 73
1
 11
442997.10
 21
4474296.03
 31
0.0
  0
TEXT
  8
PS05-AU
 10
442995.51
 20
4474304.42
 30
0.0
 40
0.7
  1
V.F
 72
1
 73
3
 11
442996.45
 21
4474305.12
 31
0.0
  0
TEXT
  8
PS05-AS
 10
442995.82
 20
4474305.12
 30
0.0
 40
0.7
  1
94
 72
1
 73
1
 11
442996.45
 21
4474305.12
 31
0.0
  0
TEXT
  8
PS05-AU
 10
442997.32
 20
4474314.09
 30
0.0
 40
0.7
  1
V.G
 72
1
 73
3
 11
442998.26
 21
4474314.79
 31
0.0
  0
TEXT
  8
PS05-AS
 10
442997.63
 20
4474314.79
 30
0.0
 40
0.7
  1
70
 72
1
 73
1
 11
442998.26
 21
4474314.79
 31
0.0
  0
TEXT
  8
PS05-AU
 10
442999.43
 20
4474304.42
 30
0.0
 40
0.7
  1
COM.VA
 72
1
 73
3
 11
443001.32
 21
4474305.12
 31
0.0
  0
TEXT
  8
PS05-AS
 10
443000.69
 20
4474305.12
 30
0.0
 40
0.7
  1
25
 72
1
 73
1
 11
443001.32
 21
4474305.12
 31
0.0
  0
TEXT
  8
PS05-AU
 10
443007.59
 20
4474303.94
 30
0.0
 40
0.7
  1
PTO
 72
1
 73
3
 11
443008.53
 21
4474304.64
 31
0.0
  0
TEXT
  8
PS05-AS
 10
443007.90
 20
4474304.64
 30
0.0
 40
0.7
  1
50
 72
1
 73
1
 11
443008.53
 21
4474304.64
 31
0.0
  0
LINE
  8
PS05-LA
 10
443004.32
 20
4474317.71
 11
443004.37
 21
4474317.71
  0
LINE
  8
PS05-LA
 10
443004.37
 20
4474317.71
 11
443014.88
 21
4474317.15
  0
LINE
  8
PS05-LA
 10
442992.28
 20
4474293.17
 11
442988.87
 21
4474293.36
  0
LINE
  8
PS05-LA
 10
442988.87
 20
4474293.36
 11
442990.09
 21
4474314.57
  0
LINE
  8
PS05-LA
 10
442990.09
 20
4474314.57
 11
442990.31
 21
4474318.46
  0
LINE
  8
PS05-LA
 10
442990.31
 20
4474318.46
 11
442993.89
 21
4474318.18
  0
LINE
  8
PS05-LA
 10
443014.23
 20
4474291.50
 11
443014.21
 21
4474291.51
  0
LINE
  8
PS05-LA
 10
443014.21
 20
4474291.51
 11
443003.83
 21
4474292.10
  0
LINE
  8
PS05-LA
 10
443003.83
 20
4474292.10
 11
443003.67
 21
4474292.11
  0
TEXT
  8
PS05-AU
 10
443021.64
 20
4474314.13
 30
0.0
 40
0.7
  1
PTO.YTD
 72
1
 73
3
 11
443023.85
 21
4474314.83
 31
0.0
  0
TEXT
  8
PS05-AS
 10
443023.53
 20
4474314.83
 30
0.0
 40
0.7
  1
2
 72
1
 73
1
 11
443023.85
 21
4474314.83
 31
0.0
  0
TEXT
  8
PS05-AU
 10
443021.69
 20
4474304.97
 30
0.0
 40
0.7
  1
TZA.B
 72
1
 73
3
 11
443023.27
 21
4474305.67
 31
0.0
  0
TEXT
  8
PS05-AS
 10
443022.95
 20
4474305.67
 30
0.0
 40
0.7
  1
1
 72
1
 73
1
 11
443023.27
 21
4474305.67
 31
0.0
  0
TEXT
  8
PS05-AU
 10
443021.55
 20
4474301.88
 30
0.0
 40
0.7
  1
TZA.C
 72
1
 73
3
 11
443023.13
 21
4474302.58
 31
0.0
  0
TEXT
  8
PS05-AS
 10
443022.81
 20
4474302.58
 30
0.0
 40
0.7
  1
1
 72
1
 73
1
 11
443023.13
 21
4474302.58
 31
0.0
  0
TEXT
  8
PS05-AU
 10
443020.39
 20
4474291.82
 30
0.0
 40
0.7
  1
PTO.YTD
 72
1
 73
3
 11
443022.60
 21
4474292.52
 31
0.0
  0
TEXT
  8
PS05-AS
 10
443022.28
 20
4474292.52
 30
0.0
 40
0.7
  1
2
 72
1
 73
1
 11
443022.60
 21
4474292.52
 31
0.0
  0
LINE
  8
PS05-LP
 10
443023.57
 20
4474315.68
 11
443023.57
 21
4474315.58
  0
LINE
  8
PS05-LP
 10
443014.88
 20
4474317.15
 11
443014.89
 21
4474317.15
  0
LINE
  8
PS05-LP
 10
443014.89
 20
4474317.15
 11
443020.90
 21
4474316.81
  0
LINE
  8
PS05-LP
 10
443020.90
 20
4474316.81
 11
443023.64
 21
4474316.66
  0
LINE
  8
PS05-LP
 10
443023.64
 20
4474316.66
 11
443023.59
 21
4474315.93
  0
LINE
  8
PS05-LP
 10
442993.89
 20
4474318.18
 11
442994.11
 21
4474318.17
  0
LINE
  8
PS05-LP
 10
442994.11
 20
4474318.17
 11
443004.32
 21
4474317.71
  0
LINE
  8
PS05-LP
 10
443003.67
 20
4474292.11
 11
442999.18
 21
4474292.43
  0
LINE
  8
PS05-LP
 10
442999.18
 20
4474292.43
 11
442997.77
 21
4474292.48
  0
LINE
  8
PS05-LP
 10
442997.77
 20
4474292.48
 11
442992.26
 21
4474292.89
  0
LINE
  8
PS05-LP
 10
442992.26
 20
4474292.89
 11
442992.28
 21
4474293.17
  0
LINE
  8
PS05-LP
 10
442993.89
 20
4474318.18
 11
442993.47
 21
4474311.66
  0
LINE
  8
PS05-LP
 10
442992.68
 20
4474299.27
 11
442992.28
 21
4474293.17
  0
LINE
  8
PS05-LP
 10
442993.47
 20
4474311.66
 11
442992.68
 21
4474299.34
  0
LINE
  8
PS05-LP
 10
443014.88
 20
4474317.15
 11
443014.71
 21
4474314.54
  0
LINE
  8
PS05-LP
 10
443014.71
 20
4474314.54
 11
443004.15
 21
4474315.09
  0
LINE
  8
PS05-LP
 10
443003.83
 20
4474294.71
 11
443003.67
 21
4474292.11
  0
LINE
  8
PS05-LP
 10
443014.40
 20
4474294.03
 11
443014.23
 21
4474291.50
  0
LINE
  8
PS05-LP
 10
443004.15
 20
4474315.09
 11
443004.32
 21
4474317.71
  0
LINE
  8
PS05-LP
 10
443003.83
 20
4474294.71
 11
443014.40
 21
4474294.03
  0
LINE
  8
PS05-LP
 10
442992.68
 20
4474299.34
 11
442992.68
 21
4474299.27
  0
LINE
  8
PS05-LP
 10
443023.03
 20
4474307.23
 11
443023.01
 21
4474306.90
  0
LINE
  8
PS05-LP
 10
443023.01
 20
4474306.90
 11
443022.83
 21
4474304.07
  0
LINE
  8
PS05-LP
 10
443023.59
 20
4474315.93
 11
443023.57
 21
4474315.68
  0
LINE
  8
PS05-LP
 10
443022.05
 20
4474291.57
 11
443022.03
 21
4474291.35
  0
LINE
  8
PS05-LP
 10
443022.03
 20
4474291.35
 11
443021.96
 21
4474290.84
  0
LINE
  8
PS05-LP
 10
443021.96
 20
4474290.84
 11
443019.21
 21
4474291.08
  0
LINE
  8
PS05-LP
 10
443019.21
 20
4474291.08
 11
443018.20
 21
4474291.17
  0
LINE
  8
PS05-LP
 10
443018.20
 20
4474291.17
 11
443014.23
 21
4474291.50
  0
LINE
  8
PS05-LP
 10
443022.16
 20
4474293.68
 11
443022.09
 21
4474292.48
  0
LINE
  8
PS05-LP
 10
443022.09
 20
4474292.48
 11
443022.05
 21
4474291.57
  0
LINE
  8
PS05-LP
 10
443023.57
 20
4474315.58
 11
443023.51
 21
4474314.57
  0
LINE
  8
PS05-LP
 10
443023.51
 20
4474314.57
 11
443023.46
 21
4474313.79
  0
LINE
  8
PS05-LP
 10
443024.22
 20
4474313.74
 11
443024.00
 21
4474310.32
  0
LINE
  8
PS05-LP
 10
443024.22
 20
4474313.74
 11
443023.46
 21
4474313.79
  0
LINE
  8
PS05-LP
 10
443022.16
 20
4474293.68
 11
443022.91
 21
4474293.63
  0
LINE
  8
PS05-LP
 10
443023.14
 20
4474297.26
 11
443022.91
 21
4474293.63
  0
LINE
  8
PS05-LP
 10
443024.00
 20
4474310.32
 11
443023.82
 21
4474307.56
  0
LINE
  8
PS05-LP
 10
443023.36
 20
4474300.48
 11
443023.14
 21
4474297.26
  0
LINE
  8
PS05-LP
 10
443022.59
 20
4474300.53
 11
443023.36
 21
4474300.48
  0
LINE
  8
PS05-LP
 10
443022.83
 20
4474304.07
 11
443022.62
 21
4474300.93
  0
LINE
  8
PS05-LP
 10
443022.62
 20
4474300.93
 11
443022.59
 21
4474300.60
  0
LINE
  8
PS05-LP
 10
443022.59
 20
4474300.60
 11
443022.59
 21
4474300.53
  0
LINE
  8
PS05-LP
 10
443023.82
 20
4474307.56
 11
443023.06
 21
4474307.61
  0
LINE
  8
PS05-LP
 10
443023.03
 20
4474307.23
 11
443023.06
 21
4474307.61
  0
LINE
  8
PS05-LI
 10
443023.38
 20
4474300.88
 11
443023.36
 21
4474300.48
  0
LINE
  8
PS05-LI
 10
443023.82
 20
4474307.56
 11
443023.79
 21
4474307.18
  0
LINE
  8
PS05-LI
 10
443023.24
 20
4474310.37
 11
443004.21
 21
4474311.60
  0
LINE
  8
PS05-LI
 10
443003.05
 20
4474315.14
 11
443002.67
 21
4474309.23
  0
LINE
  8
PS05-LI
 10
442999.44
 20
4474307.21
 11
443001.20
 21
4474307.10
  0
LINE
  8
PS05-LI
 10
442999.44
 20
4474307.21
 11
442999.17
 21
4474303.15
  0
LINE
  8
PS05-LI
 10
442999.17
 20
4474303.15
 11
443000.94
 21
4474303.03
  0
LINE
  8
PS05-LI
 10
443000.84
 20
4474301.54
 11
443002.17
 21
4474301.45
  0
LINE
  8
PS05-LI
 10
443002.07
 20
4474299.95
 11
443003.45
 21
4474299.86
  0
LINE
  8
PS05-LI
 10
443002.67
 20
4474309.23
 11
443002.52
 21
4474307.01
  0
LINE
  8
PS05-LI
 10
443001.46
 20
4474311.14
 11
443001.20
 21
4474307.10
  0
LINE
  8
PS05-LI
 10
443001.46
 20
4474311.14
 11
442993.47
 21
4474311.66
  0
LINE
  8
PS05-LI
 10
443001.20
 20
4474307.10
 11
443002.52
 21
4474307.01
  0
LINE
  8
PS05-LI
 10
443002.26
 20
4474302.95
 11
443002.17
 21
4474301.45
  0
LINE
  8
PS05-LI
 10
443000.94
 20
4474303.03
 11
443002.26
 21
4474302.95
  0
LINE
  8
PS05-LI
 10
443002.17
 20
4474301.45
 11
443002.07
 21
4474299.95
  0
LINE
  8
PS05-LI
 10
443000.84
 20
4474301.54
 11
443000.67
 21
4474298.83
  0
LINE
  8
PS05-LI
 10
443002.07
 20
4474299.95
 11
443001.74
 21
4474294.84
  0
LINE
  8
PS05-LI
 10
443004.21
 20
4474311.60
 11
443004.05
 21
4474309.15
  0
LINE
  8
PS05-LI
 10
443003.93
 20
4474307.34
 11
443014.01
 21
4474306.69
  0
LINE
  8
PS05-LI
 10
443014.01
 20
4474306.69
 11
443013.88
 21
4474304.64
  0
LINE
  8
PS05-LI
 10
443013.88
 20
4474304.64
 11
443022.83
 21
4474304.07
  0
LINE
  8
PS05-LI
 10
443004.05
 20
4474309.15
 11
443003.93
 21
4474307.34
  0
LINE
  8
PS05-LI
 10
443004.05
 20
4474309.15
 11
443002.67
 21
4474309.23
  0
LINE
  8
PS05-LI
 10
443003.45
 20
4474299.86
 11
443003.37
 21
4474298.53
  0
LINE
  8
PS05-LI
 10
443003.93
 20
4474307.34
 11
443003.62
 21
4474302.42
  0
LINE
  8
PS05-LI
 10
443013.88
 20
4474304.64
 11
443013.69
 21
4474301.77
  0
LINE
  8
PS05-LI
 10
443003.61
 20
4474302.33
 11
443003.45
 21
4474299.86
  0
LINE
  8
PS05-LI
 10
443001.74
 20
4474294.84
 11
443003.83
 21
4474294.71
  0
LINE
  8
PS05-LI
 10
443004.15
 20
4474315.09
 11
443003.05
 21
4474315.14
  0
LINE
  8
PS05-LI
 10
443000.67
 20
4474298.83
 11
442992.68
 21
4474299.34
  0
LINE
  8
PS05-LI
 10
443003.61
 20
4474302.36
 11
443003.61
 21
4474302.33
  0
LINE
  8
PS05-LI
 10
443003.37
 20
4474298.53
 11
443022.38
 21
4474297.31
  0
LINE
  8
PS05-LI
 10
443003.62
 20
4474302.42
 11
443003.61
 21
4474302.36
  0
LINE
  8
PS05-LI
 10
443013.69
 20
4474301.77
 11
443003.62
 21
4474302.42
  0
LINE
  8
PS05-LI
 10
443023.59
 20
4474315.93
 11
443023.99
 21
4474315.91
  0
LINE
  8
PS05-LI
 10
443024.22
 20
4474313.74
 11
443024.34
 21
4474315.53
  0
LINE
  8
PS05-LI
 10
443022.38
 20
4474297.31
 11
443023.14
 21
4474297.26
  0
LINE
  8
PS05-LI
 10
443022.83
 20
4474304.07
 11
443023.59
 21
4474304.02
  0
LINE
  8
PS05-LI
 10
443023.24
 20
4474310.37
 11
443024.00
 21
4474310.32
  0
LINE
  8
PS05-LI
 10
443023.59
 20
4474304.02
 11
443023.38
 21
4474300.88
  0
LINE
  8
PS05-LI
 10
443023.79
 20
4474307.18
 11
443023.59
 21
4474304.02
  0
LINE
  8
PS05-LI
 10
443022.91
 20
4474293.63
 11
443022.79
 21
4474291.90
  0
LINE
  8
PS05-LI
 10
443024.34
 20
4474315.53
 11
443024.34
 21
4474315.54
  0
LINE
  8
PS05-LI
 10
443022.41
 20
4474291.55
 11
443022.05
 21
4474291.57
  0
LINE
  8
PS05-LI
 10
443022.43
 20
4474291.55
 11
443022.51
 21
4474291.56
  0
LINE
  8
PS05-LI
 10
443022.51
 20
4474291.56
 11
443022.57
 21
4474291.58
  0
LINE
  8
PS05-LI
 10
443022.57
 20
4474291.58
 11
443022.64
 21
4474291.61
  0
LINE
  8
PS05-LI
 10
443022.64
 20
4474291.61
 11
443022.69
 21
4474291.65
  0
LINE
  8
PS05-LI
 10
443022.69
 20
4474291.65
 11
443022.73
 21
4474291.71
  0
LINE
  8
PS05-LI
 10
443022.73
 20
4474291.71
 11
443022.77
 21
4474291.77
  0
LINE
  8
PS05-LI
 10
443022.77
 20
4474291.77
 11
443022.79
 21
4474291.84
  0
LINE
  8
PS05-LI
 10
443022.79
 20
4474291.84
 11
443022.79
 21
4474291.88
  0
LINE
  8
PS05-LI
 10
443022.43
 20
4474291.55
 11
443022.41
 21
4474291.55
  0
LINE
  8
PS05-LI
 10
443022.79
 20
4474291.90
 11
443022.79
 21
4474291.88
  0
LINE
  8
PS05-LI
 10
443024.34
 20
4474315.54
 11
443024.33
 21
4474315.62
  0
LINE
  8
PS05-LI
 10
443024.33
 20
4474315.62
 11
443024.31
 21
4474315.69
  0
LINE
  8
PS05-LI
 10
443024.31
 20
4474315.69
 11
443024.28
 21
4474315.75
  0
LINE
  8
PS05-LI
 10
443024.28
 20
4474315.75
 11
443024.24
 21
4474315.80
  0
LINE
  8
PS05-LI
 10
443024.24
 20
4474315.80
 11
443024.18
 21
4474315.85
  0
LINE
  8
PS05-LI
 10
443024.18
 20
4474315.85
 11
443024.12
 21
4474315.88
  0
LINE
  8
PS05-LI
 10
443024.12
 20
4474315.88
 11
443024.05
 21
4474315.90
  0
LINE
  8
PS05-LI
 10
443024.05
 20
4474315.90
 11
443024.01
 21
4474315.90
  0
LINE
  8
PS05-LI
 10
443023.99
 20
4474315.91
 11
443024.01
 21
4474315.90
  0
TEXT
  8
PS06-AU
 10
443017.17
 20
4474313.40
 30
0.0
 40
0.7
  1
V.A
 72
1
 73
3
 11
443018.11
 21
4474314.10
 31
0.0
  0
TEXT
  8
PS06-AS
 10
443017.17
 20
4474314.10
 30
0.0
 40
0.7
  1
102
 72
1
 73
1
 11
443018.11
 21
4474314.10
 31
0.0
  0
TEXT
  8
PS06-AU
 10
443015.92
 20
4474307.40
 30
0.0
 40
0.7
  1
V.B
 72
1
 73
3
 11
443016.87
 21
4474308.10
 31
0.0
  0
TEXT
  8
PS06-AS
 10
443015.92
 20
4474308.10
 30
0.0
 40
0.7
  1
102
 72
1
 73
1
 11
443016.87
 21
4474308.10
 31
0.0
  0
TEXT
  8
PS06-AU
 10
443016.32
 20
4474300.76
 30
0.0
 40
0.7
  1
V.C
 72
1
 73
3
 11
443017.27
 21
4474301.46
 31
0.0
  0
TEXT
  8
PS06-AS
 10
443016.32
 20
4474301.46
 30
0.0
 40
0.7
  1
102
 72
1
 73
1
 11
443017.27
 21
4474301.46
 31
0.0
  0
TEXT
  8
PS06-AU
 10
443016.85
 20
4474293.80
 30
0.0
 40
0.7
  1
V.D
 72
1
 73
3
 11
443017.79
 21
4474294.50
 31
0.0
  0
TEXT
  8
PS06-AS
 10
443016.85
 20
4474294.50
 30
0.0
 40
0.7
  1
102
 72
1
 73
1
 11
443017.79
 21
4474294.50
 31
0.0
  0
TEXT
  8
PS06-AU
 10
442996.15
 20
4474295.33
 30
0.0
 40
0.7
  1
V.E
 72
1
 73
3
 11
442997.10
 21
4474296.03
 31
0.0
  0
TEXT
  8
PS06-AS
 10
442996.47
 20
4474296.03
 30
0.0
 40
0.7
  1
70
 72
1
 73
1
 11
442997.10
 21
4474296.03
 31
0.0
  0
TEXT
  8
PS06-AU
 10
442995.51
 20
4474304.42
 30
0.0
 40
0.7
  1
V.F
 72
1
 73
3
 11
442996.45
 21
4474305.12
 31
0.0
  0
TEXT
  8
PS06-AS
 10
442995.82
 20
4474305.12
 30
0.0
 40
0.7
  1
94
 72
1
 73
1
 11
442996.45
 21
4474305.12
 31
0.0
  0
TEXT
  8
PS06-AU
 10
442997.32
 20
4474314.09
 30
0.0
 40
0.7
  1
V.G
 72
1
 73
3
 11
442998.26
 21
4474314.79
 31
0.0
  0
TEXT
  8
PS06-AS
 10
442997.63
 20
4474314.79
 30
0.0
 40
0.7
  1
70
 72
1
 73
1
 11
442998.26
 21
4474314.79
 31
0.0
  0
TEXT
  8
PS06-AU
 10
442999.43
 20
4474304.42
 30
0.0
 40
0.7
  1
COM.VA
 72
1
 73
3
 11
443001.32
 21
4474305.12
 31
0.0
  0
TEXT
  8
PS06-AS
 10
443000.69
 20
4474305.12
 30
0.0
 40
0.7
  1
25
 72
1
 73
1
 11
443001.32
 21
4474305.12
 31
0.0
  0
TEXT
  8
PS06-AU
 10
443007.59
 20
4474303.94
 30
0.0
 40
0.7
  1
PTO
 72
1
 73
3
 11
443008.53
 21
4474304.64
 31
0.0
  0
TEXT
  8
PS06-AS
 10
443007.90
 20
4474304.64
 30
0.0
 40
0.7
  1
50
 72
1
 73
1
 11
443008.53
 21
4474304.64
 31
0.0
  0
LINE
  8
PS06-LA
 10
443004.32
 20
4474317.71
 11
443004.37
 21
4474317.71
  0
LINE
  8
PS06-LA
 10
443004.37
 20
4474317.71
 11
443014.88
 21
4474317.15
  0
LINE
  8
PS06-LA
 10
442992.28
 20
4474293.17
 11
442988.87
 21
4474293.36
  0
LINE
  8
PS06-LA
 10
442988.87
 20
4474293.36
 11
442990.09
 21
4474314.57
  0
LINE
  8
PS06-LA
 10
442990.09
 20
4474314.57
 11
442990.31
 21
4474318.46
  0
LINE
  8
PS06-LA
 10
442990.31
 20
4474318.46
 11
442993.89
 21
4474318.18
  0
LINE
  8
PS06-LA
 10
443014.23
 20
4474291.50
 11
443014.21
 21
4474291.51
  0
LINE
  8
PS06-LA
 10
443014.21
 20
4474291.51
 11
443003.83
 21
4474292.10
  0
LINE
  8
PS06-LA
 10
443003.83
 20
4474292.10
 11
443003.67
 21
4474292.11
  0
TEXT
  8
PS06-AU
 10
443021.69
 20
4474304.97
 30
0.0
 40
0.7
  1
TZA.B
 72
1
 73
3
 11
443023.27
 21
4474305.67
 31
0.0
  0
TEXT
  8
PS06-AS
 10
443022.95
 20
4474305.67
 30
0.0
 40
0.7
  1
1
 72
1
 73
1
 11
443023.27
 21
4474305.67
 31
0.0
  0
TEXT
  8
PS06-AU
 10
443021.55
 20
4474301.88
 30
0.0
 40
0.7
  1
TZA.C
 72
1
 73
3
 11
443023.13
 21
4474302.58
 31
0.0
  0
TEXT
  8
PS06-AS
 10
443022.81
 20
4474302.58
 30
0.0
 40
0.7
  1
1
 72
1
 73
1
 11
443023.13
 21
4474302.58
 31
0.0
  0
LINE
  8
PS06-LP
 10
443023.57
 20
4474315.68
 11
443023.57
 21
4474315.58
  0
LINE
  8
PS06-LP
 10
443014.88
 20
4474317.15
 11
443014.89
 21
4474317.15
  0
LINE
  8
PS06-LP
 10
443014.89
 20
4474317.15
 11
443020.90
 21
4474316.81
  0
LINE
  8
PS06-LP
 10
443020.90
 20
4474316.81
 11
443023.64
 21
4474316.66
  0
LINE
  8
PS06-LP
 10
443023.64
 20
4474316.66
 11
443023.59
 21
4474315.93
  0
LINE
  8
PS06-LP
 10
442993.89
 20
4474318.18
 11
442994.11
 21
4474318.17
  0
LINE
  8
PS06-LP
 10
442994.11
 20
4474318.17
 11
443004.32
 21
4474317.71
  0
LINE
  8
PS06-LP
 10
443003.67
 20
4474292.11
 11
442999.18
 21
4474292.43
  0
LINE
  8
PS06-LP
 10
442999.18
 20
4474292.43
 11
442997.77
 21
4474292.48
  0
LINE
  8
PS06-LP
 10
442997.77
 20
4474292.48
 11
442992.26
 21
4474292.89
  0
LINE
  8
PS06-LP
 10
442992.26
 20
4474292.89
 11
442992.28
 21
4474293.17
  0
LINE
  8
PS06-LP
 10
442993.89
 20
4474318.18
 11
442993.47
 21
4474311.66
  0
LINE
  8
PS06-LP
 10
442992.68
 20
4474299.27
 11
442992.28
 21
4474293.17
  0
LINE
  8
PS06-LP
 10
442993.47
 20
4474311.66
 11
442992.68
 21
4474299.34
  0
LINE
  8
PS06-LP
 10
443014.88
 20
4474317.15
 11
443014.71
 21
4474314.54
  0
LINE
  8
PS06-LP
 10
443014.71
 20
4474314.54
 11
443004.15
 21
4474315.09
  0
LINE
  8
PS06-LP
 10
443003.83
 20
4474294.71
 11
443003.67
 21
4474292.11
  0
LINE
  8
PS06-LP
 10
443014.40
 20
4474294.03
 11
443014.23
 21
4474291.50
  0
LINE
  8
PS06-LP
 10
443004.15
 20
4474315.09
 11
443004.32
 21
4474317.71
  0
LINE
  8
PS06-LP
 10
443003.83
 20
4474294.71
 11
443014.40
 21
4474294.03
  0
LINE
  8
PS06-LP
 10
442992.68
 20
4474299.34
 11
442992.68
 21
4474299.27
  0
LINE
  8
PS06-LP
 10
443023.03
 20
4474307.23
 11
443023.01
 21
4474306.90
  0
LINE
  8
PS06-LP
 10
443023.01
 20
4474306.90
 11
443022.83
 21
4474304.07
  0
LINE
  8
PS06-LP
 10
443023.59
 20
4474315.93
 11
443023.57
 21
4474315.68
  0
LINE
  8
PS06-LP
 10
443022.05
 20
4474291.57
 11
443022.03
 21
4474291.35
  0
LINE
  8
PS06-LP
 10
443022.03
 20
4474291.35
 11
443021.96
 21
4474290.84
  0
LINE
  8
PS06-LP
 10
443021.96
 20
4474290.84
 11
443019.21
 21
4474291.08
  0
LINE
  8
PS06-LP
 10
443019.21
 20
4474291.08
 11
443018.20
 21
4474291.17
  0
LINE
  8
PS06-LP
 10
443018.20
 20
4474291.17
 11
443014.23
 21
4474291.50
  0
LINE
  8
PS06-LP
 10
443022.16
 20
4474293.68
 11
443022.09
 21
4474292.48
  0
LINE
  8
PS06-LP
 10
443022.09
 20
4474292.48
 11
443022.05
 21
4474291.57
  0
LINE
  8
PS06-LP
 10
443023.57
 20
4474315.58
 11
443023.51
 21
4474314.57
  0
LINE
  8
PS06-LP
 10
443023.51
 20
4474314.57
 11
443023.46
 21
4474313.79
  0
LINE
  8
PS06-LP
 10
443024.22
 20
4474313.74
 11
443024.00
 21
4474310.32
  0
LINE
  8
PS06-LP
 10
443024.22
 20
4474313.74
 11
443023.46
 21
4474313.79
  0
LINE
  8
PS06-LP
 10
443022.16
 20
4474293.68
 11
443022.91
 21
4474293.63
  0
LINE
  8
PS06-LP
 10
443023.14
 20
4474297.26
 11
443022.91
 21
4474293.63
  0
LINE
  8
PS06-LP
 10
443024.00
 20
4474310.32
 11
443023.82
 21
4474307.56
  0
LINE
  8
PS06-LP
 10
443023.36
 20
4474300.48
 11
443023.14
 21
4474297.26
  0
LINE
  8
PS06-LP
 10
443022.59
 20
4474300.53
 11
443023.36
 21
4474300.48
  0
LINE
  8
PS06-LP
 10
443022.83
 20
4474304.07
 11
443022.62
 21
4474300.93
  0
LINE
  8
PS06-LP
 10
443022.62
 20
4474300.93
 11
443022.59
 21
4474300.60
  0
LINE
  8
PS06-LP
 10
443022.59
 20
4474300.60
 11
443022.59
 21
4474300.53
  0
LINE
  8
PS06-LP
 10
443023.82
 20
4474307.56
 11
443023.06
 21
4474307.61
  0
LINE
  8
PS06-LP
 10
443023.03
 20
4474307.23
 11
443023.06
 21
4474307.61
  0
LINE
  8
PS06-LI
 10
443023.38
 20
4474300.88
 11
443023.36
 21
4474300.48
  0
LINE
  8
PS06-LI
 10
443023.82
 20
4474307.56
 11
443023.79
 21
4474307.18
  0
LINE
  8
PS06-LI
 10
443023.24
 20
4474310.37
 11
443004.21
 21
4474311.60
  0
LINE
  8
PS06-LI
 10
443003.05
 20
4474315.14
 11
443002.67
 21
4474309.23
  0
LINE
  8
PS06-LI
 10
442999.44
 20
4474307.21
 11
443001.20
 21
4474307.10
  0
LINE
  8
PS06-LI
 10
442999.44
 20
4474307.21
 11
442999.17
 21
4474303.15
  0
LINE
  8
PS06-LI
 10
442999.17
 20
4474303.15
 11
443000.94
 21
4474303.03
  0
LINE
  8
PS06-LI
 10
443000.84
 20
4474301.54
 11
443002.17
 21
4474301.45
  0
LINE
  8
PS06-LI
 10
443002.07
 20
4474299.95
 11
443003.45
 21
4474299.86
  0
LINE
  8
PS06-LI
 10
443002.67
 20
4474309.23
 11
443002.52
 21
4474307.01
  0
LINE
  8
PS06-LI
 10
443001.46
 20
4474311.14
 11
443001.20
 21
4474307.10
  0
LINE
  8
PS06-LI
 10
443001.46
 20
4474311.14
 11
442993.47
 21
4474311.66
  0
LINE
  8
PS06-LI
 10
443001.20
 20
4474307.10
 11
443002.52
 21
4474307.01
  0
LINE
  8
PS06-LI
 10
443002.26
 20
4474302.95
 11
443002.17
 21
4474301.45
  0
LINE
  8
PS06-LI
 10
443000.94
 20
4474303.03
 11
443002.26
 21
4474302.95
  0
LINE
  8
PS06-LI
 10
443002.17
 20
4474301.45
 11
443002.07
 21
4474299.95
  0
LINE
  8
PS06-LI
 10
443000.84
 20
4474301.54
 11
443000.67
 21
4474298.83
  0
LINE
  8
PS06-LI
 10
443002.07
 20
4474299.95
 11
443001.74
 21
4474294.84
  0
LINE
  8
PS06-LI
 10
443004.21
 20
4474311.60
 11
443004.05
 21
4474309.15
  0
LINE
  8
PS06-LI
 10
443003.93
 20
4474307.34
 11
443014.01
 21
4474306.69
  0
LINE
  8
PS06-LI
 10
443014.01
 20
4474306.69
 11
443013.88
 21
4474304.64
  0
LINE
  8
PS06-LI
 10
443013.88
 20
4474304.64
 11
443022.83
 21
4474304.07
  0
LINE
  8
PS06-LI
 10
443004.05
 20
4474309.15
 11
443003.93
 21
4474307.34
  0
LINE
  8
PS06-LI
 10
443004.05
 20
4474309.15
 11
443002.67
 21
4474309.23
  0
LINE
  8
PS06-LI
 10
443003.45
 20
4474299.86
 11
443003.37
 21
4474298.53
  0
LINE
  8
PS06-LI
 10
443003.93
 20
4474307.34
 11
443003.62
 21
4474302.42
  0
LINE
  8
PS06-LI
 10
443013.88
 20
4474304.64
 11
443013.69
 21
4474301.77
  0
LINE
  8
PS06-LI
 10
443003.61
 20
4474302.33
 11
443003.45
 21
4474299.86
  0
LINE
  8
PS06-LI
 10
443001.74
 20
4474294.84
 11
443003.83
 21
4474294.71
  0
LINE
  8
PS06-LI
 10
443004.15
 20
4474315.09
 11
443003.05
 21
4474315.14
  0
LINE
  8
PS06-LI
 10
443000.67
 20
4474298.83
 11
442992.68
 21
4474299.34
  0
LINE
  8
PS06-LI
 10
443003.61
 20
4474302.36
 11
443003.61
 21
4474302.33
  0
LINE
  8
PS06-LI
 10
443003.37
 20
4474298.53
 11
443022.38
 21
4474297.31
  0
LINE
  8
PS06-LI
 10
443003.62
 20
4474302.42
 11
443003.61
 21
4474302.36
  0
LINE
  8
PS06-LI
 10
443013.69
 20
4474301.77
 11
443003.62
 21
4474302.42
  0
LINE
  8
PS06-LI
 10
443022.38
 20
4474297.31
 11
443023.14
 21
4474297.26
  0
LINE
  8
PS06-LI
 10
443022.83
 20
4474304.07
 11
443023.59
 21
4474304.02
  0
LINE
  8
PS06-LI
 10
443023.24
 20
4474310.37
 11
443024.00
 21
4474310.32
  0
LINE
  8
PS06-LI
 10
443023.59
 20
4474304.02
 11
443023.38
 21
4474300.88
  0
LINE
  8
PS06-LI
 10
443023.79
 20
4474307.18
 11
443023.59
 21
4474304.02
  0
TEXT
  8
PS07-AU
 10
443017.17
 20
4474313.40
 30
0.0
 40
0.7
  1
V.A
 72
1
 73
3
 11
443018.11
 21
4474314.10
 31
0.0
  0
TEXT
  8
PS07-AS
 10
443017.17
 20
4474314.10
 30
0.0
 40
0.7
  1
102
 72
1
 73
1
 11
443018.11
 21
4474314.10
 31
0.0
  0
TEXT
  8
PS07-AU
 10
443015.92
 20
4474307.40
 30
0.0
 40
0.7
  1
V.B
 72
1
 73
3
 11
443016.87
 21
4474308.10
 31
0.0
  0
TEXT
  8
PS07-AS
 10
443015.92
 20
4474308.10
 30
0.0
 40
0.7
  1
102
 72
1
 73
1
 11
443016.87
 21
4474308.10
 31
0.0
  0
TEXT
  8
PS07-AU
 10
443016.32
 20
4474300.76
 30
0.0
 40
0.7
  1
V.C
 72
1
 73
3
 11
443017.27
 21
4474301.46
 31
0.0
  0
TEXT
  8
PS07-AS
 10
443016.32
 20
4474301.46
 30
0.0
 40
0.7
  1
102
 72
1
 73
1
 11
443017.27
 21
4474301.46
 31
0.0
  0
TEXT
  8
PS07-AU
 10
443016.85
 20
4474293.80
 30
0.0
 40
0.7
  1
V.D
 72
1
 73
3
 11
443017.79
 21
4474294.50
 31
0.0
  0
TEXT
  8
PS07-AS
 10
443016.85
 20
4474294.50
 30
0.0
 40
0.7
  1
102
 72
1
 73
1
 11
443017.79
 21
4474294.50
 31
0.0
  0
TEXT
  8
PS07-AU
 10
442996.15
 20
4474295.33
 30
0.0
 40
0.7
  1
V.E
 72
1
 73
3
 11
442997.10
 21
4474296.03
 31
0.0
  0
TEXT
  8
PS07-AS
 10
442996.47
 20
4474296.03
 30
0.0
 40
0.7
  1
70
 72
1
 73
1
 11
442997.10
 21
4474296.03
 31
0.0
  0
TEXT
  8
PS07-AU
 10
442995.51
 20
4474304.42
 30
0.0
 40
0.7
  1
V.F
 72
1
 73
3
 11
442996.45
 21
4474305.12
 31
0.0
  0
TEXT
  8
PS07-AS
 10
442995.82
 20
4474305.12
 30
0.0
 40
0.7
  1
94
 72
1
 73
1
 11
442996.45
 21
4474305.12
 31
0.0
  0
TEXT
  8
PS07-AU
 10
442997.32
 20
4474314.09
 30
0.0
 40
0.7
  1
V.G
 72
1
 73
3
 11
442998.26
 21
4474314.79
 31
0.0
  0
TEXT
  8
PS07-AS
 10
442997.63
 20
4474314.79
 30
0.0
 40
0.7
  1
70
 72
1
 73
1
 11
442998.26
 21
4474314.79
 31
0.0
  0
TEXT
  8
PS07-AU
 10
442999.43
 20
4474304.42
 30
0.0
 40
0.7
  1
COM.VA
 72
1
 73
3
 11
443001.32
 21
4474305.12
 31
0.0
  0
TEXT
  8
PS07-AS
 10
443000.69
 20
4474305.12
 30
0.0
 40
0.7
  1
25
 72
1
 73
1
 11
443001.32
 21
4474305.12
 31
0.0
  0
TEXT
  8
PS07-AU
 10
443007.59
 20
4474303.94
 30
0.0
 40
0.7
  1
PTO
 72
1
 73
3
 11
443008.53
 21
4474304.64
 31
0.0
  0
TEXT
  8
PS07-AS
 10
443007.90
 20
4474304.64
 30
0.0
 40
0.7
  1
50
 72
1
 73
1
 11
443008.53
 21
4474304.64
 31
0.0
  0
LINE
  8
PS07-LA
 10
443004.32
 20
4474317.71
 11
443004.37
 21
4474317.71
  0
LINE
  8
PS07-LA
 10
443004.37
 20
4474317.71
 11
443014.88
 21
4474317.15
  0
LINE
  8
PS07-LA
 10
442992.28
 20
4474293.17
 11
442988.87
 21
4474293.36
  0
LINE
  8
PS07-LA
 10
442988.87
 20
4474293.36
 11
442990.09
 21
4474314.57
  0
LINE
  8
PS07-LA
 10
442990.09
 20
4474314.57
 11
442990.31
 21
4474318.46
  0
LINE
  8
PS07-LA
 10
442990.31
 20
4474318.46
 11
442993.89
 21
4474318.18
  0
LINE
  8
PS07-LA
 10
443014.23
 20
4474291.50
 11
443014.21
 21
4474291.51
  0
LINE
  8
PS07-LA
 10
443014.21
 20
4474291.51
 11
443003.83
 21
4474292.10
  0
LINE
  8
PS07-LA
 10
443003.83
 20
4474292.10
 11
443003.67
 21
4474292.11
  0
TEXT
  8
PS07-AU
 10
443021.10
 20
4474305.07
 30
0.0
 40
0.7
  1
PTO.YTD
 72
1
 73
3
 11
443023.30
 21
4474305.77
 31
0.0
  0
TEXT
  8
PS07-AS
 10
443022.99
 20
4474305.77
 30
0.0
 40
0.7
  1
3
 72
1
 73
1
 11
443023.30
 21
4474305.77
 31
0.0
  0
TEXT
  8
PS07-AU
 10
443020.83
 20
4474301.63
 30
0.0
 40
0.7
  1
PTO.YTD
 72
1
 73
3
 11
443023.04
 21
4474302.33
 31
0.0
  0
TEXT
  8
PS07-AS
 10
443022.72
 20
4474302.33
 30
0.0
 40
0.7
  1
3
 72
1
 73
1
 11
443023.04
 21
4474302.33
 31
0.0
  0
LINE
  8
PS07-LP
 10
443023.57
 20
4474315.68
 11
443023.57
 21
4474315.58
  0
LINE
  8
PS07-LP
 10
443014.88
 20
4474317.15
 11
443014.89
 21
4474317.15
  0
LINE
  8
PS07-LP
 10
443014.89
 20
4474317.15
 11
443020.90
 21
4474316.81
  0
LINE
  8
PS07-LP
 10
443020.90
 20
4474316.81
 11
443023.64
 21
4474316.66
  0
LINE
  8
PS07-LP
 10
443023.64
 20
4474316.66
 11
443023.59
 21
4474315.93
  0
LINE
  8
PS07-LP
 10
442993.89
 20
4474318.18
 11
442994.11
 21
4474318.17
  0
LINE
  8
PS07-LP
 10
442994.11
 20
4474318.17
 11
443004.32
 21
4474317.71
  0
LINE
  8
PS07-LP
 10
443003.67
 20
4474292.11
 11
442999.18
 21
4474292.43
  0
LINE
  8
PS07-LP
 10
442999.18
 20
4474292.43
 11
442997.77
 21
4474292.48
  0
LINE
  8
PS07-LP
 10
442997.77
 20
4474292.48
 11
442992.26
 21
4474292.89
  0
LINE
  8
PS07-LP
 10
442992.26
 20
4474292.89
 11
442992.28
 21
4474293.17
  0
LINE
  8
PS07-LP
 10
442993.89
 20
4474318.18
 11
442993.47
 21
4474311.66
  0
LINE
  8
PS07-LP
 10
442992.68
 20
4474299.27
 11
442992.28
 21
4474293.17
  0
LINE
  8
PS07-LP
 10
442993.47
 20
4474311.66
 11
442992.68
 21
4474299.34
  0
LINE
  8
PS07-LP
 10
443014.88
 20
4474317.15
 11
443014.71
 21
4474314.54
  0
LINE
  8
PS07-LP
 10
443014.71
 20
4474314.54
 11
443004.15
 21
4474315.09
  0
LINE
  8
PS07-LP
 10
443003.83
 20
4474294.71
 11
443003.67
 21
4474292.11
  0
LINE
  8
PS07-LP
 10
443014.40
 20
4474294.03
 11
443014.23
 21
4474291.50
  0
LINE
  8
PS07-LP
 10
443004.15
 20
4474315.09
 11
443004.32
 21
4474317.71
  0
LINE
  8
PS07-LP
 10
443003.83
 20
4474294.71
 11
443014.40
 21
4474294.03
  0
LINE
  8
PS07-LP
 10
442992.68
 20
4474299.34
 11
442992.68
 21
4474299.27
  0
LINE
  8
PS07-LP
 10
443023.03
 20
4474307.23
 11
443023.01
 21
4474306.90
  0
LINE
  8
PS07-LP
 10
443023.01
 20
4474306.90
 11
443022.83
 21
4474304.07
  0
LINE
  8
PS07-LP
 10
443023.59
 20
4474315.93
 11
443023.57
 21
4474315.68
  0
LINE
  8
PS07-LP
 10
443022.05
 20
4474291.57
 11
443022.03
 21
4474291.35
  0
LINE
  8
PS07-LP
 10
443022.03
 20
4474291.35
 11
443021.96
 21
4474290.84
  0
LINE
  8
PS07-LP
 10
443021.96
 20
4474290.84
 11
443019.21
 21
4474291.08
  0
LINE
  8
PS07-LP
 10
443019.21
 20
4474291.08
 11
443018.20
 21
4474291.17
  0
LINE
  8
PS07-LP
 10
443018.20
 20
4474291.17
 11
443014.23
 21
4474291.50
  0
LINE
  8
PS07-LP
 10
443022.16
 20
4474293.68
 11
443022.09
 21
4474292.48
  0
LINE
  8
PS07-LP
 10
443022.09
 20
4474292.48
 11
443022.05
 21
4474291.57
  0
LINE
  8
PS07-LP
 10
443023.57
 20
4474315.58
 11
443023.51
 21
4474314.57
  0
LINE
  8
PS07-LP
 10
443023.51
 20
4474314.57
 11
443023.46
 21
4474313.79
  0
LINE
  8
PS07-LP
 10
443024.22
 20
4474313.74
 11
443024.00
 21
4474310.32
  0
LINE
  8
PS07-LP
 10
443024.22
 20
4474313.74
 11
443023.46
 21
4474313.79
  0
LINE
  8
PS07-LP
 10
443022.16
 20
4474293.68
 11
443022.91
 21
4474293.63
  0
LINE
  8
PS07-LP
 10
443023.14
 20
4474297.26
 11
443022.91
 21
4474293.63
  0
LINE
  8
PS07-LP
 10
443024.00
 20
4474310.32
 11
443023.82
 21
4474307.56
  0
LINE
  8
PS07-LP
 10
443023.36
 20
4474300.48
 11
443023.14
 21
4474297.26
  0
LINE
  8
PS07-LP
 10
443022.59
 20
4474300.53
 11
443023.36
 21
4474300.48
  0
LINE
  8
PS07-LP
 10
443022.83
 20
4474304.07
 11
443022.62
 21
4474300.93
  0
LINE
  8
PS07-LP
 10
443022.62
 20
4474300.93
 11
443022.59
 21
4474300.60
  0
LINE
  8
PS07-LP
 10
443022.59
 20
4474300.60
 11
443022.59
 21
4474300.53
  0
LINE
  8
PS07-LP
 10
443023.82
 20
4474307.56
 11
443023.06
 21
4474307.61
  0
LINE
  8
PS07-LP
 10
443023.03
 20
4474307.23
 11
443023.06
 21
4474307.61
  0
LINE
  8
PS07-LI
 10
443023.38
 20
4474300.88
 11
443023.36
 21
4474300.48
  0
LINE
  8
PS07-LI
 10
443023.82
 20
4474307.56
 11
443023.79
 21
4474307.18
  0
LINE
  8
PS07-LI
 10
443023.24
 20
4474310.37
 11
443004.21
 21
4474311.60
  0
LINE
  8
PS07-LI
 10
443003.05
 20
4474315.14
 11
443002.67
 21
4474309.23
  0
LINE
  8
PS07-LI
 10
442999.44
 20
4474307.21
 11
443001.20
 21
4474307.10
  0
LINE
  8
PS07-LI
 10
442999.44
 20
4474307.21
 11
442999.17
 21
4474303.15
  0
LINE
  8
PS07-LI
 10
442999.17
 20
4474303.15
 11
443000.94
 21
4474303.03
  0
LINE
  8
PS07-LI
 10
443000.84
 20
4474301.54
 11
443002.17
 21
4474301.45
  0
LINE
  8
PS07-LI
 10
443002.07
 20
4474299.95
 11
443003.45
 21
4474299.86
  0
LINE
  8
PS07-LI
 10
443002.67
 20
4474309.23
 11
443002.52
 21
4474307.01
  0
LINE
  8
PS07-LI
 10
443001.46
 20
4474311.14
 11
443001.20
 21
4474307.10
  0
LINE
  8
PS07-LI
 10
443001.46
 20
4474311.14
 11
442993.47
 21
4474311.66
  0
LINE
  8
PS07-LI
 10
443001.20
 20
4474307.10
 11
443002.52
 21
4474307.01
  0
LINE
  8
PS07-LI
 10
443002.26
 20
4474302.95
 11
443002.17
 21
4474301.45
  0
LINE
  8
PS07-LI
 10
443000.94
 20
4474303.03
 11
443002.26
 21
4474302.95
  0
LINE
  8
PS07-LI
 10
443002.17
 20
4474301.45
 11
443002.07
 21
4474299.95
  0
LINE
  8
PS07-LI
 10
443000.84
 20
4474301.54
 11
443000.67
 21
4474298.83
  0
LINE
  8
PS07-LI
 10
443002.07
 20
4474299.95
 11
443001.74
 21
4474294.84
  0
LINE
  8
PS07-LI
 10
443004.21
 20
4474311.60
 11
443004.05
 21
4474309.15
  0
LINE
  8
PS07-LI
 10
443003.93
 20
4474307.34
 11
443014.01
 21
4474306.69
  0
LINE
  8
PS07-LI
 10
443014.01
 20
4474306.69
 11
443013.88
 21
4474304.64
  0
LINE
  8
PS07-LI
 10
443013.88
 20
4474304.64
 11
443022.83
 21
4474304.07
  0
LINE
  8
PS07-LI
 10
443004.05
 20
4474309.15
 11
443003.93
 21
4474307.34
  0
LINE
  8
PS07-LI
 10
443004.05
 20
4474309.15
 11
443002.67
 21
4474309.23
  0
LINE
  8
PS07-LI
 10
443003.45
 20
4474299.86
 11
443003.37
 21
4474298.53
  0
LINE
  8
PS07-LI
 10
443003.93
 20
4474307.34
 11
443003.62
 21
4474302.42
  0
LINE
  8
PS07-LI
 10
443013.88
 20
4474304.64
 11
443013.69
 21
4474301.77
  0
LINE
  8
PS07-LI
 10
443003.61
 20
4474302.33
 11
443003.45
 21
4474299.86
  0
LINE
  8
PS07-LI
 10
443001.74
 20
4474294.84
 11
443003.83
 21
4474294.71
  0
LINE
  8
PS07-LI
 10
443004.15
 20
4474315.09
 11
443003.05
 21
4474315.14
  0
LINE
  8
PS07-LI
 10
443000.67
 20
4474298.83
 11
442992.68
 21
4474299.34
  0
LINE
  8
PS07-LI
 10
443003.61
 20
4474302.36
 11
443003.61
 21
4474302.33
  0
LINE
  8
PS07-LI
 10
443003.37
 20
4474298.53
 11
443022.38
 21
4474297.31
  0
LINE
  8
PS07-LI
 10
443003.62
 20
4474302.42
 11
443003.61
 21
4474302.36
  0
LINE
  8
PS07-LI
 10
443013.69
 20
4474301.77
 11
443003.62
 21
4474302.42
  0
LINE
  8
PS07-LI
 10
443022.38
 20
4474297.31
 11
443023.14
 21
4474297.26
  0
LINE
  8
PS07-LI
 10
443022.83
 20
4474304.07
 11
443023.59
 21
4474304.02
  0
LINE
  8
PS07-LI
 10
443023.24
 20
4474310.37
 11
443024.00
 21
4474310.32
  0
LINE
  8
PS07-LI
 10
443023.59
 20
4474304.02
 11
443023.38
 21
4474300.88
  0
LINE
  8
PS07-LI
 10
443023.79
 20
4474307.18
 11
443023.59
 21
4474304.02
  0
TEXT
  8
PS08-AU
 10
443013.33
 20
4474312.08
 30
0.0
 40
0.7
  1
V.A
 72
1
 73
3
 11
443014.28
 21
4474312.78
 31
0.0
  0
TEXT
  8
PS08-AS
 10
443013.65
 20
4474312.78
 30
0.0
 40
0.7
  1
88
 72
1
 73
1
 11
443014.28
 21
4474312.78
 31
0.0
  0
TEXT
  8
PS08-AU
 10
443012.97
 20
4474307.67
 30
0.0
 40
0.7
  1
V.B
 72
1
 73
3
 11
443013.92
 21
4474308.37
 31
0.0
  0
TEXT
  8
PS08-AS
 10
443013.29
 20
4474308.37
 30
0.0
 40
0.7
  1
88
 72
1
 73
1
 11
443013.92
 21
4474308.37
 31
0.0
  0
TEXT
  8
PS08-AU
 10
443012.61
 20
4474299.67
 30
0.0
 40
0.7
  1
V.C
 72
1
 73
3
 11
443013.56
 21
4474300.37
 31
0.0
  0
TEXT
  8
PS08-AS
 10
443012.93
 20
4474300.37
 30
0.0
 40
0.7
  1
88
 72
1
 73
1
 11
443013.56
 21
4474300.37
 31
0.0
  0
TEXT
  8
PS08-AU
 10
443012.41
 20
4474295.31
 30
0.0
 40
0.7
  1
V.D
 72
1
 73
3
 11
443013.35
 21
4474296.01
 31
0.0
  0
TEXT
  8
PS08-AS
 10
443012.72
 20
4474296.01
 30
0.0
 40
0.7
  1
88
 72
1
 73
1
 11
443013.35
 21
4474296.01
 31
0.0
  0
TEXT
  8
PS08-AU
 10
442996.15
 20
4474295.33
 30
0.0
 40
0.7
  1
V.E
 72
1
 73
3
 11
442997.10
 21
4474296.03
 31
0.0
  0
TEXT
  8
PS08-AS
 10
442996.47
 20
4474296.03
 30
0.0
 40
0.7
  1
70
 72
1
 73
1
 11
442997.10
 21
4474296.03
 31
0.0
  0
TEXT
  8
PS08-AU
 10
442995.51
 20
4474304.42
 30
0.0
 40
0.7
  1
V.F
 72
1
 73
3
 11
442996.45
 21
4474305.12
 31
0.0
  0
TEXT
  8
PS08-AS
 10
442995.82
 20
4474305.12
 30
0.0
 40
0.7
  1
94
 72
1
 73
1
 11
442996.45
 21
4474305.12
 31
0.0
  0
TEXT
  8
PS08-AU
 10
442997.32
 20
4474314.09
 30
0.0
 40
0.7
  1
V.G
 72
1
 73
3
 11
442998.26
 21
4474314.79
 31
0.0
  0
TEXT
  8
PS08-AS
 10
442997.63
 20
4474314.79
 30
0.0
 40
0.7
  1
70
 72
1
 73
1
 11
442998.26
 21
4474314.79
 31
0.0
  0
TEXT
  8
PS08-AU
 10
442999.43
 20
4474304.42
 30
0.0
 40
0.7
  1
COM.VA
 72
1
 73
3
 11
443001.32
 21
4474305.12
 31
0.0
  0
TEXT
  8
PS08-AS
 10
443000.69
 20
4474305.12
 30
0.0
 40
0.7
  1
25
 72
1
 73
1
 11
443001.32
 21
4474305.12
 31
0.0
  0
TEXT
  8
PS08-AU
 10
443007.59
 20
4474303.94
 30
0.0
 40
0.7
  1
PTO
 72
1
 73
3
 11
443008.53
 21
4474304.64
 31
0.0
  0
TEXT
  8
PS08-AS
 10
443007.90
 20
4474304.64
 30
0.0
 40
0.7
  1
50
 72
1
 73
1
 11
443008.53
 21
4474304.64
 31
0.0
  0
LINE
  8
PS08-LA
 10
443004.32
 20
4474317.71
 11
443004.37
 21
4474317.71
  0
LINE
  8
PS08-LA
 10
443004.37
 20
4474317.71
 11
443014.88
 21
4474317.15
  0
LINE
  8
PS08-LA
 10
442992.28
 20
4474293.17
 11
442988.87
 21
4474293.36
  0
LINE
  8
PS08-LA
 10
442988.87
 20
4474293.36
 11
442990.09
 21
4474314.57
  0
LINE
  8
PS08-LA
 10
442990.09
 20
4474314.57
 11
442990.31
 21
4474318.46
  0
LINE
  8
PS08-LA
 10
442990.31
 20
4474318.46
 11
442993.89
 21
4474318.18
  0
LINE
  8
PS08-LA
 10
443014.23
 20
4474291.50
 11
443014.21
 21
4474291.51
  0
LINE
  8
PS08-LA
 10
443014.21
 20
4474291.51
 11
443003.83
 21
4474292.10
  0
LINE
  8
PS08-LA
 10
443003.83
 20
4474292.10
 11
443003.67
 21
4474292.11
  0
TEXT
  8
PS08-AU
 10
443019.98
 20
4474314.08
 30
0.0
 40
0.7
  1
PTO.YTD
 72
1
 73
3
 11
443022.19
 21
4474314.78
 31
0.0
  0
TEXT
  8
PS08-AS
 10
443021.56
 20
4474314.78
 30
0.0
 40
0.7
  1
12
 72
1
 73
1
 11
443022.19
 21
4474314.78
 31
0.0
  0
TEXT
  8
PS08-AU
 10
443019.52
 20
4474305.86
 30
0.0
 40
0.7
  1
PTO.YTD
 72
1
 73
3
 11
443021.72
 21
4474306.56
 31
0.0
  0
TEXT
  8
PS08-AS
 10
443021.09
 20
4474306.56
 30
0.0
 40
0.7
  1
12
 72
1
 73
1
 11
443021.72
 21
4474306.56
 31
0.0
  0
TEXT
  8
PS08-AU
 10
443018.94
 20
4474301.51
 30
0.0
 40
0.7
  1
PTO.YTD
 72
1
 73
3
 11
443021.15
 21
4474302.21
 31
0.0
  0
TEXT
  8
PS08-AS
 10
443020.52
 20
4474302.21
 30
0.0
 40
0.7
  1
12
 72
1
 73
1
 11
443021.15
 21
4474302.21
 31
0.0
  0
TEXT
  8
PS08-AU
 10
443018.38
 20
4474292.47
 30
0.0
 40
0.7
  1
PTO.YTD
 72
1
 73
3
 11
443020.59
 21
4474293.17
 31
0.0
  0
TEXT
  8
PS08-AS
 10
443019.96
 20
4474293.17
 30
0.0
 40
0.7
  1
12
 72
1
 73
1
 11
443020.59
 21
4474293.17
 31
0.0
  0
LINE
  8
PS08-LP
 10
443014.88
 20
4474317.15
 11
443014.89
 21
4474317.15
  0
LINE
  8
PS08-LP
 10
443014.89
 20
4474317.15
 11
443020.90
 21
4474316.81
  0
LINE
  8
PS08-LP
 10
442993.89
 20
4474318.18
 11
442994.11
 21
4474318.17
  0
LINE
  8
PS08-LP
 10
442994.11
 20
4474318.17
 11
443004.32
 21
4474317.71
  0
LINE
  8
PS08-LP
 10
443003.67
 20
4474292.11
 11
442999.18
 21
4474292.43
  0
LINE
  8
PS08-LP
 10
442999.18
 20
4474292.43
 11
442997.77
 21
4474292.48
  0
LINE
  8
PS08-LP
 10
442997.77
 20
4474292.48
 11
442992.26
 21
4474292.89
  0
LINE
  8
PS08-LP
 10
442992.26
 20
4474292.89
 11
442992.28
 21
4474293.17
  0
LINE
  8
PS08-LP
 10
442993.89
 20
4474318.18
 11
442993.47
 21
4474311.66
  0
LINE
  8
PS08-LP
 10
442992.68
 20
4474299.27
 11
442992.28
 21
4474293.17
  0
LINE
  8
PS08-LP
 10
442993.47
 20
4474311.66
 11
442992.68
 21
4474299.34
  0
LINE
  8
PS08-LP
 10
443014.88
 20
4474317.15
 11
443014.71
 21
4474314.54
  0
LINE
  8
PS08-LP
 10
443014.71
 20
4474314.54
 11
443004.15
 21
4474315.09
  0
LINE
  8
PS08-LP
 10
443003.83
 20
4474294.71
 11
443003.67
 21
4474292.11
  0
LINE
  8
PS08-LP
 10
443014.40
 20
4474294.03
 11
443014.23
 21
4474291.50
  0
LINE
  8
PS08-LP
 10
443004.15
 20
4474315.09
 11
443004.32
 21
4474317.71
  0
LINE
  8
PS08-LP
 10
443003.83
 20
4474294.71
 11
443014.40
 21
4474294.03
  0
LINE
  8
PS08-LP
 10
442992.68
 20
4474299.34
 11
442992.68
 21
4474299.27
  0
LINE
  8
PS08-LP
 10
443019.23
 20
4474291.07
 11
443019.21
 21
4474291.08
  0
LINE
  8
PS08-LP
 10
443019.21
 20
4474291.08
 11
443018.20
 21
4474291.17
  0
LINE
  8
PS08-LP
 10
443018.20
 20
4474291.17
 11
443014.23
 21
4474291.50
  0
LINE
  8
PS08-LP
 10
443023.24
 20
4474310.37
 11
443023.36
 21
4474312.27
  0
LINE
  8
PS08-LP
 10
443023.11
 20
4474308.42
 11
443023.24
 21
4474310.37
  0
LINE
  8
PS08-LP
 10
443022.39
 20
4474297.31
 11
443022.54
 21
4474299.69
  0
LINE
  8
PS08-LP
 10
443022.25
 20
4474295.15
 11
443022.39
 21
4474297.31
  0
LINE
  8
PS08-LP
 10
443020.90
 20
4474316.81
 11
443020.62
 21
4474312.45
  0
LINE
  8
PS08-LP
 10
443020.62
 20
4474312.45
 11
443023.36
 21
4474312.27
  0
LINE
  8
PS08-LP
 10
443020.37
 20
4474308.60
 11
443023.11
 21
4474308.42
  0
LINE
  8
PS08-LP
 10
443019.80
 20
4474299.87
 11
443022.54
 21
4474299.69
  0
LINE
  8
PS08-LP
 10
443019.50
 20
4474295.33
 11
443022.25
 21
4474295.15
  0
LINE
  8
PS08-LP
 10
443020.09
 20
4474304.25
 11
443019.80
 21
4474299.87
  0
LINE
  8
PS08-LP
 10
443020.37
 20
4474308.60
 11
443020.09
 21
4474304.25
  0
LINE
  8
PS08-LP
 10
443019.50
 20
4474295.33
 11
443019.23
 21
4474291.07
  0
LINE
  8
PS08-LI
 10
443023.57
 20
4474315.68
 11
443023.57
 21
4474315.58
  0
LINE
  8
PS08-LI
 10
443023.03
 20
4474307.23
 11
443023.01
 21
4474306.90
  0
LINE
  8
PS08-LI
 10
443023.01
 20
4474306.90
 11
443022.83
 21
4474304.07
  0
LINE
  8
PS08-LI
 10
443023.59
 20
4474315.93
 11
443023.57
 21
4474315.68
  0
LINE
  8
PS08-LI
 10
443022.05
 20
4474291.57
 11
443022.03
 21
4474291.35
  0
LINE
  8
PS08-LI
 10
443022.03
 20
4474291.35
 11
443021.96
 21
4474290.84
  0
LINE
  8
PS08-LI
 10
443021.96
 20
4474290.84
 11
443019.23
 21
4474291.07
  0
LINE
  8
PS08-LI
 10
443022.16
 20
4474293.68
 11
443022.09
 21
4474292.48
  0
LINE
  8
PS08-LI
 10
443022.09
 20
4474292.48
 11
443022.05
 21
4474291.57
  0
LINE
  8
PS08-LI
 10
443023.57
 20
4474315.58
 11
443023.51
 21
4474314.57
  0
LINE
  8
PS08-LI
 10
443023.51
 20
4474314.57
 11
443023.46
 21
4474313.79
  0
LINE
  8
PS08-LI
 10
443023.06
 20
4474307.61
 11
443023.11
 21
4474308.42
  0
LINE
  8
PS08-LI
 10
443022.16
 20
4474293.68
 11
443022.25
 21
4474295.15
  0
LINE
  8
PS08-LI
 10
443022.83
 20
4474304.07
 11
443022.62
 21
4474300.93
  0
LINE
  8
PS08-LI
 10
443022.62
 20
4474300.93
 11
443022.59
 21
4474300.60
  0
LINE
  8
PS08-LI
 10
443022.59
 20
4474300.60
 11
443022.59
 21
4474300.53
  0
LINE
  8
PS08-LI
 10
443023.03
 20
4474307.23
 11
443023.06
 21
4474307.61
  0
LINE
  8
PS08-LI
 10
443020.90
 20
4474316.81
 11
443023.64
 21
4474316.66
  0
LINE
  8
PS08-LI
 10
443023.64
 20
4474316.66
 11
443023.59
 21
4474315.93
  0
LINE
  8
PS08-LI
 10
443023.36
 20
4474312.27
 11
443023.46
 21
4474313.79
  0
LINE
  8
PS08-LI
 10
443022.54
 20
4474299.69
 11
443022.59
 21
4474300.53
  0
LINE
  8
PS08-LI
 10
443023.24
 20
4474310.37
 11
443020.50
 21
4474310.55
  0
LINE
  8
PS08-LI
 10
443003.05
 20
4474315.14
 11
443002.67
 21
4474309.23
  0
LINE
  8
PS08-LI
 10
442999.44
 20
4474307.21
 11
443001.20
 21
4474307.10
  0
LINE
  8
PS08-LI
 10
442999.44
 20
4474307.21
 11
442999.17
 21
4474303.15
  0
LINE
  8
PS08-LI
 10
442999.17
 20
4474303.15
 11
443000.94
 21
4474303.03
  0
LINE
  8
PS08-LI
 10
443000.84
 20
4474301.54
 11
443002.17
 21
4474301.45
  0
LINE
  8
PS08-LI
 10
443002.07
 20
4474299.95
 11
443003.45
 21
4474299.86
  0
LINE
  8
PS08-LI
 10
443002.67
 20
4474309.23
 11
443002.52
 21
4474307.01
  0
LINE
  8
PS08-LI
 10
443001.46
 20
4474311.14
 11
443001.20
 21
4474307.10
  0
LINE
  8
PS08-LI
 10
443001.46
 20
4474311.14
 11
442993.47
 21
4474311.66
  0
LINE
  8
PS08-LI
 10
443001.20
 20
4474307.10
 11
443002.52
 21
4474307.01
  0
LINE
  8
PS08-LI
 10
443002.26
 20
4474302.95
 11
443002.17
 21
4474301.45
  0
LINE
  8
PS08-LI
 10
443000.94
 20
4474303.03
 11
443002.26
 21
4474302.95
  0
LINE
  8
PS08-LI
 10
443002.17
 20
4474301.45
 11
443002.07
 21
4474299.95
  0
LINE
  8
PS08-LI
 10
443000.84
 20
4474301.54
 11
443000.67
 21
4474298.83
  0
LINE
  8
PS08-LI
 10
443002.07
 20
4474299.95
 11
443001.74
 21
4474294.84
  0
LINE
  8
PS08-LI
 10
443004.21
 20
4474311.60
 11
443004.05
 21
4474309.15
  0
LINE
  8
PS08-LI
 10
443003.93
 20
4474307.34
 11
443014.01
 21
4474306.69
  0
LINE
  8
PS08-LI
 10
443014.01
 20
4474306.69
 11
443013.88
 21
4474304.64
  0
LINE
  8
PS08-LI
 10
443013.88
 20
4474304.64
 11
443020.09
 21
4474304.25
  0
LINE
  8
PS08-LI
 10
443004.05
 20
4474309.15
 11
443003.93
 21
4474307.34
  0
LINE
  8
PS08-LI
 10
443004.05
 20
4474309.15
 11
443002.67
 21
4474309.23
  0
LINE
  8
PS08-LI
 10
443003.45
 20
4474299.86
 11
443003.37
 21
4474298.53
  0
LINE
  8
PS08-LI
 10
443003.93
 20
4474307.34
 11
443003.62
 21
4474302.42
  0
LINE
  8
PS08-LI
 10
443013.88
 20
4474304.64
 11
443013.69
 21
4474301.77
  0
LINE
  8
PS08-LI
 10
443003.61
 20
4474302.33
 11
443003.45
 21
4474299.86
  0
LINE
  8
PS08-LI
 10
443001.74
 20
4474294.84
 11
443003.83
 21
4474294.71
  0
LINE
  8
PS08-LI
 10
443004.15
 20
4474315.09
 11
443003.05
 21
4474315.14
  0
LINE
  8
PS08-LI
 10
443000.67
 20
4474298.83
 11
442992.68
 21
4474299.34
  0
LINE
  8
PS08-LI
 10
443003.61
 20
4474302.36
 11
443003.61
 21
4474302.33
  0
LINE
  8
PS08-LI
 10
443003.37
 20
4474298.53
 11
443019.65
 21
4474297.49
  0
LINE
  8
PS08-LI
 10
443003.62
 20
4474302.42
 11
443003.61
 21
4474302.36
  0
LINE
  8
PS08-LI
 10
443013.69
 20
4474301.77
 11
443003.62
 21
4474302.42
  0
LINE
  8
PS08-LI
 10
443020.50
 20
4474310.55
 11
443004.21
 21
4474311.60
  0
LINE
  8
PS08-LI
 10
443020.09
 20
4474304.25
 11
443022.83
 21
4474304.07
  0
LINE
  8
PS08-LI
 10
443019.65
 20
4474297.49
 11
443022.39
 21
4474297.31
  0
TEXT
  8
PS09-AU
 10
443002.71
 20
4474312.23
 30
0.0
 40
0.7
  1
V.A
 72
1
 73
3
 11
443003.65
 21
4474312.93
 31
0.0
  0
TEXT
  8
PS09-AS
 10
443003.02
 20
4474312.93
 30
0.0
 40
0.7
  1
83
 72
1
 73
1
 11
443003.65
 21
4474312.93
 31
0.0
  0
TEXT
  8
PS09-AU
 10
443001.44
 20
4474296.70
 30
0.0
 40
0.7
  1
V.B
 72
1
 73
3
 11
443002.39
 21
4474297.40
 31
0.0
  0
TEXT
  8
PS09-AS
 10
443001.76
 20
4474297.40
 30
0.0
 40
0.7
  1
83
 72
1
 73
1
 11
443002.39
 21
4474297.40
 31
0.0
  0
TEXT
  8
PS09-AU
 10
442994.53
 20
4474299.25
 30
0.0
 40
0.7
  1
V.C
 72
1
 73
3
 11
442995.47
 21
4474299.95
 31
0.0
  0
TEXT
  8
PS09-AS
 10
442994.84
 20
4474299.95
 30
0.0
 40
0.7
  1
76
 72
1
 73
1
 11
442995.47
 21
4474299.95
 31
0.0
  0
TEXT
  8
PS09-AU
 10
442995.26
 20
4474311.12
 30
0.0
 40
0.7
  1
V.D
 72
1
 73
3
 11
442996.20
 21
4474311.82
 31
0.0
  0
TEXT
  8
PS09-AS
 10
442995.57
 20
4474311.82
 30
0.0
 40
0.7
  1
76
 72
1
 73
1
 11
442996.20
 21
4474311.82
 31
0.0
  0
TEXT
  8
PS09-AU
 10
442999.43
 20
4474304.42
 30
0.0
 40
0.7
  1
COM.VA
 72
1
 73
3
 11
443001.32
 21
4474305.12
 31
0.0
  0
TEXT
  8
PS09-AS
 10
443000.69
 20
4474305.12
 30
0.0
 40
0.7
  1
23
 72
1
 73
1
 11
443001.32
 21
4474305.12
 31
0.0
  0
LINE
  8
PS09-LA
 10
443004.32
 20
4474317.71
 11
443004.37
 21
4474317.71
  0
LINE
  8
PS09-LA
 10
443004.37
 20
4474317.71
 11
443014.88
 21
4474317.15
  0
LINE
  8
PS09-LA
 10
442992.28
 20
4474293.17
 11
442988.87
 21
4474293.36
  0
LINE
  8
PS09-LA
 10
442988.87
 20
4474293.36
 11
442990.09
 21
4474314.57
  0
LINE
  8
PS09-LA
 10
442990.09
 20
4474314.57
 11
442990.31
 21
4474318.46
  0
LINE
  8
PS09-LA
 10
442990.31
 20
4474318.46
 11
442993.89
 21
4474318.18
  0
LINE
  8
PS09-LA
 10
443014.23
 20
4474291.50
 11
443014.21
 21
4474291.51
  0
LINE
  8
PS09-LA
 10
443014.21
 20
4474291.51
 11
443003.83
 21
4474292.10
  0
LINE
  8
PS09-LA
 10
443003.83
 20
4474292.10
 11
443003.67
 21
4474292.11
  0
LINE
  8
PS09-LA
 10
443014.88
 20
4474317.15
 11
443014.89
 21
4474317.15
  0
LINE
  8
PS09-LA
 10
443014.89
 20
4474317.15
 11
443020.90
 21
4474316.81
  0
LINE
  8
PS09-LA
 10
443014.88
 20
4474317.15
 11
443014.71
 21
4474314.54
  0
LINE
  8
PS09-LA
 10
443014.71
 20
4474314.54
 11
443014.52
 21
4474314.55
  0
LINE
  8
PS09-LA
 10
443014.40
 20
4474294.03
 11
443014.23
 21
4474291.50
  0
LINE
  8
PS09-LA
 10
443019.23
 20
4474291.07
 11
443019.21
 21
4474291.08
  0
LINE
  8
PS09-LA
 10
443019.21
 20
4474291.08
 11
443018.20
 21
4474291.17
  0
LINE
  8
PS09-LA
 10
443018.20
 20
4474291.17
 11
443014.23
 21
4474291.50
  0
LINE
  8
PS09-LA
 10
443023.24
 20
4474310.37
 11
443023.36
 21
4474312.27
  0
LINE
  8
PS09-LA
 10
443023.11
 20
4474308.42
 11
443023.24
 21
4474310.37
  0
LINE
  8
PS09-LA
 10
443022.39
 20
4474297.31
 11
443022.54
 21
4474299.69
  0
LINE
  8
PS09-LA
 10
443022.25
 20
4474295.15
 11
443022.39
 21
4474297.31
  0
LINE
  8
PS09-LA
 10
443020.90
 20
4474316.81
 11
443020.62
 21
4474312.45
  0
LINE
  8
PS09-LA
 10
443020.62
 20
4474312.45
 11
443023.36
 21
4474312.27
  0
LINE
  8
PS09-LA
 10
443020.37
 20
4474308.60
 11
443023.11
 21
4474308.42
  0
LINE
  8
PS09-LA
 10
443019.80
 20
4474299.87
 11
443022.54
 21
4474299.69
  0
LINE
  8
PS09-LA
 10
443019.50
 20
4474295.33
 11
443022.25
 21
4474295.15
  0
LINE
  8
PS09-LA
 10
443020.09
 20
4474304.25
 11
443019.80
 21
4474299.87
  0
LINE
  8
PS09-LA
 10
443020.37
 20
4474308.60
 11
443020.09
 21
4474304.25
  0
LINE
  8
PS09-LA
 10
443019.50
 20
4474295.33
 11
443019.23
 21
4474291.07
  0
LINE
  8
PS09-LA
 10
443023.57
 20
4474315.68
 11
443023.57
 21
4474315.58
  0
LINE
  8
PS09-LA
 10
443023.03
 20
4474307.23
 11
443023.01
 21
4474306.90
  0
LINE
  8
PS09-LA
 10
443023.01
 20
4474306.90
 11
443022.83
 21
4474304.07
  0
LINE
  8
PS09-LA
 10
443023.59
 20
4474315.93
 11
443023.57
 21
4474315.68
  0
LINE
  8
PS09-LA
 10
443022.05
 20
4474291.57
 11
443022.03
 21
4474291.35
  0
LINE
  8
PS09-LA
 10
443022.03
 20
4474291.35
 11
443021.96
 21
4474290.84
  0
LINE
  8
PS09-LA
 10
443021.96
 20
4474290.84
 11
443019.23
 21
4474291.07
  0
LINE
  8
PS09-LA
 10
443022.16
 20
4474293.68
 11
443022.09
 21
4474292.48
  0
LINE
  8
PS09-LA
 10
443022.09
 20
4474292.48
 11
443022.05
 21
4474291.57
  0
LINE
  8
PS09-LA
 10
443023.57
 20
4474315.58
 11
443023.51
 21
4474314.57
  0
LINE
  8
PS09-LA
 10
443023.51
 20
4474314.57
 11
443023.46
 21
4474313.79
  0
LINE
  8
PS09-LA
 10
443023.06
 20
4474307.61
 11
443023.11
 21
4474308.42
  0
LINE
  8
PS09-LA
 10
443022.16
 20
4474293.68
 11
443022.25
 21
4474295.15
  0
LINE
  8
PS09-LA
 10
443022.83
 20
4474304.07
 11
443022.62
 21
4474300.93
  0
LINE
  8
PS09-LA
 10
443022.62
 20
4474300.93
 11
443022.59
 21
4474300.60
  0
LINE
  8
PS09-LA
 10
443022.59
 20
4474300.60
 11
443022.59
 21
4474300.53
  0
LINE
  8
PS09-LA
 10
443023.03
 20
4474307.23
 11
443023.06
 21
4474307.61
  0
LINE
  8
PS09-LA
 10
443020.90
 20
4474316.81
 11
443023.64
 21
4474316.66
  0
LINE
  8
PS09-LA
 10
443023.64
 20
4474316.66
 11
443023.59
 21
4474315.93
  0
LINE
  8
PS09-LA
 10
443023.36
 20
4474312.27
 11
443023.46
 21
4474313.79
  0
LINE
  8
PS09-LA
 10
443022.54
 20
4474299.69
 11
443022.59
 21
4474300.53
  0
LINE
  8
PS09-LA
 10
443023.24
 20
4474310.37
 11
443020.50
 21
4474310.55
  0
LINE
  8
PS09-LA
 10
443013.88
 20
4474304.64
 11
443020.09
 21
4474304.25
  0
LINE
  8
PS09-LA
 10
443020.50
 20
4474310.55
 11
443014.28
 21
4474310.95
  0
LINE
  8
PS09-LA
 10
443020.09
 20
4474304.25
 11
443022.83
 21
4474304.07
  0
LINE
  8
PS09-LA
 10
443019.65
 20
4474297.49
 11
443022.39
 21
4474297.31
  0
LINE
  8
PS09-LA
 10
443013.19
 20
4474294.11
 11
443014.40
 21
4474294.03
  0
LINE
  8
PS09-LA
 10
443013.44
 20
4474297.88
 11
443019.65
 21
4474297.49
  0
LINE
  8
PS09-LA
 10
443014.01
 20
4474306.69
 11
443013.88
 21
4474304.64
  0
LINE
  8
PS09-LA
 10
443013.88
 20
4474304.64
 11
443013.69
 21
4474301.77
  0
TEXT
  8
PS09-AU
 10
443008.91
 20
4474310.11
 30
0.0
 40
0.7
  1
PTO.YTD
 72
1
 73
3
 11
443011.11
 21
4474310.81
 31
0.0
  0
TEXT
  8
PS09-AS
 10
443010.48
 20
4474310.81
 30
0.0
 40
0.7
  1
45
 72
1
 73
1
 11
443011.11
 21
4474310.81
 31
0.0
  0
TEXT
  8
PS09-AU
 10
443008.65
 20
4474297.78
 30
0.0
 40
0.7
  1
PTO.YTD
 72
1
 73
3
 11
443010.85
 21
4474298.48
 31
0.0
  0
TEXT
  8
PS09-AS
 10
443010.22
 20
4474298.48
 30
0.0
 40
0.7
  1
44
 72
1
 73
1
 11
443010.85
 21
4474298.48
 31
0.0
  0
LINE
  8
PS09-LP
 10
442993.89
 20
4474318.18
 11
442994.11
 21
4474318.17
  0
LINE
  8
PS09-LP
 10
442994.11
 20
4474318.17
 11
442998.72
 21
4474317.96
  0
LINE
  8
PS09-LP
 10
443003.67
 20
4474292.11
 11
442999.18
 21
4474292.43
  0
LINE
  8
PS09-LP
 10
442999.18
 20
4474292.43
 11
442997.77
 21
4474292.48
  0
LINE
  8
PS09-LP
 10
442997.77
 20
4474292.48
 11
442997.07
 21
4474292.53
  0
LINE
  8
PS09-LP
 10
442993.89
 20
4474318.18
 11
442993.47
 21
4474311.66
  0
LINE
  8
PS09-LP
 10
442992.68
 20
4474299.27
 11
442992.28
 21
4474293.17
  0
LINE
  8
PS09-LP
 10
442993.47
 20
4474311.66
 11
442993.08
 21
4474305.53
  0
LINE
  8
PS09-LP
 10
443003.83
 20
4474294.71
 11
443003.67
 21
4474292.11
  0
LINE
  8
PS09-LP
 10
443004.15
 20
4474315.09
 11
443004.32
 21
4474317.71
  0
LINE
  8
PS09-LP
 10
443003.83
 20
4474294.71
 11
443007.50
 21
4474294.47
  0
LINE
  8
PS09-LP
 10
442992.68
 20
4474299.34
 11
442992.68
 21
4474299.27
  0
LINE
  8
PS09-LP
 10
443008.82
 20
4474314.85
 11
443008.59
 21
4474311.31
  0
LINE
  8
PS09-LP
 10
443008.82
 20
4474314.85
 11
443004.15
 21
4474315.09
  0
LINE
  8
PS09-LP
 10
443008.59
 20
4474311.31
 11
443008.31
 21
4474307.06
  0
LINE
  8
PS09-LP
 10
443007.74
 20
4474298.25
 11
443007.50
 21
4474294.47
  0
LINE
  8
PS09-LP
 10
443007.99
 20
4474302.13
 11
443007.74
 21
4474298.25
  0
LINE
  8
PS09-LP
 10
442998.72
 20
4474317.96
 11
443004.32
 21
4474317.71
  0
LINE
  8
PS09-LP
 10
442997.07
 20
4474292.53
 11
442992.26
 21
4474292.89
  0
LINE
  8
PS09-LP
 10
442992.26
 20
4474292.89
 11
442992.28
 21
4474293.17
  0
LINE
  8
PS09-LP
 10
442993.08
 20
4474305.53
 11
442993.07
 21
4474305.45
  0
LINE
  8
PS09-LP
 10
443003.93
 20
4474307.34
 11
443008.31
 21
4474307.06
  0
LINE
  8
PS09-LP
 10
443003.93
 20
4474307.34
 11
443003.62
 21
4474302.42
  0
LINE
  8
PS09-LP
 10
443007.99
 20
4474302.13
 11
443003.62
 21
4474302.42
  0
LINE
  8
PS09-LP
 10
442993.07
 20
4474305.45
 11
442992.68
 21
4474299.34
  0
LINE
  8
PS09-LI
 10
443014.52
 20
4474314.55
 11
443008.82
 21
4474314.85
  0
LINE
  8
PS09-LI
 10
443007.50
 20
4474294.47
 11
443013.19
 21
4474294.11
  0
LINE
  8
PS09-LI
 10
443014.01
 20
4474306.69
 11
443014.28
 21
4474310.95
  0
LINE
  8
PS09-LI
 10
443013.69
 20
4474301.77
 11
443013.44
 21
4474297.88
  0
LINE
  8
PS09-LI
 10
443014.28
 20
4474310.95
 11
443014.52
 21
4474314.55
  0
LINE
  8
PS09-LI
 10
443013.44
 20
4474297.88
 11
443013.19
 21
4474294.11
  0
LINE
  8
PS09-LI
 10
443004.02
 20
4474308.68
 11
443003.93
 21
4474307.34
  0
LINE
  8
PS09-LI
 10
442999.44
 20
4474307.21
 11
443000.24
 21
4474307.16
  0
LINE
  8
PS09-LI
 10
442999.44
 20
4474307.21
 11
442999.30
 21
4474305.13
  0
LINE
  8
PS09-LI
 10
442999.17
 20
4474303.15
 11
442999.98
 21
4474303.10
  0
LINE
  8
PS09-LI
 10
443001.20
 20
4474307.10
 11
443002.52
 21
4474307.01
  0
LINE
  8
PS09-LI
 10
443002.26
 20
4474302.95
 11
443002.17
 21
4474301.45
  0
LINE
  8
PS09-LI
 10
443000.94
 20
4474303.03
 11
443002.26
 21
4474302.95
  0
LINE
  8
PS09-LI
 10
443002.17
 20
4474301.45
 11
443002.14
 21
4474301.08
  0
LINE
  8
PS09-LI
 10
443003.61
 20
4474302.33
 11
443003.52
 21
4474300.99
  0
LINE
  8
PS09-LI
 10
443003.61
 20
4474302.36
 11
443003.61
 21
4474302.33
  0
LINE
  8
PS09-LI
 10
443003.62
 20
4474302.42
 11
443003.61
 21
4474302.36
  0
LINE
  8
PS09-LI
 10
443013.69
 20
4474301.77
 11
443007.99
 21
4474302.13
  0
LINE
  8
PS09-LI
 10
443008.31
 20
4474307.06
 11
443014.01
 21
4474306.69
  0
LINE
  8
PS09-LI
 10
442998.72
 20
4474317.96
 11
442998.29
 21
4474311.35
  0
LINE
  8
PS09-LI
 10
442999.86
 20
4474301.23
 11
443000.82
 21
4474301.16
  0
LINE
  8
PS09-LI
 10
443000.36
 20
4474308.92
 11
443001.31
 21
4474308.86
  0
LINE
  8
PS09-LI
 10
443000.24
 20
4474307.16
 11
443001.20
 21
4474307.10
  0
LINE
  8
PS09-LI
 10
442999.98
 20
4474303.10
 11
443000.94
 21
4474303.03
  0
LINE
  8
PS09-LI
 10
443002.64
 20
4474308.77
 11
443004.02
 21
4474308.68
  0
LINE
  8
PS09-LI
 10
443002.64
 20
4474308.77
 11
443002.52
 21
4474307.01
  0
LINE
  8
PS09-LI
 10
443001.31
 20
4474308.86
 11
443002.64
 21
4474308.77
  0
LINE
  8
PS09-LI
 10
442998.29
 20
4474311.35
 11
442998.26
 21
4474310.88
  0
LINE
  8
PS09-LI
 10
443002.14
 20
4474301.08
 11
443003.52
 21
4474300.99
  0
LINE
  8
PS09-LI
 10
443000.82
 20
4474301.16
 11
443002.14
 21
4474301.08
  0
LINE
  8
PS09-LI
 10
442997.50
 20
4474299.03
 11
442997.07
 21
4474292.53
  0
LINE
  8
PS09-LI
 10
442999.86
 20
4474301.23
 11
442999.73
 21
4474299.22
  0
LINE
  8
PS09-LI
 10
442999.30
 20
4474305.13
 11
442999.30
 21
4474305.05
  0
LINE
  8
PS09-LI
 10
442997.50
 20
4474299.03
 11
442997.52
 21
4474299.36
  0
LINE
  8
PS09-LI
 10
442997.52
 20
4474299.36
 11
442999.73
 21
4474299.22
  0
LINE
  8
PS09-LI
 10
442998.26
 20
4474310.88
 11
442998.25
 21
4474310.67
  0
LINE
  8
PS09-LI
 10
443000.46
 20
4474310.53
 11
442998.25
 21
4474310.67
  0
LINE
  8
PS09-LI
 10
443000.46
 20
4474310.53
 11
443000.36
 21
4474308.92
  0
LINE
  8
PS09-LI
 10
442999.30
 20
4474305.05
 11
442999.17
 21
4474303.15
  0
LINE
  8
PS09-LI
 10
442999.30
 20
4474305.05
 11
442993.07
 21
4474305.45
  0
ENDSEC
  0
EOF
