  0
SECTION
  2
ENTITIES
  0
TEXT
  8
PS1-AS
 10
600109.74
 20
4315673.01
 40
0.39
  1
72
 72
     1
 11
600110.05
 21
4315673.01
 73
     1
  0
TEXT
  8
PS1-AU
 10
600109.58
 20
4315673.01
 40
0.39
  1
V.A
 72
     1
 11
600110.05
 21
4315673.01
 73
     3
  0
TEXT
  8
PS1-AS
 10
600110.55
 20
4315667.28
 40
0.39
  1
68
 72
     1
 11
600110.86
 21
4315667.28
 73
     1
  0
TEXT
  8
PS1-AU
 10
600110.39
 20
4315667.28
 40
0.39
  1
V.B
 72
     1
 11
600110.86
 21
4315667.28
 73
     3
  0
TEXT
  8
PS1-AS
 10
600110.35
 20
4315661.42
 40
0.39
  1
51
 72
     1
 11
600110.66
 21
4315661.42
 73
     1
  0
TEXT
  8
PS1-AU
 10
600110.19
 20
4315661.42
 40
0.39
  1
V.C
 72
     1
 11
600110.66
 21
4315661.42
 73
     3
  0
TEXT
  8
PS1-AS
 10
600112.04
 20
4315653.79
 40
0.39
  1
51
 72
     1
 11
600112.36
 21
4315653.79
 73
     1
  0
TEXT
  8
PS1-AU
 10
600111.88
 20
4315653.79
 40
0.39
  1
V.D
 72
     1
 11
600112.36
 21
4315653.79
 73
     3
  0
TEXT
  8
PS1-AS
 10
600114.78
 20
4315649.20
 40
0.39
  1
68
 72
     1
 11
600115.10
 21
4315649.20
 73
     1
  0
TEXT
  8
PS1-AU
 10
600114.63
 20
4315649.20
 40
0.39
  1
V.E
 72
     1
 11
600115.10
 21
4315649.20
 73
     3
  0
TEXT
  8
PS1-AS
 10
600114.30
 20
4315642.85
 40
0.39
  1
69
 72
     1
 11
600114.61
 21
4315642.85
 73
     1
  0
TEXT
  8
PS1-AU
 10
600114.14
 20
4315642.85
 40
0.39
  1
V.F
 72
     1
 11
600114.61
 21
4315642.85
 73
     3
  0
TEXT
  8
PS1-AS
 10
600108.65
 20
4315657.36
 40
0.39
  1
34
 72
     1
 11
600108.97
 21
4315657.36
 73
     1
  0
TEXT
  8
PS1-AU
 10
600108.18
 20
4315657.36
 40
0.39
  1
ACCES
 72
     1
 11
600108.97
 21
4315657.36
 73
     3
  0
TEXT
  8
PS1-TO
 10
600112.17
 20
4315658.16
 40
0.36
  1
RAMPA
 72
     1
 11
600112.88
 21
4315658.16
 73
     1
  0
TEXT
  8
PS1-AS
 10
600104.45
 20
4315669.81
 40
0.39
  1
2
 72
     1
 11
600104.61
 21
4315669.81
 73
     1
  0
TEXT
  8
PS1-AU
 10
600104.13
 20
4315669.81
 40
0.39
  1
YPO
 72
     1
 11
600104.61
 21
4315669.81
 73
     3
  0
TEXT
  8
PS1-AS
 10
600104.69
 20
4315668.23
 40
0.39
  1
2
 72
     1
 11
600104.85
 21
4315668.23
 73
     1
  0
TEXT
  8
PS1-AU
 10
600104.38
 20
4315668.23
 40
0.39
  1
YPO
 72
     1
 11
600104.85
 21
4315668.23
 73
     3
  0
TEXT
  8
PS1-AS
 10
600105.82
 20
4315662.60
 40
0.39
  1
2
 72
     1
 11
600105.98
 21
4315662.60
 73
     1
  0
TEXT
  8
PS1-AU
 10
600105.51
 20
4315662.60
 40
0.39
  1
YPO
 72
     1
 11
600105.98
 21
4315662.60
 73
     3
  0
TEXT
  8
PS1-AS
 10
600107.88
 20
4315651.50
 40
0.39
  1
2
 72
     1
 11
600108.04
 21
4315651.50
 73
     1
  0
TEXT
  8
PS1-AU
 10
600107.56
 20
4315651.50
 40
0.39
  1
YPO
 72
     1
 11
600108.04
 21
4315651.50
 73
     3
  0
TEXT
  8
PS1-AS
 10
600108.83
 20
4315645.95
 40
0.39
  1
2
 72
     1
 11
600108.98
 21
4315645.95
 73
     1
  0
TEXT
  8
PS1-AU
 10
600108.51
 20
4315645.95
 40
0.39
  1
YPO
 72
     1
 11
600108.98
 21
4315645.95
 73
     3
  0
TEXT
  8
PS1-AS
 10
600109.19
 20
4315644.27
 40
0.39
  1
2
 72
     1
 11
600109.35
 21
4315644.27
 73
     1
  0
TEXT
  8
PS1-AU
 10
600108.88
 20
4315644.27
 40
0.39
  1
YPO
 72
     1
 11
600109.35
 21
4315644.27
 73
     3
  0
TEXT
  8
PS1-AS
 10
600107.28
 20
4315640.57
 40
0.39
  1
18
 72
     1
 11
600107.59
 21
4315640.57
 73
     1
  0
TEXT
  8
PS1-AU
 10
600107.12
 20
4315640.57
 40
0.39
  1
PTO
 72
     1
 11
600107.59
 21
4315640.57
 73
     3
  0
TEXT
  8
PS1-AS
 10
600106.15
 20
4315648.47
 40
0.39
  1
17
 72
     1
 11
600106.46
 21
4315648.47
 73
     1
  0
TEXT
  8
PS1-AU
 10
600105.99
 20
4315648.47
 40
0.39
  1
PTO
 72
     1
 11
600106.46
 21
4315648.47
 73
     3
  0
TEXT
  8
PS1-AS
 10
600104.80
 20
4315653.81
 40
0.39
  1
14
 72
     1
 11
600105.11
 21
4315653.81
 73
     1
  0
TEXT
  8
PS1-AU
 10
600104.64
 20
4315653.81
 40
0.39
  1
PTO
 72
     1
 11
600105.11
 21
4315653.81
 73
     3
  0
TEXT
  8
PS1-AS
 10
600104.90
 20
4315656.80
 40
0.39
  1
11
 72
     1
 11
600105.21
 21
4315656.80
 73
     1
  0
TEXT
  8
PS1-AU
 10
600104.74
 20
4315656.80
 40
0.39
  1
PTO
 72
     1
 11
600105.21
 21
4315656.80
 73
     3
  0
TEXT
  8
PS1-AS
 10
600103.79
 20
4315660.41
 40
0.39
  1
15
 72
     1
 11
600104.10
 21
4315660.41
 73
     1
  0
TEXT
  8
PS1-AU
 10
600103.63
 20
4315660.41
 40
0.39
  1
PTO
 72
     1
 11
600104.10
 21
4315660.41
 73
     3
  0
TEXT
  8
PS1-AS
 10
600102.98
 20
4315665.67
 40
0.39
  1
17
 72
     1
 11
600103.29
 21
4315665.67
 73
     1
  0
TEXT
  8
PS1-AU
 10
600102.82
 20
4315665.67
 40
0.39
  1
PTO
 72
     1
 11
600103.29
 21
4315665.67
 73
     3
  0
TEXT
  8
PS1-AS
 10
600101.77
 20
4315671.65
 40
0.39
  1
14
 72
     1
 11
600102.08
 21
4315671.65
 73
     1
  0
TEXT
  8
PS1-AU
 10
600101.61
 20
4315671.65
 40
0.39
  1
PTO
 72
     1
 11
600102.08
 21
4315671.65
 73
     3
  0
TEXT
  8
PS1-AS
 10
600117.42
 20
4315675.17
 40
0.39
  1
28
 72
     1
 11
600117.74
 21
4315675.17
 73
     1
  0
TEXT
  8
PS1-AU
 10
600117.27
 20
4315675.17
 40
0.39
  1
PTO
 72
     1
 11
600117.74
 21
4315675.17
 73
     3
  0
TEXT
  8
PS1-AS
 10
600118.57
 20
4315668.94
 40
0.39
  1
27
 72
     1
 11
600118.88
 21
4315668.94
 73
     1
  0
TEXT
  8
PS1-AU
 10
600118.41
 20
4315668.94
 40
0.39
  1
PTO
 72
     1
 11
600118.88
 21
4315668.94
 73
     3
  0
TEXT
  8
PS1-AS
 10
600119.07
 20
4315662.88
 40
0.39
  1
39
 72
     1
 11
600119.38
 21
4315662.88
 73
     1
  0
TEXT
  8
PS1-AU
 10
600118.91
 20
4315662.88
 40
0.39
  1
PTO
 72
     1
 11
600119.38
 21
4315662.88
 73
     3
  0
TEXT
  8
PS1-AS
 10
600120.41
 20
4315656.23
 40
0.39
  1
39
 72
     1
 11
600120.73
 21
4315656.23
 73
     1
  0
TEXT
  8
PS1-AU
 10
600120.25
 20
4315656.23
 40
0.39
  1
PTO
 72
     1
 11
600120.73
 21
4315656.23
 73
     3
  0
TEXT
  8
PS1-AS
 10
600121.90
 20
4315650.26
 40
0.39
  1
27
 72
     1
 11
600122.22
 21
4315650.26
 73
     1
  0
TEXT
  8
PS1-AU
 10
600121.75
 20
4315650.26
 40
0.39
  1
PTO
 72
     1
 11
600122.22
 21
4315650.26
 73
     3
  0
TEXT
  8
PS1-AS
 10
600122.90
 20
4315644.70
 40
0.39
  1
27
 72
     1
 11
600123.21
 21
4315644.70
 73
     1
  0
TEXT
  8
PS1-AU
 10
600122.74
 20
4315644.70
 40
0.39
  1
PTO
 72
     1
 11
600123.21
 21
4315644.70
 73
     3
  0
POLYLINE
  8
PS1-LP
 66
     1
  0
VERTEX
  8
PS1-LP
 10
600121.73
 20
4315666.36
  0
VERTEX
  8
PS1-LP
 10
600120.68
 20
4315671.98
  0
SEQEND
  8
PS1-LP
  0
POLYLINE
  8
PS1-LP
 66
     1
  0
VERTEX
  8
PS1-LP
 10
600120.68
 20
4315671.98
  0
VERTEX
  8
PS1-LP
 10
600119.58
 20
4315677.90
  0
VERTEX
  8
PS1-LP
 10
600114.99
 20
4315677.05
  0
SEQEND
  8
PS1-LP
  0
POLYLINE
  8
PS1-LP
 66
     1
  0
VERTEX
  8
PS1-LP
 10
600114.99
 20
4315677.05
  0
VERTEX
  8
PS1-LP
 10
600114.36
 20
4315676.93
  0
VERTEX
  8
PS1-LP
 10
600107.83
 20
4315675.71
  0
VERTEX
  8
PS1-LP
 10
600103.23
 20
4315674.86
  0
VERTEX
  8
PS1-LP
 10
600102.90
 20
4315674.80
  0
SEQEND
  8
PS1-LP
  0
POLYLINE
  8
PS1-LP
 66
     1
  0
VERTEX
  8
PS1-LP
 10
600102.90
 20
4315674.80
  0
VERTEX
  8
PS1-LP
 10
600102.70
 20
4315674.76
  0
VERTEX
  8
PS1-LP
 10
600102.00
 20
4315673.73
  0
VERTEX
  8
PS1-LP
 10
600101.48
 20
4315672.98
  0
VERTEX
  8
PS1-LP
 10
600100.68
 20
4315671.80
  0
VERTEX
  8
PS1-LP
 10
600100.44
 20
4315671.46
  0
VERTEX
  8
PS1-LP
 10
600100.86
 20
4315669.22
  0
VERTEX
  8
PS1-LP
 10
600101.03
 20
4315668.32
  0
SEQEND
  8
PS1-LP
  0
POLYLINE
  8
PS1-LP
 66
     1
  0
VERTEX
  8
PS1-LP
 10
600101.03
 20
4315668.32
  0
VERTEX
  8
PS1-LP
 10
600102.07
 20
4315662.71
  0
SEQEND
  8
PS1-LP
  0
POLYLINE
  8
PS1-LP
 66
     1
  0
VERTEX
  8
PS1-LP
 10
600102.07
 20
4315662.71
  0
VERTEX
  8
PS1-LP
 10
600102.88
 20
4315658.36
  0
VERTEX
  8
PS1-LP
 10
600102.96
 20
4315657.93
  0
SEQEND
  8
PS1-LP
  0
POLYLINE
  8
PS1-LP
 66
     1
  0
VERTEX
  8
PS1-LP
 10
600102.96
 20
4315657.93
  0
VERTEX
  8
PS1-LP
 10
600103.17
 20
4315656.81
  0
VERTEX
  8
PS1-LP
 10
600103.32
 20
4315656.44
  0
VERTEX
  8
PS1-LP
 10
600103.62
 20
4315654.80
  0
SEQEND
  8
PS1-LP
  0
POLYLINE
  8
PS1-LP
 66
     1
  0
VERTEX
  8
PS1-LP
 10
600103.62
 20
4315654.80
  0
VERTEX
  8
PS1-LP
 10
600104.49
 20
4315650.01
  0
SEQEND
  8
PS1-LP
  0
POLYLINE
  8
PS1-LP
 66
     1
  0
VERTEX
  8
PS1-LP
 10
600104.49
 20
4315650.01
  0
VERTEX
  8
PS1-LP
 10
600105.51
 20
4315644.40
  0
SEQEND
  8
PS1-LP
  0
POLYLINE
  8
PS1-LP
 66
     1
  0
VERTEX
  8
PS1-LP
 10
600105.51
 20
4315644.40
  0
VERTEX
  8
PS1-LP
 10
600106.55
 20
4315638.66
  0
VERTEX
  8
PS1-LP
 10
600109.52
 20
4315639.22
  0
SEQEND
  8
PS1-LP
  0
POLYLINE
  8
PS1-LP
 66
     1
  0
VERTEX
  8
PS1-LP
 10
600109.52
 20
4315639.22
  0
VERTEX
  8
PS1-LP
 10
600121.62
 20
4315641.48
  0
SEQEND
  8
PS1-LP
  0
POLYLINE
  8
PS1-LP
 66
     1
  0
VERTEX
  8
PS1-LP
 10
600121.62
 20
4315641.48
  0
VERTEX
  8
PS1-LP
 10
600126.20
 20
4315642.33
  0
VERTEX
  8
PS1-LP
 10
600125.14
 20
4315648.05
  0
SEQEND
  8
PS1-LP
  0
POLYLINE
  8
PS1-LP
 66
     1
  0
VERTEX
  8
PS1-LP
 10
600125.14
 20
4315648.05
  0
VERTEX
  8
PS1-LP
 10
600124.09
 20
4315653.66
  0
SEQEND
  8
PS1-LP
  0
POLYLINE
  8
PS1-LP
 66
     1
  0
VERTEX
  8
PS1-LP
 10
600124.09
 20
4315653.66
  0
VERTEX
  8
PS1-LP
 10
600124.00
 20
4315654.15
  0
VERTEX
  8
PS1-LP
 10
600123.21
 20
4315658.44
  0
VERTEX
  8
PS1-LP
 10
600122.92
 20
4315660.01
  0
SEQEND
  8
PS1-LP
  0
POLYLINE
  8
PS1-LP
 66
     1
  0
VERTEX
  8
PS1-LP
 10
600122.92
 20
4315660.01
  0
VERTEX
  8
PS1-LP
 10
600122.91
 20
4315660.05
  0
VERTEX
  8
PS1-LP
 10
600122.62
 20
4315661.59
  0
VERTEX
  8
PS1-LP
 10
600121.73
 20
4315666.36
  0
SEQEND
  8
PS1-LP
  0
POLYLINE
  8
PS1-LI
 66
     1
  0
VERTEX
  8
PS1-LI
 10
600105.51
 20
4315644.40
  0
VERTEX
  8
PS1-LI
 10
600108.46
 20
4315644.95
  0
SEQEND
  8
PS1-LI
  0
POLYLINE
  8
PS1-LI
 66
     1
  0
VERTEX
  8
PS1-LI
 10
600108.46
 20
4315644.95
  0
VERTEX
  8
PS1-LI
 10
600109.93
 20
4315645.22
  0
SEQEND
  8
PS1-LI
  0
POLYLINE
  8
PS1-LI
 66
     1
  0
VERTEX
  8
PS1-LI
 10
600109.93
 20
4315645.22
  0
VERTEX
  8
PS1-LI
 10
600120.56
 20
4315647.20
  0
SEQEND
  8
PS1-LI
  0
POLYLINE
  8
PS1-LI
 66
     1
  0
VERTEX
  8
PS1-LI
 10
600120.56
 20
4315647.20
  0
VERTEX
  8
PS1-LI
 10
600125.14
 20
4315648.05
  0
SEQEND
  8
PS1-LI
  0
POLYLINE
  8
PS1-LI
 66
     1
  0
VERTEX
  8
PS1-LI
 10
600109.52
 20
4315639.22
  0
VERTEX
  8
PS1-LI
 10
600108.76
 20
4315643.33
  0
SEQEND
  8
PS1-LI
  0
POLYLINE
  8
PS1-LI
 66
     1
  0
VERTEX
  8
PS1-LI
 10
600108.76
 20
4315643.33
  0
VERTEX
  8
PS1-LI
 10
600108.46
 20
4315644.95
  0
SEQEND
  8
PS1-LI
  0
POLYLINE
  8
PS1-LI
 66
     1
  0
VERTEX
  8
PS1-LI
 10
600108.46
 20
4315644.95
  0
VERTEX
  8
PS1-LI
 10
600108.16
 20
4315646.57
  0
SEQEND
  8
PS1-LI
  0
POLYLINE
  8
PS1-LI
 66
     1
  0
VERTEX
  8
PS1-LI
 10
600108.16
 20
4315646.57
  0
VERTEX
  8
PS1-LI
 10
600109.63
 20
4315646.84
  0
VERTEX
  8
PS1-LI
 10
600109.93
 20
4315645.22
  0
SEQEND
  8
PS1-LI
  0
POLYLINE
  8
PS1-LI
 66
     1
  0
VERTEX
  8
PS1-LI
 10
600109.93
 20
4315645.22
  0
VERTEX
  8
PS1-LI
 10
600110.23
 20
4315643.60
  0
VERTEX
  8
PS1-LI
 10
600108.76
 20
4315643.33
  0
SEQEND
  8
PS1-LI
  0
POLYLINE
  8
PS1-LI
 66
     1
  0
VERTEX
  8
PS1-LI
 10
600104.49
 20
4315650.01
  0
VERTEX
  8
PS1-LI
 10
600107.42
 20
4315650.56
  0
SEQEND
  8
PS1-LI
  0
POLYLINE
  8
PS1-LI
 66
     1
  0
VERTEX
  8
PS1-LI
 10
600107.42
 20
4315650.56
  0
VERTEX
  8
PS1-LI
 10
600108.89
 20
4315650.83
  0
SEQEND
  8
PS1-LI
  0
POLYLINE
  8
PS1-LI
 66
     1
  0
VERTEX
  8
PS1-LI
 10
600108.89
 20
4315650.83
  0
VERTEX
  8
PS1-LI
 10
600118.23
 20
4315652.57
  0
SEQEND
  8
PS1-LI
  0
POLYLINE
  8
PS1-LI
 66
     1
  0
VERTEX
  8
PS1-LI
 10
600118.23
 20
4315652.57
  0
VERTEX
  8
PS1-LI
 10
600119.51
 20
4315652.81
  0
SEQEND
  8
PS1-LI
  0
POLYLINE
  8
PS1-LI
 66
     1
  0
VERTEX
  8
PS1-LI
 10
600119.51
 20
4315652.81
  0
VERTEX
  8
PS1-LI
 10
600124.09
 20
4315653.66
  0
SEQEND
  8
PS1-LI
  0
POLYLINE
  8
PS1-LI
 66
     1
  0
VERTEX
  8
PS1-LI
 10
600108.16
 20
4315646.57
  0
VERTEX
  8
PS1-LI
 10
600107.42
 20
4315650.56
  0
SEQEND
  8
PS1-LI
  0
POLYLINE
  8
PS1-LI
 66
     1
  0
VERTEX
  8
PS1-LI
 10
600107.42
 20
4315650.56
  0
VERTEX
  8
PS1-LI
 10
600107.12
 20
4315652.18
  0
SEQEND
  8
PS1-LI
  0
POLYLINE
  8
PS1-LI
 66
     1
  0
VERTEX
  8
PS1-LI
 10
600107.12
 20
4315652.18
  0
VERTEX
  8
PS1-LI
 10
600108.59
 20
4315652.45
  0
VERTEX
  8
PS1-LI
 10
600108.89
 20
4315650.83
  0
SEQEND
  8
PS1-LI
  0
POLYLINE
  8
PS1-LI
 66
     1
  0
VERTEX
  8
PS1-LI
 10
600102.96
 20
4315657.93
  0
VERTEX
  8
PS1-LI
 10
600105.94
 20
4315658.48
  0
SEQEND
  8
PS1-LI
  0
POLYLINE
  8
PS1-LI
 66
     1
  0
VERTEX
  8
PS1-LI
 10
600105.94
 20
4315658.48
  0
VERTEX
  8
PS1-LI
 10
600106.40
 20
4315658.57
  0
SEQEND
  8
PS1-LI
  0
POLYLINE
  8
PS1-LI
 66
     1
  0
VERTEX
  8
PS1-LI
 10
600106.40
 20
4315658.57
  0
VERTEX
  8
PS1-LI
 10
600106.98
 20
4315655.42
  0
SEQEND
  8
PS1-LI
  0
POLYLINE
  8
PS1-LI
 66
     1
  0
VERTEX
  8
PS1-LI
 10
600106.98
 20
4315655.42
  0
VERTEX
  8
PS1-LI
 10
600106.53
 20
4315655.34
  0
SEQEND
  8
PS1-LI
  0
POLYLINE
  8
PS1-LI
 66
     1
  0
VERTEX
  8
PS1-LI
 10
600106.53
 20
4315655.34
  0
VERTEX
  8
PS1-LI
 10
600103.62
 20
4315654.80
  0
SEQEND
  8
PS1-LI
  0
POLYLINE
  8
PS1-LI
 66
     1
  0
VERTEX
  8
PS1-LI
 10
600106.98
 20
4315655.42
  0
VERTEX
  8
PS1-LI
 10
600117.34
 20
4315657.35
  0
SEQEND
  8
PS1-LI
  0
POLYLINE
  8
PS1-LI
 66
     1
  0
VERTEX
  8
PS1-LI
 10
600117.34
 20
4315657.35
  0
VERTEX
  8
PS1-LI
 10
600118.23
 20
4315652.57
  0
SEQEND
  8
PS1-LI
  0
POLYLINE
  8
PS1-LI
 66
     1
  0
VERTEX
  8
PS1-LI
 10
600105.94
 20
4315658.48
  0
VERTEX
  8
PS1-LI
 10
600105.35
 20
4315661.64
  0
SEQEND
  8
PS1-LI
  0
POLYLINE
  8
PS1-LI
 66
     1
  0
VERTEX
  8
PS1-LI
 10
600105.35
 20
4315661.64
  0
VERTEX
  8
PS1-LI
 10
600105.05
 20
4315663.26
  0
SEQEND
  8
PS1-LI
  0
POLYLINE
  8
PS1-LI
 66
     1
  0
VERTEX
  8
PS1-LI
 10
600105.05
 20
4315663.26
  0
VERTEX
  8
PS1-LI
 10
600102.07
 20
4315662.71
  0
SEQEND
  8
PS1-LI
  0
POLYLINE
  8
PS1-LI
 66
     1
  0
VERTEX
  8
PS1-LI
 10
600121.62
 20
4315641.48
  0
VERTEX
  8
PS1-LI
 10
600120.56
 20
4315647.20
  0
SEQEND
  8
PS1-LI
  0
POLYLINE
  8
PS1-LI
 66
     1
  0
VERTEX
  8
PS1-LI
 10
600120.56
 20
4315647.20
  0
VERTEX
  8
PS1-LI
 10
600119.51
 20
4315652.81
  0
SEQEND
  8
PS1-LI
  0
POLYLINE
  8
PS1-LI
 66
     1
  0
VERTEX
  8
PS1-LI
 10
600107.12
 20
4315652.18
  0
VERTEX
  8
PS1-LI
 10
600106.53
 20
4315655.34
  0
SEQEND
  8
PS1-LI
  0
POLYLINE
  8
PS1-LI
 66
     1
  0
VERTEX
  8
PS1-LI
 10
600105.35
 20
4315661.64
  0
VERTEX
  8
PS1-LI
 10
600106.83
 20
4315661.91
  0
VERTEX
  8
PS1-LI
 10
600106.52
 20
4315663.53
  0
SEQEND
  8
PS1-LI
  0
POLYLINE
  8
PS1-LI
 66
     1
  0
VERTEX
  8
PS1-LI
 10
600106.52
 20
4315663.53
  0
VERTEX
  8
PS1-LI
 10
600105.05
 20
4315663.26
  0
SEQEND
  8
PS1-LI
  0
POLYLINE
  8
PS1-LI
 66
     1
  0
VERTEX
  8
PS1-LI
 10
600105.05
 20
4315663.26
  0
VERTEX
  8
PS1-LI
 10
600104.30
 20
4315667.25
  0
SEQEND
  8
PS1-LI
  0
POLYLINE
  8
PS1-LI
 66
     1
  0
VERTEX
  8
PS1-LI
 10
600104.30
 20
4315667.25
  0
VERTEX
  8
PS1-LI
 10
600104.00
 20
4315668.87
  0
SEQEND
  8
PS1-LI
  0
POLYLINE
  8
PS1-LI
 66
     1
  0
VERTEX
  8
PS1-LI
 10
600104.00
 20
4315668.87
  0
VERTEX
  8
PS1-LI
 10
600101.03
 20
4315668.32
  0
SEQEND
  8
PS1-LI
  0
POLYLINE
  8
PS1-LI
 66
     1
  0
VERTEX
  8
PS1-LI
 10
600106.52
 20
4315663.53
  0
VERTEX
  8
PS1-LI
 10
600115.86
 20
4315665.27
  0
SEQEND
  8
PS1-LI
  0
POLYLINE
  8
PS1-LI
 66
     1
  0
VERTEX
  8
PS1-LI
 10
600115.86
 20
4315665.27
  0
VERTEX
  8
PS1-LI
 10
600117.14
 20
4315665.51
  0
SEQEND
  8
PS1-LI
  0
POLYLINE
  8
PS1-LI
 66
     1
  0
VERTEX
  8
PS1-LI
 10
600117.14
 20
4315665.51
  0
VERTEX
  8
PS1-LI
 10
600121.73
 20
4315666.36
  0
SEQEND
  8
PS1-LI
  0
POLYLINE
  8
PS1-LI
 66
     1
  0
VERTEX
  8
PS1-LI
 10
600104.30
 20
4315667.25
  0
VERTEX
  8
PS1-LI
 10
600105.78
 20
4315667.53
  0
VERTEX
  8
PS1-LI
 10
600105.48
 20
4315669.15
  0
SEQEND
  8
PS1-LI
  0
POLYLINE
  8
PS1-LI
 66
     1
  0
VERTEX
  8
PS1-LI
 10
600105.48
 20
4315669.15
  0
VERTEX
  8
PS1-LI
 10
600105.18
 20
4315670.77
  0
VERTEX
  8
PS1-LI
 10
600103.70
 20
4315670.50
  0
SEQEND
  8
PS1-LI
  0
POLYLINE
  8
PS1-LI
 66
     1
  0
VERTEX
  8
PS1-LI
 10
600103.70
 20
4315670.50
  0
VERTEX
  8
PS1-LI
 10
600104.00
 20
4315668.87
  0
SEQEND
  8
PS1-LI
  0
POLYLINE
  8
PS1-LI
 66
     1
  0
VERTEX
  8
PS1-LI
 10
600104.00
 20
4315668.87
  0
VERTEX
  8
PS1-LI
 10
600105.48
 20
4315669.15
  0
SEQEND
  8
PS1-LI
  0
POLYLINE
  8
PS1-LI
 66
     1
  0
VERTEX
  8
PS1-LI
 10
600105.48
 20
4315669.15
  0
VERTEX
  8
PS1-LI
 10
600116.10
 20
4315671.13
  0
SEQEND
  8
PS1-LI
  0
POLYLINE
  8
PS1-LI
 66
     1
  0
VERTEX
  8
PS1-LI
 10
600116.10
 20
4315671.13
  0
VERTEX
  8
PS1-LI
 10
600120.68
 20
4315671.98
  0
SEQEND
  8
PS1-LI
  0
POLYLINE
  8
PS1-LI
 66
     1
  0
VERTEX
  8
PS1-LI
 10
600106.40
 20
4315658.57
  0
VERTEX
  8
PS1-LI
 10
600116.75
 20
4315660.50
  0
SEQEND
  8
PS1-LI
  0
POLYLINE
  8
PS1-LI
 66
     1
  0
VERTEX
  8
PS1-LI
 10
600116.75
 20
4315660.50
  0
VERTEX
  8
PS1-LI
 10
600115.86
 20
4315665.27
  0
SEQEND
  8
PS1-LI
  0
POLYLINE
  8
PS1-LI
 66
     1
  0
VERTEX
  8
PS1-LI
 10
600114.99
 20
4315677.05
  0
VERTEX
  8
PS1-LI
 10
600116.10
 20
4315671.13
  0
SEQEND
  8
PS1-LI
  0
POLYLINE
  8
PS1-LI
 66
     1
  0
VERTEX
  8
PS1-LI
 10
600116.10
 20
4315671.13
  0
VERTEX
  8
PS1-LI
 10
600117.14
 20
4315665.51
  0
SEQEND
  8
PS1-LI
  0
POLYLINE
  8
PS1-LI
 66
     1
  0
VERTEX
  8
PS1-LI
 10
600103.70
 20
4315670.50
  0
VERTEX
  8
PS1-LI
 10
600102.90
 20
4315674.80
  0
SEQEND
  8
PS1-LI
  0
POLYLINE
  8
PS1-LI
 66
     1
  0
VERTEX
  8
PS1-LI
 10
600117.34
 20
4315657.35
  0
VERTEX
  8
PS1-LI
 10
600117.04
 20
4315658.93
  0
SEQEND
  8
PS1-LI
  0
POLYLINE
  8
PS1-LI
 66
     1
  0
VERTEX
  8
PS1-LI
 10
600117.04
 20
4315658.93
  0
VERTEX
  8
PS1-LI
 10
600116.75
 20
4315660.50
  0
SEQEND
  8
PS1-LI
  0
POLYLINE
  8
PS1-LI
 66
     1
  0
VERTEX
  8
PS1-LI
 10
600122.92
 20
4315660.01
  0
VERTEX
  8
PS1-LI
 10
600117.04
 20
4315658.93
  0
SEQEND
  8
PS1-LI
  0
TEXT
  8
PS2-AS
 10
600105.99
 20
4315672.31
 40
0.39
  1
37
 72
     1
 11
600106.30
 21
4315672.31
 73
     1
  0
TEXT
  8
PS2-AU
 10
600105.52
 20
4315672.31
 40
0.39
  1
AAL.A
 72
     1
 11
600106.30
 21
4315672.31
 73
     3
  0
TEXT
  8
PS2-AS
 10
600107.34
 20
4315666.44
 40
0.39
  1
35
 72
     1
 11
600107.65
 21
4315666.44
 73
     1
  0
TEXT
  8
PS2-AU
 10
600106.86
 20
4315666.44
 40
0.39
  1
AAL.B
 72
     1
 11
600107.65
 21
4315666.44
 73
     3
  0
TEXT
  8
PS2-AS
 10
600108.12
 20
4315661.36
 40
0.39
  1
30
 72
     1
 11
600108.44
 21
4315661.36
 73
     1
  0
TEXT
  8
PS2-AU
 10
600107.65
 20
4315661.36
 40
0.39
  1
AAL.C
 72
     1
 11
600108.44
 21
4315661.36
 73
     3
  0
TEXT
  8
PS2-AS
 10
600109.47
 20
4315653.29
 40
0.39
  1
30
 72
     1
 11
600109.79
 21
4315653.29
 73
     1
  0
TEXT
  8
PS2-AU
 10
600109.00
 20
4315653.29
 40
0.39
  1
AAL.D
 72
     1
 11
600109.79
 21
4315653.29
 73
     3
  0
TEXT
  8
PS2-AS
 10
600110.41
 20
4315648.33
 40
0.39
  1
35
 72
     1
 11
600110.73
 21
4315648.33
 73
     1
  0
TEXT
  8
PS2-AU
 10
600109.94
 20
4315648.33
 40
0.39
  1
AAL.E
 72
     1
 11
600110.73
 21
4315648.33
 73
     3
  0
TEXT
  8
PS2-AS
 10
600111.42
 20
4315642.42
 40
0.39
  1
36
 72
     1
 11
600111.73
 21
4315642.42
 73
     1
  0
TEXT
  8
PS2-AU
 10
600110.94
 20
4315642.42
 40
0.39
  1
AAL.F
 72
     1
 11
600111.73
 21
4315642.42
 73
     3
  0
TEXT
  8
PS2-AS
 10
600111.89
 20
4315673.60
 40
0.39
  1
34
 72
     1
 11
600112.20
 21
4315673.60
 73
     1
  0
TEXT
  8
PS2-AU
 10
600111.41
 20
4315673.60
 40
0.39
  1
AAP.A
 72
     1
 11
600112.20
 21
4315673.60
 73
     3
  0
TEXT
  8
PS2-AS
 10
600112.83
 20
4315667.57
 40
0.39
  1
32
 72
     1
 11
600113.14
 21
4315667.57
 73
     1
  0
TEXT
  8
PS2-AU
 10
600112.35
 20
4315667.57
 40
0.39
  1
AAP.B
 72
     1
 11
600113.14
 21
4315667.57
 73
     3
  0
TEXT
  8
PS2-AS
 10
600113.93
 20
4315662.19
 40
0.39
  1
27
 72
     1
 11
600114.24
 21
4315662.19
 73
     1
  0
TEXT
  8
PS2-AU
 10
600113.45
 20
4315662.19
 40
0.39
  1
AAP.C
 72
     1
 11
600114.24
 21
4315662.19
 73
     3
  0
TEXT
  8
PS2-AS
 10
600115.27
 20
4315654.23
 40
0.39
  1
27
 72
     1
 11
600115.59
 21
4315654.23
 73
     1
  0
TEXT
  8
PS2-AU
 10
600114.80
 20
4315654.23
 40
0.39
  1
AAP.D
 72
     1
 11
600115.59
 21
4315654.23
 73
     3
  0
TEXT
  8
PS2-AS
 10
600116.12
 20
4315649.19
 40
0.39
  1
32
 72
     1
 11
600116.44
 21
4315649.19
 73
     1
  0
TEXT
  8
PS2-AU
 10
600115.65
 20
4315649.19
 40
0.39
  1
AAP.E
 72
     1
 11
600116.44
 21
4315649.19
 73
     3
  0
TEXT
  8
PS2-AS
 10
600117.31
 20
4315643.26
 40
0.39
  1
33
 72
     1
 11
600117.63
 21
4315643.26
 73
     1
  0
TEXT
  8
PS2-AU
 10
600116.84
 20
4315643.26
 40
0.39
  1
AAP.F
 72
     1
 11
600117.63
 21
4315643.26
 73
     3
  0
TEXT
  8
PS2-AS
 10
600119.00
 20
4315659.74
 40
0.39
  1
225
 72
     1
 11
600119.48
 21
4315659.74
 73
     1
  0
TEXT
  8
PS2-AU
 10
600118.69
 20
4315659.74
 40
0.39
  1
ACCES
 72
     1
 11
600119.48
 21
4315659.74
 73
     3
  0
TEXT
  8
PS2-TO
 10
600120.76
 20
4315655.29
 40
0.36
  1
AAP
 72
     1
 11
600121.19
 21
4315655.29
 73
     1
  0
POLYLINE
  8
PS2-LP
 66
     1
  0
VERTEX
  8
PS2-LP
 10
600107.42
 20
4315650.56
  0
VERTEX
  8
PS2-LP
 10
600108.16
 20
4315646.57
  0
VERTEX
  8
PS2-LP
 10
600108.46
 20
4315644.95
  0
SEQEND
  8
PS2-LP
  0
POLYLINE
  8
PS2-LI
 66
     1
  0
VERTEX
  8
PS2-LI
 10
600104.00
 20
4315668.87
  0
VERTEX
  8
PS2-LI
 10
600105.48
 20
4315669.15
  0
VERTEX
  8
PS2-LI
 10
600110.01
 20
4315670.00
  0
SEQEND
  8
PS2-LI
  0
POLYLINE
  8
PS2-LI
 66
     1
  0
VERTEX
  8
PS2-LI
 10
600110.01
 20
4315670.00
  0
VERTEX
  8
PS2-LI
 10
600111.06
 20
4315664.38
  0
SEQEND
  8
PS2-LI
  0
POLYLINE
  8
PS2-LI
 66
     1
  0
VERTEX
  8
PS2-LI
 10
600111.06
 20
4315664.38
  0
VERTEX
  8
PS2-LI
 10
600115.86
 20
4315665.27
  0
VERTEX
  8
PS2-LI
 10
600116.59
 20
4315665.41
  0
SEQEND
  8
PS2-LI
  0
POLYLINE
  8
PS2-LI
 66
     1
  0
VERTEX
  8
PS2-LI
 10
600116.59
 20
4315665.41
  0
VERTEX
  8
PS2-LI
 10
600117.43
 20
4315660.91
  0
VERTEX
  8
PS2-LI
 10
600117.23
 20
4315660.73
  0
VERTEX
  8
PS2-LI
 10
600117.12
 20
4315660.66
  0
VERTEX
  8
PS2-LI
 10
600117.00
 20
4315660.59
  0
VERTEX
  8
PS2-LI
 10
600116.88
 20
4315660.54
  0
VERTEX
  8
PS2-LI
 10
600116.75
 20
4315660.50
  0
VERTEX
  8
PS2-LI
 10
600111.95
 20
4315659.61
  0
SEQEND
  8
PS2-LI
  0
POLYLINE
  8
PS2-LI
 66
     1
  0
VERTEX
  8
PS2-LI
 10
600111.95
 20
4315659.61
  0
VERTEX
  8
PS2-LI
 10
600111.79
 20
4315660.49
  0
VERTEX
  8
PS2-LI
 10
600111.06
 20
4315664.38
  0
SEQEND
  8
PS2-LI
  0
POLYLINE
  8
PS2-LI
 66
     1
  0
VERTEX
  8
PS2-LI
 10
600111.06
 20
4315664.38
  0
VERTEX
  8
PS2-LI
 10
600106.52
 20
4315663.53
  0
VERTEX
  8
PS2-LI
 10
600105.05
 20
4315663.26
  0
SEQEND
  8
PS2-LI
  0
POLYLINE
  8
PS2-LP
 66
     1
  0
VERTEX
  8
PS2-LP
 10
600107.42
 20
4315650.56
  0
VERTEX
  8
PS2-LP
 10
600107.12
 20
4315652.18
  0
VERTEX
  8
PS2-LP
 10
600106.53
 20
4315655.34
  0
VERTEX
  8
PS2-LP
 10
600106.98
 20
4315655.42
  0
SEQEND
  8
PS2-LP
  0
POLYLINE
  8
PS2-LP
 66
     1
  0
VERTEX
  8
PS2-LP
 10
600106.98
 20
4315655.42
  0
VERTEX
  8
PS2-LP
 10
600106.40
 20
4315658.57
  0
SEQEND
  8
PS2-LP
  0
POLYLINE
  8
PS2-LP
 66
     1
  0
VERTEX
  8
PS2-LP
 10
600106.40
 20
4315658.57
  0
VERTEX
  8
PS2-LP
 10
600105.94
 20
4315658.48
  0
VERTEX
  8
PS2-LP
 10
600105.35
 20
4315661.64
  0
VERTEX
  8
PS2-LP
 10
600105.05
 20
4315663.26
  0
SEQEND
  8
PS2-LP
  0
POLYLINE
  8
PS2-LP
 66
     1
  0
VERTEX
  8
PS2-LP
 10
600105.05
 20
4315663.26
  0
VERTEX
  8
PS2-LP
 10
600104.30
 20
4315667.25
  0
VERTEX
  8
PS2-LP
 10
600104.00
 20
4315668.87
  0
SEQEND
  8
PS2-LP
  0
POLYLINE
  8
PS2-LP
 66
     1
  0
VERTEX
  8
PS2-LP
 10
600104.00
 20
4315668.87
  0
VERTEX
  8
PS2-LP
 10
600103.70
 20
4315670.50
  0
VERTEX
  8
PS2-LP
 10
600102.90
 20
4315674.80
  0
SEQEND
  8
PS2-LP
  0
POLYLINE
  8
PS2-LP
 66
     1
  0
VERTEX
  8
PS2-LP
 10
600102.90
 20
4315674.80
  0
VERTEX
  8
PS2-LP
 10
600103.23
 20
4315674.86
  0
VERTEX
  8
PS2-LP
 10
600107.83
 20
4315675.71
  0
VERTEX
  8
PS2-LP
 10
600108.91
 20
4315675.91
  0
SEQEND
  8
PS2-LP
  0
POLYLINE
  8
PS2-LP
 66
     1
  0
VERTEX
  8
PS2-LP
 10
600108.91
 20
4315675.91
  0
VERTEX
  8
PS2-LP
 10
600114.36
 20
4315676.93
  0
VERTEX
  8
PS2-LP
 10
600114.43
 20
4315676.94
  0
SEQEND
  8
PS2-LP
  0
POLYLINE
  8
PS2-LP
 66
     1
  0
VERTEX
  8
PS2-LP
 10
600114.43
 20
4315676.94
  0
VERTEX
  8
PS2-LP
 10
600114.99
 20
4315677.05
  0
VERTEX
  8
PS2-LP
 10
600119.58
 20
4315677.90
  0
VERTEX
  8
PS2-LP
 10
600120.68
 20
4315671.98
  0
VERTEX
  8
PS2-LP
 10
600121.73
 20
4315666.36
  0
VERTEX
  8
PS2-LP
 10
600122.62
 20
4315661.59
  0
VERTEX
  8
PS2-LP
 10
600122.91
 20
4315660.05
  0
VERTEX
  8
PS2-LP
 10
600122.92
 20
4315660.01
  0
VERTEX
  8
PS2-LP
 10
600123.21
 20
4315658.44
  0
VERTEX
  8
PS2-LP
 10
600124.00
 20
4315654.15
  0
VERTEX
  8
PS2-LP
 10
600124.09
 20
4315653.66
  0
VERTEX
  8
PS2-LP
 10
600125.14
 20
4315648.05
  0
VERTEX
  8
PS2-LP
 10
600126.20
 20
4315642.33
  0
VERTEX
  8
PS2-LP
 10
600121.62
 20
4315641.48
  0
VERTEX
  8
PS2-LP
 10
600121.08
 20
4315641.38
  0
SEQEND
  8
PS2-LP
  0
POLYLINE
  8
PS2-LP
 66
     1
  0
VERTEX
  8
PS2-LP
 10
600121.08
 20
4315641.38
  0
VERTEX
  8
PS2-LP
 10
600115.55
 20
4315640.35
  0
SEQEND
  8
PS2-LP
  0
POLYLINE
  8
PS2-LP
 66
     1
  0
VERTEX
  8
PS2-LP
 10
600115.55
 20
4315640.35
  0
VERTEX
  8
PS2-LP
 10
600109.52
 20
4315639.22
  0
SEQEND
  8
PS2-LP
  0
POLYLINE
  8
PS2-LP
 66
     1
  0
VERTEX
  8
PS2-LP
 10
600109.52
 20
4315639.22
  0
VERTEX
  8
PS2-LP
 10
600108.76
 20
4315643.33
  0
VERTEX
  8
PS2-LP
 10
600108.46
 20
4315644.95
  0
SEQEND
  8
PS2-LP
  0
POLYLINE
  8
PS2-LI
 66
     1
  0
VERTEX
  8
PS2-LI
 10
600121.08
 20
4315641.38
  0
VERTEX
  8
PS2-LI
 10
600120.01
 20
4315647.10
  0
SEQEND
  8
PS2-LI
  0
POLYLINE
  8
PS2-LI
 66
     1
  0
VERTEX
  8
PS2-LI
 10
600120.01
 20
4315647.10
  0
VERTEX
  8
PS2-LI
 10
600114.48
 20
4315646.07
  0
SEQEND
  8
PS2-LI
  0
POLYLINE
  8
PS2-LI
 66
     1
  0
VERTEX
  8
PS2-LI
 10
600114.48
 20
4315646.07
  0
VERTEX
  8
PS2-LI
 10
600109.93
 20
4315645.22
  0
VERTEX
  8
PS2-LI
 10
600108.46
 20
4315644.95
  0
SEQEND
  8
PS2-LI
  0
POLYLINE
  8
PS2-LI
 66
     1
  0
VERTEX
  8
PS2-LI
 10
600111.95
 20
4315659.61
  0
VERTEX
  8
PS2-LI
 10
600106.40
 20
4315658.57
  0
SEQEND
  8
PS2-LI
  0
POLYLINE
  8
PS2-LI
 66
     1
  0
VERTEX
  8
PS2-LI
 10
600120.01
 20
4315647.10
  0
VERTEX
  8
PS2-LI
 10
600118.96
 20
4315652.71
  0
SEQEND
  8
PS2-LI
  0
POLYLINE
  8
PS2-LI
 66
     1
  0
VERTEX
  8
PS2-LI
 10
600118.96
 20
4315652.71
  0
VERTEX
  8
PS2-LI
 10
600118.23
 20
4315652.57
  0
VERTEX
  8
PS2-LI
 10
600113.43
 20
4315651.68
  0
SEQEND
  8
PS2-LI
  0
POLYLINE
  8
PS2-LI
 66
     1
  0
VERTEX
  8
PS2-LI
 10
600113.43
 20
4315651.68
  0
VERTEX
  8
PS2-LI
 10
600108.89
 20
4315650.83
  0
VERTEX
  8
PS2-LI
 10
600107.42
 20
4315650.56
  0
SEQEND
  8
PS2-LI
  0
POLYLINE
  8
PS2-LI
 66
     1
  0
VERTEX
  8
PS2-LI
 10
600108.91
 20
4315675.91
  0
VERTEX
  8
PS2-LI
 10
600110.01
 20
4315670.00
  0
SEQEND
  8
PS2-LI
  0
POLYLINE
  8
PS2-LI
 66
     1
  0
VERTEX
  8
PS2-LI
 10
600110.01
 20
4315670.00
  0
VERTEX
  8
PS2-LI
 10
600115.54
 20
4315671.03
  0
SEQEND
  8
PS2-LI
  0
POLYLINE
  8
PS2-LI
 66
     1
  0
VERTEX
  8
PS2-LI
 10
600115.54
 20
4315671.03
  0
VERTEX
  8
PS2-LI
 10
600116.59
 20
4315665.41
  0
SEQEND
  8
PS2-LI
  0
POLYLINE
  8
PS2-LI
 66
     1
  0
VERTEX
  8
PS2-LI
 10
600106.98
 20
4315655.42
  0
VERTEX
  8
PS2-LI
 10
600112.54
 20
4315656.46
  0
SEQEND
  8
PS2-LI
  0
POLYLINE
  8
PS2-LI
 66
     1
  0
VERTEX
  8
PS2-LI
 10
600112.54
 20
4315656.46
  0
VERTEX
  8
PS2-LI
 10
600117.34
 20
4315657.35
  0
VERTEX
  8
PS2-LI
 10
600117.50
 20
4315657.38
  0
VERTEX
  8
PS2-LI
 10
600117.67
 20
4315657.38
  0
VERTEX
  8
PS2-LI
 10
600117.83
 20
4315657.35
  0
VERTEX
  8
PS2-LI
 10
600117.98
 20
4315657.30
  0
VERTEX
  8
PS2-LI
 10
600118.12
 20
4315657.21
  0
VERTEX
  8
PS2-LI
 10
600118.96
 20
4315652.71
  0
SEQEND
  8
PS2-LI
  0
POLYLINE
  8
PS2-LI
 66
     1
  0
VERTEX
  8
PS2-LI
 10
600115.54
 20
4315671.03
  0
VERTEX
  8
PS2-LI
 10
600114.43
 20
4315676.94
  0
SEQEND
  8
PS2-LI
  0
POLYLINE
  8
PS2-LI
 66
     1
  0
VERTEX
  8
PS2-LI
 10
600112.54
 20
4315656.46
  0
VERTEX
  8
PS2-LI
 10
600113.43
 20
4315651.68
  0
SEQEND
  8
PS2-LI
  0
POLYLINE
  8
PS2-LI
 66
     1
  0
VERTEX
  8
PS2-LI
 10
600113.43
 20
4315651.68
  0
VERTEX
  8
PS2-LI
 10
600114.48
 20
4315646.07
  0
SEQEND
  8
PS2-LI
  0
POLYLINE
  8
PS2-LI
 66
     1
  0
VERTEX
  8
PS2-LI
 10
600114.48
 20
4315646.07
  0
VERTEX
  8
PS2-LI
 10
600115.55
 20
4315640.35
  0
SEQEND
  8
PS2-LI
  0
POLYLINE
  8
PS2-LT
 66
     1
  0
VERTEX
  8
PS2-LT
 10
600109.52
 20
4315639.22
  0
VERTEX
  8
PS2-LT
 10
600106.55
 20
4315638.66
  0
VERTEX
  8
PS2-LT
 10
600105.51
 20
4315644.40
  0
VERTEX
  8
PS2-LT
 10
600104.49
 20
4315650.01
  0
VERTEX
  8
PS2-LT
 10
600103.62
 20
4315654.80
  0
VERTEX
  8
PS2-LT
 10
600103.32
 20
4315656.44
  0
VERTEX
  8
PS2-LT
 10
600103.17
 20
4315656.81
  0
VERTEX
  8
PS2-LT
 10
600102.96
 20
4315657.93
  0
VERTEX
  8
PS2-LT
 10
600102.88
 20
4315658.36
  0
VERTEX
  8
PS2-LT
 10
600102.07
 20
4315662.71
  0
VERTEX
  8
PS2-LT
 10
600101.03
 20
4315668.32
  0
VERTEX
  8
PS2-LT
 10
600100.86
 20
4315669.22
  0
VERTEX
  8
PS2-LT
 10
600100.44
 20
4315671.46
  0
VERTEX
  8
PS2-LT
 10
600100.68
 20
4315671.80
  0
VERTEX
  8
PS2-LT
 10
600101.48
 20
4315672.98
  0
VERTEX
  8
PS2-LT
 10
600102.00
 20
4315673.73
  0
VERTEX
  8
PS2-LT
 10
600102.70
 20
4315674.76
  0
VERTEX
  8
PS2-LT
 10
600102.90
 20
4315674.80
  0
SEQEND
  8
PS2-LT
  0
TEXT
  8
PS3-AS
 10
600108.06
 20
4315672.36
 40
0.39
  1
64
 72
     1
 11
600108.37
 21
4315672.36
 73
     1
  0
TEXT
  8
PS3-AU
 10
600107.90
 20
4315672.36
 40
0.39
  1
V.A
 72
     1
 11
600108.37
 21
4315672.36
 73
     3
  0
TEXT
  8
PS3-AS
 10
600109.24
 20
4315666.64
 40
0.39
  1
61
 72
     1
 11
600109.55
 21
4315666.64
 73
     1
  0
TEXT
  8
PS3-AU
 10
600109.08
 20
4315666.64
 40
0.39
  1
V.B
 72
     1
 11
600109.55
 21
4315666.64
 73
     3
  0
TEXT
  8
PS3-AS
 10
600110.69
 20
4315660.52
 40
0.39
  1
69
 72
     1
 11
600111.01
 21
4315660.52
 73
     1
  0
TEXT
  8
PS3-AU
 10
600110.54
 20
4315660.52
 40
0.39
  1
V.C
 72
     1
 11
600111.01
 21
4315660.52
 73
     3
  0
TEXT
  8
PS3-AS
 10
600111.63
 20
4315654.58
 40
0.39
  1
69
 72
     1
 11
600111.94
 21
4315654.58
 73
     1
  0
TEXT
  8
PS3-AU
 10
600111.47
 20
4315654.58
 40
0.39
  1
V.D
 72
     1
 11
600111.94
 21
4315654.58
 73
     3
  0
TEXT
  8
PS3-AS
 10
600112.54
 20
4315648.53
 40
0.39
  1
61
 72
     1
 11
600112.85
 21
4315648.53
 73
     1
  0
TEXT
  8
PS3-AU
 10
600112.38
 20
4315648.53
 40
0.39
  1
V.E
 72
     1
 11
600112.85
 21
4315648.53
 73
     3
  0
TEXT
  8
PS3-AS
 10
600113.96
 20
4315642.80
 40
0.39
  1
62
 72
     1
 11
600114.28
 21
4315642.80
 73
     1
  0
TEXT
  8
PS3-AU
 10
600113.80
 20
4315642.80
 40
0.39
  1
V.F
 72
     1
 11
600114.28
 21
4315642.80
 73
     3
  0
POLYLINE
  8
PS3-LP
 66
     1
  0
VERTEX
  8
PS3-LP
 10
600117.88
 20
4315654.42
  0
VERTEX
  8
PS3-LP
 10
600117.03
 20
4315658.93
  0
SEQEND
  8
PS3-LP
  0
POLYLINE
  8
PS3-LP
 66
     1
  0
VERTEX
  8
PS3-LP
 10
600117.03
 20
4315658.93
  0
VERTEX
  8
PS3-LP
 10
600116.74
 20
4315660.50
  0
VERTEX
  8
PS3-LP
 10
600116.20
 20
4315663.41
  0
SEQEND
  8
PS3-LP
  0
POLYLINE
  8
PS3-LP
 66
     1
  0
VERTEX
  8
PS3-LP
 10
600116.20
 20
4315663.41
  0
VERTEX
  8
PS3-LP
 10
600115.07
 20
4315663.20
  0
VERTEX
  8
PS3-LP
 10
600114.72
 20
4315665.06
  0
SEQEND
  8
PS3-LP
  0
POLYLINE
  8
PS3-LP
 66
     1
  0
VERTEX
  8
PS3-LP
 10
600114.72
 20
4315665.06
  0
VERTEX
  8
PS3-LP
 10
600115.85
 20
4315665.27
  0
SEQEND
  8
PS3-LP
  0
POLYLINE
  8
PS3-LP
 66
     1
  0
VERTEX
  8
PS3-LP
 10
600115.85
 20
4315665.27
  0
VERTEX
  8
PS3-LP
 10
600115.10
 20
4315669.26
  0
VERTEX
  8
PS3-LP
 10
600113.96
 20
4315669.05
  0
VERTEX
  8
PS3-LP
 10
600113.66
 20
4315670.68
  0
SEQEND
  8
PS3-LP
  0
POLYLINE
  8
PS3-LP
 66
     1
  0
VERTEX
  8
PS3-LP
 10
600113.66
 20
4315670.68
  0
VERTEX
  8
PS3-LP
 10
600113.36
 20
4315672.30
  0
VERTEX
  8
PS3-LP
 10
600114.50
 20
4315672.51
  0
VERTEX
  8
PS3-LP
 10
600113.69
 20
4315676.81
  0
SEQEND
  8
PS3-LP
  0
POLYLINE
  8
PS3-LP
 66
     1
  0
VERTEX
  8
PS3-LP
 10
600113.69
 20
4315676.81
  0
VERTEX
  8
PS3-LP
 10
600107.83
 20
4315675.71
  0
VERTEX
  8
PS3-LP
 10
600103.23
 20
4315674.86
  0
VERTEX
  8
PS3-LP
 10
600102.90
 20
4315674.80
  0
VERTEX
  8
PS3-LP
 10
600103.70
 20
4315670.50
  0
VERTEX
  8
PS3-LP
 10
600104.00
 20
4315668.87
  0
SEQEND
  8
PS3-LP
  0
POLYLINE
  8
PS3-LP
 66
     1
  0
VERTEX
  8
PS3-LP
 10
600104.00
 20
4315668.87
  0
VERTEX
  8
PS3-LP
 10
600104.30
 20
4315667.25
  0
VERTEX
  8
PS3-LP
 10
600105.05
 20
4315663.26
  0
SEQEND
  8
PS3-LP
  0
POLYLINE
  8
PS3-LP
 66
     1
  0
VERTEX
  8
PS3-LP
 10
600105.05
 20
4315663.26
  0
VERTEX
  8
PS3-LP
 10
600105.35
 20
4315661.64
  0
VERTEX
  8
PS3-LP
 10
600105.94
 20
4315658.48
  0
VERTEX
  8
PS3-LP
 10
600106.23
 20
4315656.91
  0
SEQEND
  8
PS3-LP
  0
POLYLINE
  8
PS3-LP
 66
     1
  0
VERTEX
  8
PS3-LP
 10
600106.23
 20
4315656.91
  0
VERTEX
  8
PS3-LP
 10
600106.52
 20
4315655.34
  0
VERTEX
  8
PS3-LP
 10
600107.12
 20
4315652.18
  0
VERTEX
  8
PS3-LP
 10
600107.42
 20
4315650.56
  0
SEQEND
  8
PS3-LP
  0
POLYLINE
  8
PS3-LP
 66
     1
  0
VERTEX
  8
PS3-LP
 10
600107.42
 20
4315650.56
  0
VERTEX
  8
PS3-LP
 10
600108.16
 20
4315646.57
  0
VERTEX
  8
PS3-LP
 10
600108.46
 20
4315644.95
  0
SEQEND
  8
PS3-LP
  0
POLYLINE
  8
PS3-LP
 66
     1
  0
VERTEX
  8
PS3-LP
 10
600108.46
 20
4315644.95
  0
VERTEX
  8
PS3-LP
 10
600108.76
 20
4315643.33
  0
VERTEX
  8
PS3-LP
 10
600109.52
 20
4315639.22
  0
VERTEX
  8
PS3-LP
 10
600120.34
 20
4315641.24
  0
SEQEND
  8
PS3-LP
  0
POLYLINE
  8
PS3-LP
 66
     1
  0
VERTEX
  8
PS3-LP
 10
600120.34
 20
4315641.24
  0
VERTEX
  8
PS3-LP
 10
600119.57
 20
4315645.33
  0
VERTEX
  8
PS3-LP
 10
600118.43
 20
4315645.12
  0
VERTEX
  8
PS3-LP
 10
600118.13
 20
4315646.75
  0
SEQEND
  8
PS3-LP
  0
POLYLINE
  8
PS3-LP
 66
     1
  0
VERTEX
  8
PS3-LP
 10
600118.13
 20
4315646.75
  0
VERTEX
  8
PS3-LP
 10
600117.82
 20
4315648.37
  0
VERTEX
  8
PS3-LP
 10
600118.97
 20
4315648.59
  0
VERTEX
  8
PS3-LP
 10
600118.22
 20
4315652.57
  0
SEQEND
  8
PS3-LP
  0
POLYLINE
  8
PS3-LP
 66
     1
  0
VERTEX
  8
PS3-LP
 10
600118.22
 20
4315652.57
  0
VERTEX
  8
PS3-LP
 10
600117.09
 20
4315652.36
  0
SEQEND
  8
PS3-LP
  0
POLYLINE
  8
PS3-LP
 66
     1
  0
VERTEX
  8
PS3-LP
 10
600117.09
 20
4315652.36
  0
VERTEX
  8
PS3-LP
 10
600116.74
 20
4315654.21
  0
VERTEX
  8
PS3-LP
 10
600117.88
 20
4315654.42
  0
SEQEND
  8
PS3-LP
  0
POLYLINE
  8
PS3-LI
 66
     1
  0
VERTEX
  8
PS3-LI
 10
600108.46
 20
4315644.95
  0
VERTEX
  8
PS3-LI
 10
600109.93
 20
4315645.22
  0
VERTEX
  8
PS3-LI
 10
600118.13
 20
4315646.75
  0
SEQEND
  8
PS3-LI
  0
POLYLINE
  8
PS3-LI
 66
     1
  0
VERTEX
  8
PS3-LI
 10
600104.00
 20
4315668.87
  0
VERTEX
  8
PS3-LI
 10
600105.48
 20
4315669.15
  0
VERTEX
  8
PS3-LI
 10
600113.66
 20
4315670.68
  0
SEQEND
  8
PS3-LI
  0
POLYLINE
  8
PS3-LI
 66
     1
  0
VERTEX
  8
PS3-LI
 10
600117.03
 20
4315658.93
  0
VERTEX
  8
PS3-LI
 10
600106.23
 20
4315656.91
  0
SEQEND
  8
PS3-LI
  0
POLYLINE
  8
PS3-LI
 66
     1
  0
VERTEX
  8
PS3-LI
 10
600107.42
 20
4315650.56
  0
VERTEX
  8
PS3-LI
 10
600108.89
 20
4315650.83
  0
VERTEX
  8
PS3-LI
 10
600117.09
 20
4315652.36
  0
SEQEND
  8
PS3-LI
  0
POLYLINE
  8
PS3-LI
 66
     1
  0
VERTEX
  8
PS3-LI
 10
600114.72
 20
4315665.06
  0
VERTEX
  8
PS3-LI
 10
600106.52
 20
4315663.53
  0
VERTEX
  8
PS3-LI
 10
600105.05
 20
4315663.26
  0
SEQEND
  8
PS3-LI
  0
POLYLINE
  8
PS3-LT
 66
     1
  0
VERTEX
  8
PS3-LT
 10
600116.20
 20
4315663.41
  0
VERTEX
  8
PS3-LT
 10
600115.85
 20
4315665.27
  0
SEQEND
  8
PS3-LT
  0
POLYLINE
  8
PS3-LT
 66
     1
  0
VERTEX
  8
PS3-LT
 10
600115.85
 20
4315665.27
  0
VERTEX
  8
PS3-LT
 10
600117.14
 20
4315665.51
  0
VERTEX
  8
PS3-LT
 10
600116.10
 20
4315671.13
  0
SEQEND
  8
PS3-LT
  0
POLYLINE
  8
PS3-LT
 66
     1
  0
VERTEX
  8
PS3-LT
 10
600116.10
 20
4315671.13
  0
VERTEX
  8
PS3-LT
 10
600113.66
 20
4315670.68
  0
SEQEND
  8
PS3-LT
  0
POLYLINE
  8
PS3-LT
 66
     1
  0
VERTEX
  8
PS3-LT
 10
600118.13
 20
4315646.75
  0
VERTEX
  8
PS3-LT
 10
600120.56
 20
4315647.20
  0
SEQEND
  8
PS3-LT
  0
POLYLINE
  8
PS3-LT
 66
     1
  0
VERTEX
  8
PS3-LT
 10
600120.56
 20
4315647.20
  0
VERTEX
  8
PS3-LT
 10
600119.51
 20
4315652.81
  0
VERTEX
  8
PS3-LT
 10
600118.22
 20
4315652.57
  0
SEQEND
  8
PS3-LT
  0
POLYLINE
  8
PS3-LT
 66
     1
  0
VERTEX
  8
PS3-LT
 10
600118.22
 20
4315652.57
  0
VERTEX
  8
PS3-LT
 10
600117.88
 20
4315654.42
  0
SEQEND
  8
PS3-LT
  0
POLYLINE
  8
PS3-LT
 66
     1
  0
VERTEX
  8
PS3-LT
 10
600120.34
 20
4315641.24
  0
VERTEX
  8
PS3-LT
 10
600121.62
 20
4315641.48
  0
VERTEX
  8
PS3-LT
 10
600120.56
 20
4315647.20
  0
SEQEND
  8
PS3-LT
  0
POLYLINE
  8
PS3-LT
 66
     1
  0
VERTEX
  8
PS3-LT
 10
600113.69
 20
4315676.81
  0
VERTEX
  8
PS3-LT
 10
600114.36
 20
4315676.93
  0
VERTEX
  8
PS3-LT
 10
600114.99
 20
4315677.05
  0
VERTEX
  8
PS3-LT
 10
600116.10
 20
4315671.13
  0
SEQEND
  8
PS3-LT
  0
TEXT
  8
PS4-AS
 10
600113.96
 20
4315642.80
 40
0.39
  1
20
 72
     1
 11
600114.28
 21
4315642.80
 73
     1
  0
TEXT
  8
PS4-AU
 10
600113.80
 20
4315642.80
 40
0.39
  1
V.F
 72
     1
 11
600114.28
 21
4315642.80
 73
     3
  0
TEXT
  8
PS4-AS
 10
600108.57
 20
4315673.57
 40
0.39
  1
20
 72
     1
 11
600108.89
 21
4315673.57
 73
     1
  0
TEXT
  8
PS4-AU
 10
600108.42
 20
4315673.57
 40
0.39
  1
V.A
 72
     1
 11
600108.89
 21
4315673.57
 73
     3
  0
TEXT
  8
PS4-AS
 10
600109.85
 20
4315666.93
 40
0.39
  1
19
 72
     1
 11
600110.16
 21
4315666.93
 73
     1
  0
TEXT
  8
PS4-AU
 10
600109.69
 20
4315666.93
 40
0.39
  1
V.B
 72
     1
 11
600110.16
 21
4315666.93
 73
     3
  0
TEXT
  8
PS4-AS
 10
600111.09
 20
4315660.55
 40
0.39
  1
22
 72
     1
 11
600111.41
 21
4315660.55
 73
     1
  0
TEXT
  8
PS4-AU
 10
600110.93
 20
4315660.55
 40
0.39
  1
V.C
 72
     1
 11
600111.41
 21
4315660.55
 73
     3
  0
TEXT
  8
PS4-AS
 10
600112.19
 20
4315655.02
 40
0.39
  1
22
 72
     1
 11
600112.50
 21
4315655.02
 73
     1
  0
TEXT
  8
PS4-AU
 10
600112.03
 20
4315655.02
 40
0.39
  1
V.D
 72
     1
 11
600112.50
 21
4315655.02
 73
     3
  0
TEXT
  8
PS4-AS
 10
600113.00
 20
4315648.81
 40
0.39
  1
19
 72
     1
 11
600113.31
 21
4315648.81
 73
     1
  0
TEXT
  8
PS4-AU
 10
600112.84
 20
4315648.81
 40
0.39
  1
V.E
 72
     1
 11
600113.31
 21
4315648.81
 73
     3
  0
POLYLINE
  8
PS4-LP
 66
     1
  0
VERTEX
  8
PS4-LP
 10
600110.19
 20
4315676.15
  0
VERTEX
  8
PS4-LP
 10
600107.83
 20
4315675.71
  0
VERTEX
  8
PS4-LP
 10
600106.75
 20
4315675.51
  0
SEQEND
  8
PS4-LP
  0
POLYLINE
  8
PS4-LP
 66
     1
  0
VERTEX
  8
PS4-LP
 10
600106.75
 20
4315675.51
  0
VERTEX
  8
PS4-LP
 10
600107.54
 20
4315671.24
  0
VERTEX
  8
PS4-LP
 10
600107.72
 20
4315671.27
  0
VERTEX
  8
PS4-LP
 10
600108.03
 20
4315669.62
  0
SEQEND
  8
PS4-LP
  0
POLYLINE
  8
PS4-LP
 66
     1
  0
VERTEX
  8
PS4-LP
 10
600108.03
 20
4315669.62
  0
VERTEX
  8
PS4-LP
 10
600108.34
 20
4315667.98
  0
VERTEX
  8
PS4-LP
 10
600108.16
 20
4315667.95
  0
VERTEX
  8
PS4-LP
 10
600108.90
 20
4315663.97
  0
SEQEND
  8
PS4-LP
  0
POLYLINE
  8
PS4-LP
 66
     1
  0
VERTEX
  8
PS4-LP
 10
600108.90
 20
4315663.97
  0
VERTEX
  8
PS4-LP
 10
600109.07
 20
4315664.00
  0
SEQEND
  8
PS4-LP
  0
POLYLINE
  8
PS4-LP
 66
     1
  0
VERTEX
  8
PS4-LP
 10
600109.07
 20
4315664.00
  0
VERTEX
  8
PS4-LP
 10
600109.38
 20
4315662.36
  0
VERTEX
  8
PS4-LP
 10
600109.21
 20
4315662.33
  0
VERTEX
  8
PS4-LP
 10
600110.08
 20
4315657.63
  0
SEQEND
  8
PS4-LP
  0
POLYLINE
  8
PS4-LP
 66
     1
  0
VERTEX
  8
PS4-LP
 10
600110.08
 20
4315657.63
  0
VERTEX
  8
PS4-LP
 10
600110.95
 20
4315652.92
  0
VERTEX
  8
PS4-LP
 10
600111.14
 20
4315652.95
  0
VERTEX
  8
PS4-LP
 10
600111.44
 20
4315651.30
  0
SEQEND
  8
PS4-LP
  0
POLYLINE
  8
PS4-LP
 66
     1
  0
VERTEX
  8
PS4-LP
 10
600111.44
 20
4315651.30
  0
VERTEX
  8
PS4-LP
 10
600111.26
 20
4315651.27
  0
SEQEND
  8
PS4-LP
  0
POLYLINE
  8
PS4-LP
 66
     1
  0
VERTEX
  8
PS4-LP
 10
600111.26
 20
4315651.27
  0
VERTEX
  8
PS4-LP
 10
600112.00
 20
4315647.31
  0
VERTEX
  8
PS4-LP
 10
600112.18
 20
4315647.34
  0
VERTEX
  8
PS4-LP
 10
600112.45
 20
4315645.89
  0
VERTEX
  8
PS4-LP
 10
600112.49
 20
4315645.69
  0
SEQEND
  8
PS4-LP
  0
POLYLINE
  8
PS4-LP
 66
     1
  0
VERTEX
  8
PS4-LP
 10
600112.49
 20
4315645.69
  0
VERTEX
  8
PS4-LP
 10
600112.79
 20
4315644.05
  0
VERTEX
  8
PS4-LP
 10
600112.62
 20
4315644.02
  0
VERTEX
  8
PS4-LP
 10
600113.22
 20
4315640.77
  0
VERTEX
  8
PS4-LP
 10
600113.38
 20
4315639.94
  0
SEQEND
  8
PS4-LP
  0
POLYLINE
  8
PS4-LP
 66
     1
  0
VERTEX
  8
PS4-LP
 10
600113.38
 20
4315639.94
  0
VERTEX
  8
PS4-LP
 10
600116.80
 20
4315640.58
  0
SEQEND
  8
PS4-LP
  0
POLYLINE
  8
PS4-LP
 66
     1
  0
VERTEX
  8
PS4-LP
 10
600116.80
 20
4315640.58
  0
VERTEX
  8
PS4-LP
 10
600116.05
 20
4315644.65
  0
VERTEX
  8
PS4-LP
 10
600115.87
 20
4315644.62
  0
VERTEX
  8
PS4-LP
 10
600115.74
 20
4315645.29
  0
VERTEX
  8
PS4-LP
 10
600115.56
 20
4315646.27
  0
SEQEND
  8
PS4-LP
  0
POLYLINE
  8
PS4-LP
 66
     1
  0
VERTEX
  8
PS4-LP
 10
600115.56
 20
4315646.27
  0
VERTEX
  8
PS4-LP
 10
600115.25
 20
4315647.92
  0
VERTEX
  8
PS4-LP
 10
600115.43
 20
4315647.95
  0
VERTEX
  8
PS4-LP
 10
600114.70
 20
4315651.91
  0
SEQEND
  8
PS4-LP
  0
POLYLINE
  8
PS4-LP
 66
     1
  0
VERTEX
  8
PS4-LP
 10
600114.70
 20
4315651.91
  0
VERTEX
  8
PS4-LP
 10
600114.52
 20
4315651.88
  0
SEQEND
  8
PS4-LP
  0
POLYLINE
  8
PS4-LP
 66
     1
  0
VERTEX
  8
PS4-LP
 10
600114.52
 20
4315651.88
  0
VERTEX
  8
PS4-LP
 10
600114.21
 20
4315653.53
  0
VERTEX
  8
PS4-LP
 10
600114.39
 20
4315653.56
  0
VERTEX
  8
PS4-LP
 10
600113.52
 20
4315658.27
  0
SEQEND
  8
PS4-LP
  0
POLYLINE
  8
PS4-LP
 66
     1
  0
VERTEX
  8
PS4-LP
 10
600113.52
 20
4315658.27
  0
VERTEX
  8
PS4-LP
 10
600112.65
 20
4315662.97
  0
VERTEX
  8
PS4-LP
 10
600112.46
 20
4315662.94
  0
VERTEX
  8
PS4-LP
 10
600112.16
 20
4315664.59
  0
SEQEND
  8
PS4-LP
  0
POLYLINE
  8
PS4-LP
 66
     1
  0
VERTEX
  8
PS4-LP
 10
600112.16
 20
4315664.59
  0
VERTEX
  8
PS4-LP
 10
600112.34
 20
4315664.62
  0
SEQEND
  8
PS4-LP
  0
POLYLINE
  8
PS4-LP
 66
     1
  0
VERTEX
  8
PS4-LP
 10
600112.34
 20
4315664.62
  0
VERTEX
  8
PS4-LP
 10
600111.60
 20
4315668.59
  0
VERTEX
  8
PS4-LP
 10
600111.42
 20
4315668.56
  0
VERTEX
  8
PS4-LP
 10
600111.12
 20
4315670.21
  0
SEQEND
  8
PS4-LP
  0
POLYLINE
  8
PS4-LP
 66
     1
  0
VERTEX
  8
PS4-LP
 10
600111.12
 20
4315670.21
  0
VERTEX
  8
PS4-LP
 10
600110.81
 20
4315671.85
  0
VERTEX
  8
PS4-LP
 10
600110.98
 20
4315671.88
  0
VERTEX
  8
PS4-LP
 10
600110.19
 20
4315676.15
  0
SEQEND
  8
PS4-LP
  0
POLYLINE
  8
PS4-LI
 66
     1
  0
VERTEX
  8
PS4-LI
 10
600110.08
 20
4315657.63
  0
VERTEX
  8
PS4-LI
 10
600113.52
 20
4315658.27
  0
SEQEND
  8
PS4-LI
  0
POLYLINE
  8
PS4-LI
 66
     1
  0
VERTEX
  8
PS4-LI
 10
600112.16
 20
4315664.59
  0
VERTEX
  8
PS4-LI
 10
600109.07
 20
4315664.00
  0
SEQEND
  8
PS4-LI
  0
POLYLINE
  8
PS4-LI
 66
     1
  0
VERTEX
  8
PS4-LI
 10
600112.49
 20
4315645.69
  0
VERTEX
  8
PS4-LI
 10
600115.56
 20
4315646.27
  0
SEQEND
  8
PS4-LI
  0
POLYLINE
  8
PS4-LI
 66
     1
  0
VERTEX
  8
PS4-LI
 10
600111.44
 20
4315651.30
  0
VERTEX
  8
PS4-LI
 10
600114.52
 20
4315651.88
  0
SEQEND
  8
PS4-LI
  0
POLYLINE
  8
PS4-LI
 66
     1
  0
VERTEX
  8
PS4-LI
 10
600111.12
 20
4315670.21
  0
VERTEX
  8
PS4-LI
 10
600108.03
 20
4315669.62
  0
SEQEND
  8
PS4-LI
  0
POLYLINE
  8
PS4-LT
 66
     1
  0
VERTEX
  8
PS4-LT
 10
600116.80
 20
4315640.58
  0
VERTEX
  8
PS4-LT
 10
600120.34
 20
4315641.24
  0
VERTEX
  8
PS4-LT
 10
600119.57
 20
4315645.33
  0
VERTEX
  8
PS4-LT
 10
600118.43
 20
4315645.12
  0
VERTEX
  8
PS4-LT
 10
600118.13
 20
4315646.75
  0
SEQEND
  8
PS4-LT
  0
POLYLINE
  8
PS4-LT
 66
     1
  0
VERTEX
  8
PS4-LT
 10
600118.13
 20
4315646.75
  0
VERTEX
  8
PS4-LT
 10
600117.82
 20
4315648.37
  0
VERTEX
  8
PS4-LT
 10
600118.97
 20
4315648.59
  0
VERTEX
  8
PS4-LT
 10
600118.22
 20
4315652.57
  0
VERTEX
  8
PS4-LT
 10
600117.09
 20
4315652.36
  0
SEQEND
  8
PS4-LT
  0
POLYLINE
  8
PS4-LT
 66
     1
  0
VERTEX
  8
PS4-LT
 10
600117.09
 20
4315652.36
  0
VERTEX
  8
PS4-LT
 10
600116.74
 20
4315654.21
  0
VERTEX
  8
PS4-LT
 10
600117.88
 20
4315654.42
  0
VERTEX
  8
PS4-LT
 10
600117.03
 20
4315658.93
  0
SEQEND
  8
PS4-LT
  0
POLYLINE
  8
PS4-LT
 66
     1
  0
VERTEX
  8
PS4-LT
 10
600117.03
 20
4315658.93
  0
VERTEX
  8
PS4-LT
 10
600116.74
 20
4315660.50
  0
VERTEX
  8
PS4-LT
 10
600116.20
 20
4315663.41
  0
VERTEX
  8
PS4-LT
 10
600115.07
 20
4315663.20
  0
VERTEX
  8
PS4-LT
 10
600114.72
 20
4315665.06
  0
SEQEND
  8
PS4-LT
  0
POLYLINE
  8
PS4-LT
 66
     1
  0
VERTEX
  8
PS4-LT
 10
600114.72
 20
4315665.06
  0
VERTEX
  8
PS4-LT
 10
600115.85
 20
4315665.27
  0
VERTEX
  8
PS4-LT
 10
600115.10
 20
4315669.26
  0
VERTEX
  8
PS4-LT
 10
600113.96
 20
4315669.05
  0
VERTEX
  8
PS4-LT
 10
600113.66
 20
4315670.68
  0
SEQEND
  8
PS4-LT
  0
POLYLINE
  8
PS4-LT
 66
     1
  0
VERTEX
  8
PS4-LT
 10
600113.66
 20
4315670.68
  0
VERTEX
  8
PS4-LT
 10
600113.36
 20
4315672.30
  0
VERTEX
  8
PS4-LT
 10
600114.50
 20
4315672.51
  0
VERTEX
  8
PS4-LT
 10
600113.69
 20
4315676.81
  0
VERTEX
  8
PS4-LT
 10
600110.19
 20
4315676.15
  0
SEQEND
  8
PS4-LT
  0
POLYLINE
  8
PS4-LT
 66
     1
  0
VERTEX
  8
PS4-LT
 10
600113.38
 20
4315639.94
  0
VERTEX
  8
PS4-LT
 10
600109.52
 20
4315639.22
  0
VERTEX
  8
PS4-LT
 10
600108.76
 20
4315643.33
  0
VERTEX
  8
PS4-LT
 10
600108.46
 20
4315644.95
  0
SEQEND
  8
PS4-LT
  0
POLYLINE
  8
PS4-LT
 66
     1
  0
VERTEX
  8
PS4-LT
 10
600108.46
 20
4315644.95
  0
VERTEX
  8
PS4-LT
 10
600108.16
 20
4315646.57
  0
VERTEX
  8
PS4-LT
 10
600107.42
 20
4315650.56
  0
SEQEND
  8
PS4-LT
  0
POLYLINE
  8
PS4-LT
 66
     1
  0
VERTEX
  8
PS4-LT
 10
600107.42
 20
4315650.56
  0
VERTEX
  8
PS4-LT
 10
600107.12
 20
4315652.18
  0
VERTEX
  8
PS4-LT
 10
600106.52
 20
4315655.34
  0
VERTEX
  8
PS4-LT
 10
600106.23
 20
4315656.91
  0
SEQEND
  8
PS4-LT
  0
POLYLINE
  8
PS4-LT
 66
     1
  0
VERTEX
  8
PS4-LT
 10
600106.23
 20
4315656.91
  0
VERTEX
  8
PS4-LT
 10
600105.94
 20
4315658.48
  0
VERTEX
  8
PS4-LT
 10
600105.35
 20
4315661.64
  0
VERTEX
  8
PS4-LT
 10
600105.05
 20
4315663.26
  0
SEQEND
  8
PS4-LT
  0
POLYLINE
  8
PS4-LT
 66
     1
  0
VERTEX
  8
PS4-LT
 10
600105.05
 20
4315663.26
  0
VERTEX
  8
PS4-LT
 10
600104.30
 20
4315667.25
  0
VERTEX
  8
PS4-LT
 10
600104.00
 20
4315668.87
  0
SEQEND
  8
PS4-LT
  0
POLYLINE
  8
PS4-LT
 66
     1
  0
VERTEX
  8
PS4-LT
 10
600104.00
 20
4315668.87
  0
VERTEX
  8
PS4-LT
 10
600103.70
 20
4315670.50
  0
VERTEX
  8
PS4-LT
 10
600102.90
 20
4315674.80
  0
VERTEX
  8
PS4-LT
 10
600103.23
 20
4315674.86
  0
VERTEX
  8
PS4-LT
 10
600106.75
 20
4315675.51
  0
SEQEND
  8
PS4-LT
  0
POLYLINE
  8
PS4-LT
 66
     1
  0
VERTEX
  8
PS4-LT
 10
600112.49
 20
4315645.69
  0
VERTEX
  8
PS4-LT
 10
600112.31
 20
4315645.66
  0
VERTEX
  8
PS4-LT
 10
600109.93
 20
4315645.22
  0
VERTEX
  8
PS4-LT
 10
600108.46
 20
4315644.95
  0
SEQEND
  8
PS4-LT
  0
POLYLINE
  8
PS4-LT
 66
     1
  0
VERTEX
  8
PS4-LT
 10
600111.26
 20
4315651.27
  0
VERTEX
  8
PS4-LT
 10
600108.89
 20
4315650.83
  0
VERTEX
  8
PS4-LT
 10
600107.42
 20
4315650.56
  0
SEQEND
  8
PS4-LT
  0
POLYLINE
  8
PS4-LT
 66
     1
  0
VERTEX
  8
PS4-LT
 10
600117.03
 20
4315658.93
  0
VERTEX
  8
PS4-LT
 10
600113.52
 20
4315658.27
  0
SEQEND
  8
PS4-LT
  0
POLYLINE
  8
PS4-LT
 66
     1
  0
VERTEX
  8
PS4-LT
 10
600110.08
 20
4315657.63
  0
VERTEX
  8
PS4-LT
 10
600106.23
 20
4315656.91
  0
SEQEND
  8
PS4-LT
  0
POLYLINE
  8
PS4-LT
 66
     1
  0
VERTEX
  8
PS4-LT
 10
600115.56
 20
4315646.27
  0
VERTEX
  8
PS4-LT
 10
600115.74
 20
4315646.30
  0
VERTEX
  8
PS4-LT
 10
600118.13
 20
4315646.75
  0
SEQEND
  8
PS4-LT
  0
POLYLINE
  8
PS4-LT
 66
     1
  0
VERTEX
  8
PS4-LT
 10
600112.34
 20
4315664.62
  0
VERTEX
  8
PS4-LT
 10
600114.72
 20
4315665.06
  0
SEQEND
  8
PS4-LT
  0
POLYLINE
  8
PS4-LT
 66
     1
  0
VERTEX
  8
PS4-LT
 10
600114.70
 20
4315651.91
  0
VERTEX
  8
PS4-LT
 10
600117.09
 20
4315652.36
  0
SEQEND
  8
PS4-LT
  0
POLYLINE
  8
PS4-LT
 66
     1
  0
VERTEX
  8
PS4-LT
 10
600104.00
 20
4315668.87
  0
VERTEX
  8
PS4-LT
 10
600105.48
 20
4315669.15
  0
VERTEX
  8
PS4-LT
 10
600107.85
 20
4315669.59
  0
VERTEX
  8
PS4-LT
 10
600108.03
 20
4315669.62
  0
SEQEND
  8
PS4-LT
  0
POLYLINE
  8
PS4-LT
 66
     1
  0
VERTEX
  8
PS4-LT
 10
600108.90
 20
4315663.97
  0
VERTEX
  8
PS4-LT
 10
600106.52
 20
4315663.53
  0
VERTEX
  8
PS4-LT
 10
600105.05
 20
4315663.26
  0
SEQEND
  8
PS4-LT
  0
POLYLINE
  8
PS4-LT
 66
     1
  0
VERTEX
  8
PS4-LT
 10
600111.12
 20
4315670.21
  0
VERTEX
  8
PS4-LT
 10
600111.29
 20
4315670.24
  0
VERTEX
  8
PS4-LT
 10
600113.66
 20
4315670.68
  0
SEQEND
  8
PS4-LT
  0
TEXT
  8
PG-AS
 10
600101.87
 20
4315671.71
 40
0.39
  1
14
 72
     1
 11
600102.19
 21
4315671.71
 73
     1
  0
TEXT
  8
PG-AA
 10
600102.03
 20
4315671.71
 40
0.39
  1
P
 72
     1
 11
600102.19
 21
4315671.71
 73
     3
  0
TEXT
  8
PG-AS
 10
600102.75
 20
4315665.63
 40
0.39
  1
17
 72
     1
 11
600103.07
 21
4315665.63
 73
     1
  0
TEXT
  8
PG-AA
 10
600102.91
 20
4315665.63
 40
0.39
  1
P
 72
     1
 11
600103.07
 21
4315665.63
 73
     3
  0
TEXT
  8
PG-AS
 10
600103.72
 20
4315660.13
 40
0.39
  1
15
 72
     1
 11
600104.04
 21
4315660.13
 73
     1
  0
TEXT
  8
PG-AA
 10
600103.88
 20
4315660.13
 40
0.39
  1
P
 72
     1
 11
600104.04
 21
4315660.13
 73
     3
  0
TEXT
  8
PG-AS
 10
600104.51
 20
4315656.52
 40
0.39
  1
10
 72
     1
 11
600104.83
 21
4315656.52
 73
     1
  0
TEXT
  8
PG-AA
 10
600104.67
 20
4315656.52
 40
0.39
  1
P
 72
     1
 11
600104.83
 21
4315656.52
 73
     3
  0
TEXT
  8
PG-AS
 10
600104.95
 20
4315653.09
 40
0.39
  1
14
 72
     1
 11
600105.27
 21
4315653.09
 73
     1
  0
TEXT
  8
PG-AA
 10
600105.11
 20
4315653.09
 40
0.39
  1
P
 72
     1
 11
600105.27
 21
4315653.09
 73
     3
  0
TEXT
  8
PG-AS
 10
600106.14
 20
4315647.99
 40
0.39
  1
17
 72
     1
 11
600106.46
 21
4315647.99
 73
     1
  0
TEXT
  8
PG-AA
 10
600106.30
 20
4315647.99
 40
0.39
  1
P
 72
     1
 11
600106.46
 21
4315647.99
 73
     3
  0
TEXT
  8
PG-AS
 10
600107.15
 20
4315641.33
 40
0.39
  1
18
 72
     1
 11
600107.47
 21
4315641.33
 73
     1
  0
TEXT
  8
PG-AA
 10
600107.31
 20
4315641.33
 40
0.39
  1
P
 72
     1
 11
600107.47
 21
4315641.33
 73
     3
  0
TEXT
  8
PG-AS
 10
600117.72
 20
4315674.82
 40
0.39
  1
28
 72
     1
 11
600118.04
 21
4315674.82
 73
     1
  0
TEXT
  8
PG-AA
 10
600117.72
 20
4315674.82
 40
0.39
  1
SS
 72
     1
 11
600118.04
 21
4315674.82
 73
     3
  0
TEXT
  8
PG-AS
 10
600118.91
 20
4315669.14
 40
0.39
  1
27
 72
     1
 11
600119.23
 21
4315669.14
 73
     1
  0
TEXT
  8
PG-AA
 10
600118.91
 20
4315669.14
 40
0.39
  1
SS
 72
     1
 11
600119.23
 21
4315669.14
 73
     3
  0
TEXT
  8
PG-AS
 10
600119.79
 20
4315662.49
 40
0.39
  1
39
 72
     1
 11
600120.11
 21
4315662.49
 73
     1
  0
TEXT
  8
PG-AA
 10
600119.79
 20
4315662.49
 40
0.39
  1
SS
 72
     1
 11
600120.11
 21
4315662.49
 73
     3
  0
TEXT
  8
PG-AS
 10
600121.20
 20
4315656.58
 40
0.39
  1
39
 72
     1
 11
600121.51
 21
4315656.58
 73
     1
  0
TEXT
  8
PG-AA
 10
600121.20
 20
4315656.58
 40
0.39
  1
SS
 72
     1
 11
600121.51
 21
4315656.58
 73
     3
  0
TEXT
  8
PG-AS
 10
600122.12
 20
4315650.17
 40
0.39
  1
27
 72
     1
 11
600122.44
 21
4315650.17
 73
     1
  0
TEXT
  8
PG-AA
 10
600122.12
 20
4315650.17
 40
0.39
  1
SS
 72
     1
 11
600122.44
 21
4315650.17
 73
     3
  0
TEXT
  8
PG-AS
 10
600123.40
 20
4315644.61
 40
0.39
  1
27
 72
     1
 11
600123.71
 21
4315644.61
 73
     1
  0
TEXT
  8
PG-AA
 10
600123.40
 20
4315644.61
 40
0.39
  1
SS
 72
     1
 11
600123.71
 21
4315644.61
 73
     3
  0
TEXT
  8
PG-AS
 10
600109.12
 20
4315644.17
 40
0.39
  1
2
 72
     1
 11
600109.28
 21
4315644.17
 73
     1
  0
TEXT
  8
PG-AA
 10
600108.02
 20
4315644.17
 40
0.39
  1
SS+POR+I
 72
     1
 11
600109.28
 21
4315644.17
 73
     3
  0
TEXT
  8
PG-AS
 10
600108.86
 20
4315645.93
 40
0.39
  1
2
 72
     1
 11
600109.02
 21
4315645.93
 73
     1
  0
TEXT
  8
PG-AA
 10
600107.76
 20
4315645.93
 40
0.39
  1
SS+POR+I
 72
     1
 11
600109.02
 21
4315645.93
 73
     3
  0
TEXT
  8
PG-AS
 10
600107.89
 20
4315651.43
 40
0.39
  1
2
 72
     1
 11
600108.05
 21
4315651.43
 73
     1
  0
TEXT
  8
PG-AA
 10
600106.79
 20
4315651.43
 40
0.39
  1
SS+POR+I
 72
     1
 11
600108.05
 21
4315651.43
 73
     3
  0
TEXT
  8
PG-AS
 10
600105.78
 20
4315662.54
 40
0.39
  1
2
 72
     1
 11
600105.94
 21
4315662.54
 73
     1
  0
TEXT
  8
PG-AA
 10
600104.68
 20
4315662.54
 40
0.39
  1
SS+POR+I
 72
     1
 11
600105.94
 21
4315662.54
 73
     3
  0
TEXT
  8
PG-AS
 10
600104.72
 20
4315668.09
 40
0.39
  1
2
 72
     1
 11
600104.88
 21
4315668.09
 73
     1
  0
TEXT
  8
PG-AA
 10
600103.62
 20
4315668.09
 40
0.39
  1
SS+POR+I
 72
     1
 11
600104.88
 21
4315668.09
 73
     3
  0
TEXT
  8
PG-AS
 10
600104.37
 20
4315669.85
 40
0.39
  1
2
 72
     1
 11
600104.53
 21
4315669.85
 73
     1
  0
TEXT
  8
PG-AA
 10
600103.27
 20
4315669.85
 40
0.39
  1
SS+POR+I
 72
     1
 11
600104.53
 21
4315669.85
 73
     3
  0
TEXT
  8
PG-AS
 10
600114.35
 20
4315675.26
 40
0.39
  1
10
 72
     1
 11
600114.67
 21
4315675.26
 73
     1
  0
TEXT
  8
PG-AA
 10
600114.04
 20
4315675.26
 40
0.39
  1
SS+I
 72
     1
 11
600114.67
 21
4315675.26
 73
     3
  0
TEXT
  8
PG-AS
 10
600116.01
 20
4315667.25
 40
0.39
  1
9
 72
     1
 11
600116.16
 21
4315667.25
 73
     1
  0
TEXT
  8
PG-AA
 10
600115.53
 20
4315667.25
 40
0.39
  1
SS+I
 72
     1
 11
600116.16
 21
4315667.25
 73
     3
  0
TEXT
  8
PG-AS
 10
600115.35
 20
4315664.26
 40
0.39
  1
2
 72
     1
 11
600115.50
 21
4315664.26
 73
     1
  0
TEXT
  8
PG-AA
 10
600114.87
 20
4315664.26
 40
0.39
  1
SS+I
 72
     1
 11
600115.50
 21
4315664.26
 73
     3
  0
TEXT
  8
PG-AS
 10
600117.33
 20
4315653.36
 40
0.39
  1
2
 72
     1
 11
600117.48
 21
4315653.36
 73
     1
  0
TEXT
  8
PG-AA
 10
600116.85
 20
4315653.36
 40
0.39
  1
SS+I
 72
     1
 11
600117.48
 21
4315653.36
 73
     3
  0
TEXT
  8
PG-AS
 10
600119.13
 20
4315650.23
 40
0.39
  1
9
 72
     1
 11
600119.29
 21
4315650.23
 73
     1
  0
TEXT
  8
PG-AA
 10
600118.66
 20
4315650.23
 40
0.39
  1
SS+I
 72
     1
 11
600119.29
 21
4315650.23
 73
     3
  0
TEXT
  8
PG-AS
 10
600120.16
 20
4315644.00
 40
0.39
  1
10
 72
     1
 11
600120.48
 21
4315644.00
 73
     1
  0
TEXT
  8
PG-AA
 10
600119.85
 20
4315644.00
 40
0.39
  1
SS+I
 72
     1
 11
600120.48
 21
4315644.00
 73
     3
  0
TEXT
  8
PG-AS
 10
600111.01
 20
4315641.45
 40
0.39
  1
21
 72
     1
 11
600111.32
 21
4315641.45
 73
     1
  0
TEXT
  8
PG-AA
 10
600110.54
 20
4315641.45
 40
0.39
  1
SS+II
 72
     1
 11
600111.32
 21
4315641.45
 73
     3
  0
TEXT
  8
PG-AS
 10
600109.73
 20
4315648.97
 40
0.39
  1
20
 72
     1
 11
600110.05
 21
4315648.97
 73
     1
  0
TEXT
  8
PG-AA
 10
600109.26
 20
4315648.97
 40
0.39
  1
SS+II
 72
     1
 11
600110.05
 21
4315648.97
 73
     3
  0
TEXT
  8
PG-AS
 10
600108.41
 20
4315653.99
 40
0.39
  1
23
 72
     1
 11
600108.73
 21
4315653.99
 73
     1
  0
TEXT
  8
PG-AA
 10
600107.94
 20
4315653.99
 40
0.39
  1
SS+II
 72
     1
 11
600108.73
 21
4315653.99
 73
     3
  0
TEXT
  8
PG-AS
 10
600107.31
 20
4315659.95
 40
0.39
  1
23
 72
     1
 11
600107.63
 21
4315659.95
 73
     1
  0
TEXT
  8
PG-AA
 10
600106.84
 20
4315659.95
 40
0.39
  1
SS+II
 72
     1
 11
600107.63
 21
4315659.95
 73
     3
  0
TEXT
  8
PG-AS
 10
600114.27
 20
4315661.18
 40
0.39
  1
21
 72
     1
 11
600114.58
 21
4315661.18
 73
     1
  0
TEXT
  8
PG-AA
 10
600113.79
 20
4315661.18
 40
0.39
  1
SS+II
 72
     1
 11
600114.58
 21
4315661.18
 73
     3
  0
TEXT
  8
PG-AS
 10
600115.37
 20
4315656.69
 40
0.39
  1
21
 72
     1
 11
600115.68
 21
4315656.69
 73
     1
  0
TEXT
  8
PG-AA
 10
600114.89
 20
4315656.69
 40
0.39
  1
SS+II
 72
     1
 11
600115.68
 21
4315656.69
 73
     3
  0
TEXT
  8
PG-AS
 10
600106.43
 20
4315665.56
 40
0.39
  1
20
 72
     1
 11
600106.75
 21
4315665.56
 73
     1
  0
TEXT
  8
PG-AA
 10
600105.96
 20
4315665.56
 40
0.39
  1
SS+II
 72
     1
 11
600106.75
 21
4315665.56
 73
     3
  0
TEXT
  8
PG-AS
 10
600104.89
 20
4315673.40
 40
0.39
  1
21
 72
     1
 11
600105.21
 21
4315673.40
 73
     1
  0
TEXT
  8
PG-AA
 10
600104.42
 20
4315673.40
 40
0.39
  1
SS+II
 72
     1
 11
600105.21
 21
4315673.40
 73
     3
  0
TEXT
  8
PG-AS
 10
600111.71
 20
4315674.80
 40
0.39
  1
20
 72
     1
 11
600112.03
 21
4315674.80
 73
     1
  0
TEXT
  8
PG-AA
 10
600111.24
 20
4315674.80
 40
0.39
  1
SS+II
 72
     1
 11
600112.03
 21
4315674.80
 73
     3
  0
TEXT
  8
PG-AS
 10
600113.03
 20
4315667.10
 40
0.39
  1
19
 72
     1
 11
600113.35
 21
4315667.10
 73
     1
  0
TEXT
  8
PG-AA
 10
600112.56
 20
4315667.10
 40
0.39
  1
SS+II
 72
     1
 11
600113.35
 21
4315667.10
 73
     3
  0
TEXT
  8
PG-AS
 10
600108.85
 20
4315671.94
 40
0.39
  1
20
 72
     1
 11
600109.17
 21
4315671.94
 73
     1
  0
TEXT
  8
PG-AA
 10
600108.22
 20
4315671.94
 40
0.39
  1
SS+III
 72
     1
 11
600109.17
 21
4315671.94
 73
     3
  0
TEXT
  8
PG-AS
 10
600109.60
 20
4315667.54
 40
0.39
  1
19
 72
     1
 11
600109.92
 21
4315667.54
 73
     1
  0
TEXT
  8
PG-AA
 10
600108.97
 20
4315667.54
 40
0.39
  1
SS+III
 72
     1
 11
600109.92
 21
4315667.54
 73
     3
  0
TEXT
  8
PG-AS
 10
600110.92
 20
4315661.82
 40
0.39
  1
22
 72
     1
 11
600111.24
 21
4315661.82
 73
     1
  0
TEXT
  8
PG-AA
 10
600110.29
 20
4315661.82
 40
0.39
  1
SS+III
 72
     1
 11
600111.24
 21
4315661.82
 73
     3
  0
TEXT
  8
PG-AS
 10
600112.15
 20
4315653.56
 40
0.39
  1
22
 72
     1
 11
600112.47
 21
4315653.56
 73
     1
  0
TEXT
  8
PG-AA
 10
600111.52
 20
4315653.56
 40
0.39
  1
SS+III
 72
     1
 11
600112.47
 21
4315653.56
 73
     3
  0
TEXT
  8
PG-AS
 10
600113.25
 20
4315647.64
 40
0.39
  1
19
 72
     1
 11
600113.57
 21
4315647.64
 73
     1
  0
TEXT
  8
PG-AA
 10
600112.62
 20
4315647.64
 40
0.39
  1
SS+III
 72
     1
 11
600113.57
 21
4315647.64
 73
     3
  0
TEXT
  8
PG-AS
 10
600113.91
 20
4315643.75
 40
0.39
  1
20
 72
     1
 11
600114.23
 21
4315643.75
 73
     1
  0
TEXT
  8
PG-AA
 10
600113.28
 20
4315643.75
 40
0.39
  1
SS+III
 72
     1
 11
600114.23
 21
4315643.75
 73
     3
  0
TEXT
  8
PG-AS
 10
600116.20
 20
4315650.14
 40
0.39
  1
19
 72
     1
 11
600116.52
 21
4315650.14
 73
     1
  0
TEXT
  8
PG-AA
 10
600115.73
 20
4315650.14
 40
0.39
  1
SS+II
 72
     1
 11
600116.52
 21
4315650.14
 73
     3
  0
TEXT
  8
PG-AS
 10
600117.65
 20
4315642.34
 40
0.39
  1
19
 72
     1
 11
600117.97
 21
4315642.34
 73
     1
  0
TEXT
  8
PG-AA
 10
600117.18
 20
4315642.34
 40
0.39
  1
SS+II
 72
     1
 11
600117.97
 21
4315642.34
 73
     3
  0
TEXT
  8
PG-CO
 10
600110.07
 20
4315678.17
 40
0.36
  1
17.17
 50
10.54
 72
     1
 11
600110.77
 21
4315678.30
 73
     3
  0
LINE
  8
PG-CO
 10
600102.33
 20
4315676.73
 11
600119.21
 21
4315679.87
  0
TEXT
  8
PG-CO
 10
600099.60
 20
4315673.77
 40
0.36
  1
4.00
 50
55.59
 72
     1
 11
600099.92
 21
4315674.24
 73
     3
  0
LINE
  8
PG-CO
 10
600098.79
 20
4315672.59
 11
600101.05
 21
4315675.89
  0
TEXT
  8
PG-CO
 10
600101.40
 20
4315655.39
 40
0.36
  1
33.36
 50
280.55
 72
     1
 11
600101.53
 21
4315654.69
 73
     3
  0
LINE
  8
PG-CO
 10
600098.47
 20
4315671.09
 11
600104.58
 21
4315638.29
  0
TEXT
  8
PG-CO
 10
600116.04
 20
4315638.40
 40
0.36
  1
19.99
 50
10.58
 72
     1
 11
600116.74
 21
4315638.53
 73
     3
  0
LINE
  8
PG-CO
 10
600106.92
 20
4315636.69
 11
600126.57
 21
4315640.36
  0
TEXT
  8
PG-CO
 10
600124.73
 20
4315661.18
 40
0.36
  1
36.18
 50
280.54
 72
     1
 11
600124.86
 21
4315660.48
 73
     3
  0
LINE
  8
PG-CO
 10
600121.55
 20
4315678.27
 11
600128.17
 21
4315642.70
  0
LINE
  8
PG-LF
 10
600100.93
 20
4315654.50
 11
600099.95
 21
4315654.32
  0
TEXT
  8
PG-TL
 10
600097.65
 20
4315659.84
 40
0.57
  1
AV DR JOSE MARIA SANCHEZ 1
 50
280.55
 72
     1
 11
600098.72
 21
4315654.09
 73
     1
  0
POLYLINE
  8
PG-LP
 66
     1
  0
VERTEX
  8
PG-LP
 10
600102.90
 20
4315674.80
  0
VERTEX
  8
PG-LP
 10
600102.70
 20
4315674.76
  0
VERTEX
  8
PG-LP
 10
600102.00
 20
4315673.73
  0
VERTEX
  8
PG-LP
 10
600101.48
 20
4315672.98
  0
VERTEX
  8
PG-LP
 10
600100.68
 20
4315671.80
  0
VERTEX
  8
PG-LP
 10
600100.44
 20
4315671.46
  0
VERTEX
  8
PG-LP
 10
600100.86
 20
4315669.22
  0
VERTEX
  8
PG-LP
 10
600101.03
 20
4315668.32
  0
SEQEND
  8
PG-LP
  0
POLYLINE
  8
PG-LP
 66
     1
  0
VERTEX
  8
PG-LP
 10
600101.03
 20
4315668.32
  0
VERTEX
  8
PG-LP
 10
600102.07
 20
4315662.71
  0
SEQEND
  8
PG-LP
  0
POLYLINE
  8
PG-LP
 66
     1
  0
VERTEX
  8
PG-LP
 10
600102.07
 20
4315662.71
  0
VERTEX
  8
PG-LP
 10
600102.88
 20
4315658.36
  0
VERTEX
  8
PG-LP
 10
600102.96
 20
4315657.93
  0
SEQEND
  8
PG-LP
  0
POLYLINE
  8
PG-LP
 66
     1
  0
VERTEX
  8
PG-LP
 10
600102.96
 20
4315657.93
  0
VERTEX
  8
PG-LP
 10
600103.17
 20
4315656.81
  0
VERTEX
  8
PG-LP
 10
600103.32
 20
4315656.44
  0
VERTEX
  8
PG-LP
 10
600103.62
 20
4315654.80
  0
SEQEND
  8
PG-LP
  0
POLYLINE
  8
PG-LP
 66
     1
  0
VERTEX
  8
PG-LP
 10
600103.62
 20
4315654.80
  0
VERTEX
  8
PG-LP
 10
600104.49
 20
4315650.01
  0
SEQEND
  8
PG-LP
  0
POLYLINE
  8
PG-LP
 66
     1
  0
VERTEX
  8
PG-LP
 10
600104.49
 20
4315650.01
  0
VERTEX
  8
PG-LP
 10
600105.51
 20
4315644.40
  0
SEQEND
  8
PG-LP
  0
POLYLINE
  8
PG-LP
 66
     1
  0
VERTEX
  8
PG-LP
 10
600105.51
 20
4315644.40
  0
VERTEX
  8
PG-LP
 10
600106.55
 20
4315638.66
  0
VERTEX
  8
PG-LP
 10
600109.52
 20
4315639.22
  0
SEQEND
  8
PG-LP
  0
POLYLINE
  8
PG-LP
 66
     1
  0
VERTEX
  8
PG-LP
 10
600109.52
 20
4315639.22
  0
VERTEX
  8
PG-LP
 10
600113.38
 20
4315639.94
  0
SEQEND
  8
PG-LP
  0
POLYLINE
  8
PG-LP
 66
     1
  0
VERTEX
  8
PG-LP
 10
600113.38
 20
4315639.94
  0
VERTEX
  8
PG-LP
 10
600116.80
 20
4315640.58
  0
SEQEND
  8
PG-LP
  0
POLYLINE
  8
PG-LP
 66
     1
  0
VERTEX
  8
PG-LP
 10
600116.80
 20
4315640.58
  0
VERTEX
  8
PG-LP
 10
600120.34
 20
4315641.24
  0
SEQEND
  8
PG-LP
  0
POLYLINE
  8
PG-LP
 66
     1
  0
VERTEX
  8
PG-LP
 10
600120.34
 20
4315641.24
  0
VERTEX
  8
PG-LP
 10
600121.62
 20
4315641.48
  0
SEQEND
  8
PG-LP
  0
POLYLINE
  8
PG-LP
 66
     1
  0
VERTEX
  8
PG-LP
 10
600121.62
 20
4315641.48
  0
VERTEX
  8
PG-LP
 10
600126.20
 20
4315642.33
  0
VERTEX
  8
PG-LP
 10
600125.14
 20
4315648.05
  0
SEQEND
  8
PG-LP
  0
POLYLINE
  8
PG-LP
 66
     1
  0
VERTEX
  8
PG-LP
 10
600125.14
 20
4315648.05
  0
VERTEX
  8
PG-LP
 10
600124.09
 20
4315653.66
  0
SEQEND
  8
PG-LP
  0
POLYLINE
  8
PG-LP
 66
     1
  0
VERTEX
  8
PG-LP
 10
600124.09
 20
4315653.66
  0
VERTEX
  8
PG-LP
 10
600124.00
 20
4315654.15
  0
VERTEX
  8
PG-LP
 10
600123.21
 20
4315658.44
  0
VERTEX
  8
PG-LP
 10
600122.92
 20
4315660.01
  0
SEQEND
  8
PG-LP
  0
POLYLINE
  8
PG-LP
 66
     1
  0
VERTEX
  8
PG-LP
 10
600122.92
 20
4315660.01
  0
VERTEX
  8
PG-LP
 10
600122.91
 20
4315660.05
  0
VERTEX
  8
PG-LP
 10
600122.62
 20
4315661.59
  0
VERTEX
  8
PG-LP
 10
600121.73
 20
4315666.36
  0
SEQEND
  8
PG-LP
  0
POLYLINE
  8
PG-LP
 66
     1
  0
VERTEX
  8
PG-LP
 10
600121.73
 20
4315666.36
  0
VERTEX
  8
PG-LP
 10
600120.68
 20
4315671.98
  0
SEQEND
  8
PG-LP
  0
POLYLINE
  8
PG-LP
 66
     1
  0
VERTEX
  8
PG-LP
 10
600120.68
 20
4315671.98
  0
VERTEX
  8
PG-LP
 10
600119.58
 20
4315677.90
  0
VERTEX
  8
PG-LP
 10
600114.99
 20
4315677.05
  0
SEQEND
  8
PG-LP
  0
POLYLINE
  8
PG-LP
 66
     1
  0
VERTEX
  8
PG-LP
 10
600114.99
 20
4315677.05
  0
VERTEX
  8
PG-LP
 10
600114.36
 20
4315676.93
  0
VERTEX
  8
PG-LP
 10
600113.69
 20
4315676.80
  0
SEQEND
  8
PG-LP
  0
POLYLINE
  8
PG-LP
 66
     1
  0
VERTEX
  8
PG-LP
 10
600113.69
 20
4315676.80
  0
VERTEX
  8
PG-LP
 10
600110.19
 20
4315676.15
  0
SEQEND
  8
PG-LP
  0
POLYLINE
  8
PG-LP
 66
     1
  0
VERTEX
  8
PG-LP
 10
600110.19
 20
4315676.15
  0
VERTEX
  8
PG-LP
 10
600107.83
 20
4315675.71
  0
VERTEX
  8
PG-LP
 10
600106.75
 20
4315675.51
  0
SEQEND
  8
PG-LP
  0
POLYLINE
  8
PG-LP
 66
     1
  0
VERTEX
  8
PG-LP
 10
600106.75
 20
4315675.51
  0
VERTEX
  8
PG-LP
 10
600103.23
 20
4315674.86
  0
VERTEX
  8
PG-LP
 10
600102.90
 20
4315674.80
  0
SEQEND
  8
PG-LP
  0
POLYLINE
  8
PG-LI
 66
     1
  0
VERTEX
  8
PG-LI
 10
600102.96
 20
4315657.93
  0
VERTEX
  8
PG-LI
 10
600105.94
 20
4315658.48
  0
SEQEND
  8
PG-LI
  0
POLYLINE
  8
PG-LI
 66
     1
  0
VERTEX
  8
PG-LI
 10
600105.94
 20
4315658.48
  0
VERTEX
  8
PG-LI
 10
600105.35
 20
4315661.64
  0
SEQEND
  8
PG-LI
  0
POLYLINE
  8
PG-LI
 66
     1
  0
VERTEX
  8
PG-LI
 10
600105.35
 20
4315661.64
  0
VERTEX
  8
PG-LI
 10
600106.83
 20
4315661.91
  0
VERTEX
  8
PG-LI
 10
600106.52
 20
4315663.53
  0
SEQEND
  8
PG-LI
  0
POLYLINE
  8
PG-LI
 66
     1
  0
VERTEX
  8
PG-LI
 10
600106.52
 20
4315663.53
  0
VERTEX
  8
PG-LI
 10
600108.90
 20
4315663.97
  0
SEQEND
  8
PG-LI
  0
POLYLINE
  8
PG-LI
 66
     1
  0
VERTEX
  8
PG-LI
 10
600108.90
 20
4315663.97
  0
VERTEX
  8
PG-LI
 10
600109.07
 20
4315664.00
  0
SEQEND
  8
PG-LI
  0
POLYLINE
  8
PG-LI
 66
     1
  0
VERTEX
  8
PG-LI
 10
600109.07
 20
4315664.00
  0
VERTEX
  8
PG-LI
 10
600112.16
 20
4315664.58
  0
SEQEND
  8
PG-LI
  0
POLYLINE
  8
PG-LI
 66
     1
  0
VERTEX
  8
PG-LI
 10
600112.16
 20
4315664.58
  0
VERTEX
  8
PG-LI
 10
600112.34
 20
4315664.61
  0
SEQEND
  8
PG-LI
  0
POLYLINE
  8
PG-LI
 66
     1
  0
VERTEX
  8
PG-LI
 10
600112.34
 20
4315664.61
  0
VERTEX
  8
PG-LI
 10
600114.72
 20
4315665.06
  0
SEQEND
  8
PG-LI
  0
POLYLINE
  8
PG-LI
 66
     1
  0
VERTEX
  8
PG-LI
 10
600114.72
 20
4315665.06
  0
VERTEX
  8
PG-LI
 10
600115.86
 20
4315665.27
  0
SEQEND
  8
PG-LI
  0
POLYLINE
  8
PG-LI
 66
     1
  0
VERTEX
  8
PG-LI
 10
600115.86
 20
4315665.27
  0
VERTEX
  8
PG-LI
 10
600116.21
 20
4315663.41
  0
SEQEND
  8
PG-LI
  0
POLYLINE
  8
PG-LI
 66
     1
  0
VERTEX
  8
PG-LI
 10
600116.21
 20
4315663.41
  0
VERTEX
  8
PG-LI
 10
600116.75
 20
4315660.50
  0
VERTEX
  8
PG-LI
 10
600117.04
 20
4315658.93
  0
SEQEND
  8
PG-LI
  0
POLYLINE
  8
PG-LI
 66
     1
  0
VERTEX
  8
PG-LI
 10
600117.04
 20
4315658.93
  0
VERTEX
  8
PG-LI
 10
600122.92
 20
4315660.01
  0
SEQEND
  8
PG-LI
  0
POLYLINE
  8
PG-LI
 66
     1
  0
VERTEX
  8
PG-LI
 10
600113.69
 20
4315676.80
  0
VERTEX
  8
PG-LI
 10
600114.50
 20
4315672.51
  0
VERTEX
  8
PG-LI
 10
600113.36
 20
4315672.30
  0
VERTEX
  8
PG-LI
 10
600113.66
 20
4315670.68
  0
SEQEND
  8
PG-LI
  0
POLYLINE
  8
PG-LI
 66
     1
  0
VERTEX
  8
PG-LI
 10
600113.66
 20
4315670.68
  0
VERTEX
  8
PG-LI
 10
600113.96
 20
4315669.05
  0
VERTEX
  8
PG-LI
 10
600115.10
 20
4315669.26
  0
VERTEX
  8
PG-LI
 10
600115.86
 20
4315665.27
  0
SEQEND
  8
PG-LI
  0
POLYLINE
  8
PG-LI
 66
     1
  0
VERTEX
  8
PG-LI
 10
600115.86
 20
4315665.27
  0
VERTEX
  8
PG-LI
 10
600117.14
 20
4315665.51
  0
SEQEND
  8
PG-LI
  0
POLYLINE
  8
PG-LI
 66
     1
  0
VERTEX
  8
PG-LI
 10
600117.14
 20
4315665.51
  0
VERTEX
  8
PG-LI
 10
600116.10
 20
4315671.13
  0
SEQEND
  8
PG-LI
  0
POLYLINE
  8
PG-LI
 66
     1
  0
VERTEX
  8
PG-LI
 10
600116.10
 20
4315671.13
  0
VERTEX
  8
PG-LI
 10
600113.66
 20
4315670.68
  0
SEQEND
  8
PG-LI
  0
POLYLINE
  8
PG-LI
 66
     1
  0
VERTEX
  8
PG-LI
 10
600113.66
 20
4315670.68
  0
VERTEX
  8
PG-LI
 10
600111.12
 20
4315670.20
  0
SEQEND
  8
PG-LI
  0
POLYLINE
  8
PG-LI
 66
     1
  0
VERTEX
  8
PG-LI
 10
600111.12
 20
4315670.20
  0
VERTEX
  8
PG-LI
 10
600108.03
 20
4315669.63
  0
SEQEND
  8
PG-LI
  0
POLYLINE
  8
PG-LI
 66
     1
  0
VERTEX
  8
PG-LI
 10
600108.03
 20
4315669.63
  0
VERTEX
  8
PG-LI
 10
600105.48
 20
4315669.15
  0
SEQEND
  8
PG-LI
  0
POLYLINE
  8
PG-LI
 66
     1
  0
VERTEX
  8
PG-LI
 10
600105.48
 20
4315669.15
  0
VERTEX
  8
PG-LI
 10
600105.78
 20
4315667.53
  0
VERTEX
  8
PG-LI
 10
600104.30
 20
4315667.25
  0
SEQEND
  8
PG-LI
  0
POLYLINE
  8
PG-LI
 66
     1
  0
VERTEX
  8
PG-LI
 10
600104.30
 20
4315667.25
  0
VERTEX
  8
PG-LI
 10
600105.05
 20
4315663.26
  0
SEQEND
  8
PG-LI
  0
POLYLINE
  8
PG-LI
 66
     1
  0
VERTEX
  8
PG-LI
 10
600105.05
 20
4315663.26
  0
VERTEX
  8
PG-LI
 10
600106.52
 20
4315663.53
  0
SEQEND
  8
PG-LI
  0
POLYLINE
  8
PG-LI
 66
     1
  0
VERTEX
  8
PG-LI
 10
600104.30
 20
4315667.25
  0
VERTEX
  8
PG-LI
 10
600104.00
 20
4315668.87
  0
SEQEND
  8
PG-LI
  0
POLYLINE
  8
PG-LI
 66
     1
  0
VERTEX
  8
PG-LI
 10
600104.00
 20
4315668.87
  0
VERTEX
  8
PG-LI
 10
600103.70
 20
4315670.50
  0
SEQEND
  8
PG-LI
  0
POLYLINE
  8
PG-LI
 66
     1
  0
VERTEX
  8
PG-LI
 10
600103.70
 20
4315670.50
  0
VERTEX
  8
PG-LI
 10
600102.90
 20
4315674.80
  0
SEQEND
  8
PG-LI
  0
POLYLINE
  8
PG-LI
 66
     1
  0
VERTEX
  8
PG-LI
 10
600114.99
 20
4315677.05
  0
VERTEX
  8
PG-LI
 10
600116.10
 20
4315671.13
  0
SEQEND
  8
PG-LI
  0
POLYLINE
  8
PG-LI
 66
     1
  0
VERTEX
  8
PG-LI
 10
600116.10
 20
4315671.13
  0
VERTEX
  8
PG-LI
 10
600120.68
 20
4315671.98
  0
SEQEND
  8
PG-LI
  0
POLYLINE
  8
PG-LI
 66
     1
  0
VERTEX
  8
PG-LI
 10
600103.70
 20
4315670.50
  0
VERTEX
  8
PG-LI
 10
600105.18
 20
4315670.77
  0
VERTEX
  8
PG-LI
 10
600105.48
 20
4315669.15
  0
SEQEND
  8
PG-LI
  0
POLYLINE
  8
PG-LI
 66
     1
  0
VERTEX
  8
PG-LI
 10
600105.48
 20
4315669.15
  0
VERTEX
  8
PG-LI
 10
600104.00
 20
4315668.87
  0
SEQEND
  8
PG-LI
  0
POLYLINE
  8
PG-LI
 66
     1
  0
VERTEX
  8
PG-LI
 10
600104.00
 20
4315668.87
  0
VERTEX
  8
PG-LI
 10
600101.03
 20
4315668.32
  0
SEQEND
  8
PG-LI
  0
POLYLINE
  8
PG-LI
 66
     1
  0
VERTEX
  8
PG-LI
 10
600105.94
 20
4315658.48
  0
VERTEX
  8
PG-LI
 10
600106.23
 20
4315656.91
  0
SEQEND
  8
PG-LI
  0
POLYLINE
  8
PG-LI
 66
     1
  0
VERTEX
  8
PG-LI
 10
600106.23
 20
4315656.91
  0
VERTEX
  8
PG-LI
 10
600106.53
 20
4315655.34
  0
SEQEND
  8
PG-LI
  0
POLYLINE
  8
PG-LI
 66
     1
  0
VERTEX
  8
PG-LI
 10
600106.53
 20
4315655.34
  0
VERTEX
  8
PG-LI
 10
600107.12
 20
4315652.18
  0
SEQEND
  8
PG-LI
  0
POLYLINE
  8
PG-LI
 66
     1
  0
VERTEX
  8
PG-LI
 10
600107.12
 20
4315652.18
  0
VERTEX
  8
PG-LI
 10
600107.42
 20
4315650.56
  0
SEQEND
  8
PG-LI
  0
POLYLINE
  8
PG-LI
 66
     1
  0
VERTEX
  8
PG-LI
 10
600107.42
 20
4315650.56
  0
VERTEX
  8
PG-LI
 10
600104.49
 20
4315650.01
  0
SEQEND
  8
PG-LI
  0
POLYLINE
  8
PG-LI
 66
     1
  0
VERTEX
  8
PG-LI
 10
600102.07
 20
4315662.71
  0
VERTEX
  8
PG-LI
 10
600105.05
 20
4315663.26
  0
SEQEND
  8
PG-LI
  0
POLYLINE
  8
PG-LI
 66
     1
  0
VERTEX
  8
PG-LI
 10
600105.05
 20
4315663.26
  0
VERTEX
  8
PG-LI
 10
600105.35
 20
4315661.64
  0
SEQEND
  8
PG-LI
  0
POLYLINE
  8
PG-LI
 66
     1
  0
VERTEX
  8
PG-LI
 10
600117.14
 20
4315665.51
  0
VERTEX
  8
PG-LI
 10
600121.73
 20
4315666.36
  0
SEQEND
  8
PG-LI
  0
POLYLINE
  8
PG-LI
 66
     1
  0
VERTEX
  8
PG-LI
 10
600120.34
 20
4315641.24
  0
VERTEX
  8
PG-LI
 10
600119.57
 20
4315645.33
  0
VERTEX
  8
PG-LI
 10
600118.43
 20
4315645.12
  0
VERTEX
  8
PG-LI
 10
600118.13
 20
4315646.75
  0
SEQEND
  8
PG-LI
  0
POLYLINE
  8
PG-LI
 66
     1
  0
VERTEX
  8
PG-LI
 10
600118.13
 20
4315646.75
  0
VERTEX
  8
PG-LI
 10
600117.82
 20
4315648.37
  0
VERTEX
  8
PG-LI
 10
600118.97
 20
4315648.59
  0
VERTEX
  8
PG-LI
 10
600118.23
 20
4315652.57
  0
SEQEND
  8
PG-LI
  0
POLYLINE
  8
PG-LI
 66
     1
  0
VERTEX
  8
PG-LI
 10
600118.23
 20
4315652.57
  0
VERTEX
  8
PG-LI
 10
600119.51
 20
4315652.81
  0
SEQEND
  8
PG-LI
  0
POLYLINE
  8
PG-LI
 66
     1
  0
VERTEX
  8
PG-LI
 10
600119.51
 20
4315652.81
  0
VERTEX
  8
PG-LI
 10
600120.56
 20
4315647.20
  0
SEQEND
  8
PG-LI
  0
POLYLINE
  8
PG-LI
 66
     1
  0
VERTEX
  8
PG-LI
 10
600120.56
 20
4315647.20
  0
VERTEX
  8
PG-LI
 10
600118.13
 20
4315646.75
  0
SEQEND
  8
PG-LI
  0
POLYLINE
  8
PG-LI
 66
     1
  0
VERTEX
  8
PG-LI
 10
600118.13
 20
4315646.75
  0
VERTEX
  8
PG-LI
 10
600115.56
 20
4315646.27
  0
SEQEND
  8
PG-LI
  0
POLYLINE
  8
PG-LI
 66
     1
  0
VERTEX
  8
PG-LI
 10
600115.56
 20
4315646.27
  0
VERTEX
  8
PG-LI
 10
600112.49
 20
4315645.70
  0
SEQEND
  8
PG-LI
  0
POLYLINE
  8
PG-LI
 66
     1
  0
VERTEX
  8
PG-LI
 10
600112.49
 20
4315645.70
  0
VERTEX
  8
PG-LI
 10
600109.93
 20
4315645.22
  0
SEQEND
  8
PG-LI
  0
POLYLINE
  8
PG-LI
 66
     1
  0
VERTEX
  8
PG-LI
 10
600109.93
 20
4315645.22
  0
VERTEX
  8
PG-LI
 10
600108.46
 20
4315644.95
  0
SEQEND
  8
PG-LI
  0
POLYLINE
  8
PG-LI
 66
     1
  0
VERTEX
  8
PG-LI
 10
600108.46
 20
4315644.95
  0
VERTEX
  8
PG-LI
 10
600108.16
 20
4315646.57
  0
SEQEND
  8
PG-LI
  0
POLYLINE
  8
PG-LI
 66
     1
  0
VERTEX
  8
PG-LI
 10
600108.16
 20
4315646.57
  0
VERTEX
  8
PG-LI
 10
600107.42
 20
4315650.56
  0
SEQEND
  8
PG-LI
  0
POLYLINE
  8
PG-LI
 66
     1
  0
VERTEX
  8
PG-LI
 10
600107.42
 20
4315650.56
  0
VERTEX
  8
PG-LI
 10
600108.89
 20
4315650.83
  0
SEQEND
  8
PG-LI
  0
POLYLINE
  8
PG-LI
 66
     1
  0
VERTEX
  8
PG-LI
 10
600108.89
 20
4315650.83
  0
VERTEX
  8
PG-LI
 10
600111.26
 20
4315651.27
  0
SEQEND
  8
PG-LI
  0
POLYLINE
  8
PG-LI
 66
     1
  0
VERTEX
  8
PG-LI
 10
600111.26
 20
4315651.27
  0
VERTEX
  8
PG-LI
 10
600111.44
 20
4315651.30
  0
SEQEND
  8
PG-LI
  0
POLYLINE
  8
PG-LI
 66
     1
  0
VERTEX
  8
PG-LI
 10
600111.44
 20
4315651.30
  0
VERTEX
  8
PG-LI
 10
600114.52
 20
4315651.88
  0
SEQEND
  8
PG-LI
  0
POLYLINE
  8
PG-LI
 66
     1
  0
VERTEX
  8
PG-LI
 10
600114.52
 20
4315651.88
  0
VERTEX
  8
PG-LI
 10
600114.70
 20
4315651.91
  0
SEQEND
  8
PG-LI
  0
POLYLINE
  8
PG-LI
 66
     1
  0
VERTEX
  8
PG-LI
 10
600114.70
 20
4315651.91
  0
VERTEX
  8
PG-LI
 10
600117.09
 20
4315652.36
  0
SEQEND
  8
PG-LI
  0
POLYLINE
  8
PG-LI
 66
     1
  0
VERTEX
  8
PG-LI
 10
600117.09
 20
4315652.36
  0
VERTEX
  8
PG-LI
 10
600118.23
 20
4315652.57
  0
SEQEND
  8
PG-LI
  0
POLYLINE
  8
PG-LI
 66
     1
  0
VERTEX
  8
PG-LI
 10
600118.23
 20
4315652.57
  0
VERTEX
  8
PG-LI
 10
600117.89
 20
4315654.42
  0
SEQEND
  8
PG-LI
  0
POLYLINE
  8
PG-LI
 66
     1
  0
VERTEX
  8
PG-LI
 10
600117.89
 20
4315654.42
  0
VERTEX
  8
PG-LI
 10
600117.34
 20
4315657.35
  0
VERTEX
  8
PG-LI
 10
600117.04
 20
4315658.93
  0
SEQEND
  8
PG-LI
  0
POLYLINE
  8
PG-LI
 66
     1
  0
VERTEX
  8
PG-LI
 10
600117.04
 20
4315658.93
  0
VERTEX
  8
PG-LI
 10
600113.52
 20
4315658.27
  0
SEQEND
  8
PG-LI
  0
POLYLINE
  8
PG-LI
 66
     1
  0
VERTEX
  8
PG-LI
 10
600113.52
 20
4315658.27
  0
VERTEX
  8
PG-LI
 10
600113.81
 20
4315656.69
  0
VERTEX
  8
PG-LI
 10
600114.39
 20
4315653.56
  0
VERTEX
  8
PG-LI
 10
600114.21
 20
4315653.53
  0
VERTEX
  8
PG-LI
 10
600114.52
 20
4315651.88
  0
SEQEND
  8
PG-LI
  0
POLYLINE
  8
PG-LI
 66
     1
  0
VERTEX
  8
PG-LI
 10
600106.53
 20
4315655.34
  0
VERTEX
  8
PG-LI
 10
600103.62
 20
4315654.80
  0
SEQEND
  8
PG-LI
  0
POLYLINE
  8
PG-LI
 66
     1
  0
VERTEX
  8
PG-LI
 10
600119.51
 20
4315652.81
  0
VERTEX
  8
PG-LI
 10
600124.09
 20
4315653.66
  0
SEQEND
  8
PG-LI
  0
POLYLINE
  8
PG-LI
 66
     1
  0
VERTEX
  8
PG-LI
 10
600121.62
 20
4315641.48
  0
VERTEX
  8
PG-LI
 10
600120.56
 20
4315647.20
  0
SEQEND
  8
PG-LI
  0
POLYLINE
  8
PG-LI
 66
     1
  0
VERTEX
  8
PG-LI
 10
600120.56
 20
4315647.20
  0
VERTEX
  8
PG-LI
 10
600125.14
 20
4315648.05
  0
SEQEND
  8
PG-LI
  0
POLYLINE
  8
PG-LI
 66
     1
  0
VERTEX
  8
PG-LI
 10
600109.52
 20
4315639.22
  0
VERTEX
  8
PG-LI
 10
600108.76
 20
4315643.33
  0
SEQEND
  8
PG-LI
  0
POLYLINE
  8
PG-LI
 66
     1
  0
VERTEX
  8
PG-LI
 10
600108.76
 20
4315643.33
  0
VERTEX
  8
PG-LI
 10
600108.46
 20
4315644.95
  0
SEQEND
  8
PG-LI
  0
POLYLINE
  8
PG-LI
 66
     1
  0
VERTEX
  8
PG-LI
 10
600108.46
 20
4315644.95
  0
VERTEX
  8
PG-LI
 10
600105.51
 20
4315644.40
  0
SEQEND
  8
PG-LI
  0
POLYLINE
  8
PG-LI
 66
     1
  0
VERTEX
  8
PG-LI
 10
600116.21
 20
4315663.41
  0
VERTEX
  8
PG-LI
 10
600115.07
 20
4315663.20
  0
VERTEX
  8
PG-LI
 10
600114.72
 20
4315665.06
  0
SEQEND
  8
PG-LI
  0
POLYLINE
  8
PG-LI
 66
     1
  0
VERTEX
  8
PG-LI
 10
600117.09
 20
4315652.36
  0
VERTEX
  8
PG-LI
 10
600116.74
 20
4315654.21
  0
VERTEX
  8
PG-LI
 10
600117.89
 20
4315654.42
  0
SEQEND
  8
PG-LI
  0
POLYLINE
  8
PG-LI
 66
     1
  0
VERTEX
  8
PG-LI
 10
600106.75
 20
4315675.51
  0
VERTEX
  8
PG-LI
 10
600107.54
 20
4315671.24
  0
VERTEX
  8
PG-LI
 10
600107.72
 20
4315671.27
  0
VERTEX
  8
PG-LI
 10
600108.03
 20
4315669.63
  0
SEQEND
  8
PG-LI
  0
POLYLINE
  8
PG-LI
 66
     1
  0
VERTEX
  8
PG-LI
 10
600108.03
 20
4315669.63
  0
VERTEX
  8
PG-LI
 10
600108.34
 20
4315667.98
  0
VERTEX
  8
PG-LI
 10
600108.16
 20
4315667.95
  0
VERTEX
  8
PG-LI
 10
600108.90
 20
4315663.97
  0
SEQEND
  8
PG-LI
  0
POLYLINE
  8
PG-LI
 66
     1
  0
VERTEX
  8
PG-LI
 10
600112.34
 20
4315664.61
  0
VERTEX
  8
PG-LI
 10
600111.60
 20
4315668.59
  0
VERTEX
  8
PG-LI
 10
600111.42
 20
4315668.56
  0
VERTEX
  8
PG-LI
 10
600111.12
 20
4315670.20
  0
SEQEND
  8
PG-LI
  0
POLYLINE
  8
PG-LI
 66
     1
  0
VERTEX
  8
PG-LI
 10
600111.12
 20
4315670.20
  0
VERTEX
  8
PG-LI
 10
600110.81
 20
4315671.85
  0
VERTEX
  8
PG-LI
 10
600110.98
 20
4315671.88
  0
VERTEX
  8
PG-LI
 10
600110.19
 20
4315676.15
  0
SEQEND
  8
PG-LI
  0
POLYLINE
  8
PG-LI
 66
     1
  0
VERTEX
  8
PG-LI
 10
600109.07
 20
4315664.00
  0
VERTEX
  8
PG-LI
 10
600109.38
 20
4315662.36
  0
VERTEX
  8
PG-LI
 10
600109.21
 20
4315662.33
  0
VERTEX
  8
PG-LI
 10
600109.79
 20
4315659.20
  0
VERTEX
  8
PG-LI
 10
600110.08
 20
4315657.63
  0
SEQEND
  8
PG-LI
  0
POLYLINE
  8
PG-LI
 66
     1
  0
VERTEX
  8
PG-LI
 10
600110.08
 20
4315657.63
  0
VERTEX
  8
PG-LI
 10
600110.37
 20
4315656.05
  0
VERTEX
  8
PG-LI
 10
600110.95
 20
4315652.92
  0
VERTEX
  8
PG-LI
 10
600111.14
 20
4315652.95
  0
VERTEX
  8
PG-LI
 10
600111.44
 20
4315651.30
  0
SEQEND
  8
PG-LI
  0
POLYLINE
  8
PG-LI
 66
     1
  0
VERTEX
  8
PG-LI
 10
600106.23
 20
4315656.91
  0
VERTEX
  8
PG-LI
 10
600110.08
 20
4315657.63
  0
SEQEND
  8
PG-LI
  0
POLYLINE
  8
PG-LI
 66
     1
  0
VERTEX
  8
PG-LI
 10
600110.08
 20
4315657.63
  0
VERTEX
  8
PG-LI
 10
600113.52
 20
4315658.27
  0
SEQEND
  8
PG-LI
  0
POLYLINE
  8
PG-LI
 66
     1
  0
VERTEX
  8
PG-LI
 10
600113.52
 20
4315658.27
  0
VERTEX
  8
PG-LI
 10
600113.23
 20
4315659.84
  0
VERTEX
  8
PG-LI
 10
600112.65
 20
4315662.97
  0
VERTEX
  8
PG-LI
 10
600112.46
 20
4315662.94
  0
VERTEX
  8
PG-LI
 10
600112.16
 20
4315664.58
  0
SEQEND
  8
PG-LI
  0
POLYLINE
  8
PG-LI
 66
     1
  0
VERTEX
  8
PG-LI
 10
600111.26
 20
4315651.27
  0
VERTEX
  8
PG-LI
 10
600112.00
 20
4315647.31
  0
VERTEX
  8
PG-LI
 10
600112.18
 20
4315647.34
  0
VERTEX
  8
PG-LI
 10
600112.45
 20
4315645.89
  0
VERTEX
  8
PG-LI
 10
600112.49
 20
4315645.70
  0
SEQEND
  8
PG-LI
  0
POLYLINE
  8
PG-LI
 66
     1
  0
VERTEX
  8
PG-LI
 10
600112.49
 20
4315645.70
  0
VERTEX
  8
PG-LI
 10
600112.79
 20
4315644.05
  0
VERTEX
  8
PG-LI
 10
600112.62
 20
4315644.02
  0
VERTEX
  8
PG-LI
 10
600113.22
 20
4315640.77
  0
VERTEX
  8
PG-LI
 10
600113.38
 20
4315639.94
  0
SEQEND
  8
PG-LI
  0
POLYLINE
  8
PG-LI
 66
     1
  0
VERTEX
  8
PG-LI
 10
600116.80
 20
4315640.58
  0
VERTEX
  8
PG-LI
 10
600116.05
 20
4315644.65
  0
VERTEX
  8
PG-LI
 10
600115.87
 20
4315644.62
  0
VERTEX
  8
PG-LI
 10
600115.74
 20
4315645.29
  0
VERTEX
  8
PG-LI
 10
600115.56
 20
4315646.27
  0
SEQEND
  8
PG-LI
  0
POLYLINE
  8
PG-LI
 66
     1
  0
VERTEX
  8
PG-LI
 10
600115.56
 20
4315646.27
  0
VERTEX
  8
PG-LI
 10
600115.25
 20
4315647.92
  0
VERTEX
  8
PG-LI
 10
600115.43
 20
4315647.95
  0
VERTEX
  8
PG-LI
 10
600114.70
 20
4315651.91
  0
SEQEND
  8
PG-LI
  0
POLYLINE
  8
PG-LI
 66
     1
  0
VERTEX
  8
PG-LI
 10
600107.12
 20
4315652.18
  0
VERTEX
  8
PG-LI
 10
600108.59
 20
4315652.45
  0
VERTEX
  8
PG-LI
 10
600108.89
 20
4315650.83
  0
SEQEND
  8
PG-LI
  0
POLYLINE
  8
PG-LI
 66
     1
  0
VERTEX
  8
PG-LI
 10
600108.16
 20
4315646.57
  0
VERTEX
  8
PG-LI
 10
600109.63
 20
4315646.84
  0
VERTEX
  8
PG-LI
 10
600109.93
 20
4315645.22
  0
SEQEND
  8
PG-LI
  0
POLYLINE
  8
PG-LI
 66
     1
  0
VERTEX
  8
PG-LI
 10
600109.93
 20
4315645.22
  0
VERTEX
  8
PG-LI
 10
600110.23
 20
4315643.60
  0
VERTEX
  8
PG-LI
 10
600108.76
 20
4315643.33
  0
SEQEND
  8
PG-LI
  0
ENDSEC
  0
EOF
