  0
SECTION
  2
ENTITIES
  0
TEXT
  8
PS1-AS
 10
599373.12
 20
4315132.21
 40
0.39
  1
344
 72
     1
 11
599373.59
 21
4315132.21
 73
     1
  0
TEXT
  8
PS1-AU
 10
599373.12
 20
4315132.21
 40
0.39
  1
EUN
 72
     1
 11
599373.59
 21
4315132.21
 73
     3
  0
TEXT
  8
PS1-AS
 10
599370.85
 20
4315114.63
 40
0.39
  1
5
 72
     1
 11
599371.01
 21
4315114.63
 73
     1
  0
TEXT
  8
PS1-AU
 10
599370.54
 20
4315114.63
 40
0.39
  1
PTO
 72
     1
 11
599371.01
 21
4315114.63
 73
     3
  0
TEXT
  8
PS1-AS
 10
599394.64
 20
4315137.47
 40
0.39
  1
66
 72
     1
 11
599394.95
 21
4315137.47
 73
     1
  0
TEXT
  8
PS1-AU
 10
599394.48
 20
4315137.47
 40
0.39
  1
PTO
 72
     1
 11
599394.95
 21
4315137.47
 73
     3
  0
TEXT
  8
PS1-AS
 10
599387.30
 20
4315130.03
 40
0.39
  1
305
 72
     1
 11
599387.77
 21
4315130.03
 73
     1
  0
TEXT
  8
PS1-AU
 10
599387.30
 20
4315130.03
 40
0.39
  1
KDP
 72
     1
 11
599387.77
 21
4315130.03
 73
     3
  0
TEXT
  8
PS1-AS
 10
599389.12
 20
4315116.85
 40
0.39
  1
130
 72
     1
 11
599389.60
 21
4315116.85
 73
     1
  0
TEXT
  8
PS1-AU
 10
599389.12
 20
4315116.85
 40
0.39
  1
PTO
 72
     1
 11
599389.60
 21
4315116.85
 73
     3
  0
POLYLINE
  8
PS1-LP
 66
     1
  0
VERTEX
  8
PS1-LP
 10
599369.82
 20
4315116.62
  0
VERTEX
  8
PS1-LP
 10
599368.87
 20
4315123.34
  0
VERTEX
  8
PS1-LP
 10
599368.36
 20
4315127.01
  0
VERTEX
  8
PS1-LP
 10
599366.20
 20
4315142.43
  0
VERTEX
  8
PS1-LP
 10
599375.21
 20
4315143.49
  0
VERTEX
  8
PS1-LP
 10
599378.09
 20
4315143.83
  0
SEQEND
  8
PS1-LP
  0
POLYLINE
  8
PS1-LP
 66
     1
  0
VERTEX
  8
PS1-LP
 10
599369.82
 20
4315116.62
  0
VERTEX
  8
PS1-LP
 10
599370.24
 20
4315113.63
  0
VERTEX
  8
PS1-LP
 10
599373.24
 20
4315113.91
  0
SEQEND
  8
PS1-LP
  0
POLYLINE
  8
PS1-LP
 66
     1
  0
VERTEX
  8
PS1-LP
 10
599373.24
 20
4315113.91
  0
VERTEX
  8
PS1-LP
 10
599382.07
 20
4315114.75
  0
SEQEND
  8
PS1-LP
  0
POLYLINE
  8
PS1-LP
 66
     1
  0
VERTEX
  8
PS1-LP
 10
599382.07
 20
4315114.75
  0
VERTEX
  8
PS1-LP
 10
599396.76
 20
4315116.14
  0
SEQEND
  8
PS1-LP
  0
POLYLINE
  8
PS1-LP
 66
     1
  0
VERTEX
  8
PS1-LP
 10
599396.76
 20
4315116.14
  0
VERTEX
  8
PS1-LP
 10
599398.96
 20
4315116.35
  0
VERTEX
  8
PS1-LP
 10
599395.19
 20
4315143.93
  0
VERTEX
  8
PS1-LP
 10
599394.93
 20
4315145.80
  0
VERTEX
  8
PS1-LP
 10
599392.74
 20
4315145.55
  0
SEQEND
  8
PS1-LP
  0
POLYLINE
  8
PS1-LP
 66
     1
  0
VERTEX
  8
PS1-LP
 10
599392.74
 20
4315145.55
  0
VERTEX
  8
PS1-LP
 10
599391.74
 20
4315145.43
  0
VERTEX
  8
PS1-LP
 10
599389.96
 20
4315145.22
  0
VERTEX
  8
PS1-LP
 10
599378.09
 20
4315143.83
  0
SEQEND
  8
PS1-LP
  0
POLYLINE
  8
PS1-LI
 66
     1
  0
VERTEX
  8
PS1-LI
 10
599373.24
 20
4315113.91
  0
VERTEX
  8
PS1-LI
 10
599369.82
 20
4315116.62
  0
SEQEND
  8
PS1-LI
  0
POLYLINE
  8
PS1-LI
 66
     1
  0
VERTEX
  8
PS1-LI
 10
599378.09
 20
4315143.83
  0
VERTEX
  8
PS1-LI
 10
599382.07
 20
4315114.75
  0
SEQEND
  8
PS1-LI
  0
POLYLINE
  8
PS1-LI
 66
     1
  0
VERTEX
  8
PS1-LI
 10
599396.76
 20
4315116.14
  0
VERTEX
  8
PS1-LI
 10
599396.38
 20
4315118.93
  0
VERTEX
  8
PS1-LI
 10
599396.37
 20
4315119.02
  0
SEQEND
  8
PS1-LI
  0
POLYLINE
  8
PS1-LI
 66
     1
  0
VERTEX
  8
PS1-LI
 10
599396.37
 20
4315119.02
  0
VERTEX
  8
PS1-LI
 10
599393.04
 20
4315143.33
  0
VERTEX
  8
PS1-LI
 10
599393.03
 20
4315143.40
  0
SEQEND
  8
PS1-LI
  0
POLYLINE
  8
PS1-LI
 66
     1
  0
VERTEX
  8
PS1-LI
 10
599393.03
 20
4315143.40
  0
VERTEX
  8
PS1-LI
 10
599392.74
 20
4315145.55
  0
SEQEND
  8
PS1-LI
  0
POLYLINE
  8
PS1-LI
 66
     1
  0
VERTEX
  8
PS1-LI
 10
599396.37
 20
4315119.02
  0
VERTEX
  8
PS1-LI
 10
599384.08
 20
4315117.34
  0
VERTEX
  8
PS1-LI
 10
599380.74
 20
4315141.72
  0
VERTEX
  8
PS1-LI
 10
599393.03
 20
4315143.40
  0
SEQEND
  8
PS1-LI
  0
TEXT
  8
PS2-AS
 10
599373.12
 20
4315132.21
 40
0.39
  1
344
 72
     1
 11
599373.59
 21
4315132.21
 73
     1
  0
TEXT
  8
PS2-AU
 10
599373.12
 20
4315132.21
 40
0.39
  1
EUN
 72
     1
 11
599373.59
 21
4315132.21
 73
     3
  0
POLYLINE
  8
PS2-LP
 66
     1
  0
VERTEX
  8
PS2-LP
 10
599378.09
 20
4315143.83
  0
VERTEX
  8
PS2-LP
 10
599382.07
 20
4315114.75
  0
SEQEND
  8
PS2-LP
  0
POLYLINE
  8
PS2-LP
 66
     1
  0
VERTEX
  8
PS2-LP
 10
599382.07
 20
4315114.75
  0
VERTEX
  8
PS2-LP
 10
599373.24
 20
4315113.91
  0
VERTEX
  8
PS2-LP
 10
599369.82
 20
4315116.62
  0
VERTEX
  8
PS2-LP
 10
599368.87
 20
4315123.34
  0
VERTEX
  8
PS2-LP
 10
599368.36
 20
4315127.01
  0
VERTEX
  8
PS2-LP
 10
599366.20
 20
4315142.43
  0
VERTEX
  8
PS2-LP
 10
599375.21
 20
4315143.49
  0
VERTEX
  8
PS2-LP
 10
599378.09
 20
4315143.83
  0
SEQEND
  8
PS2-LP
  0
POLYLINE
  8
PS2-LT
 66
     1
  0
VERTEX
  8
PS2-LT
 10
599382.07
 20
4315114.75
  0
VERTEX
  8
PS2-LT
 10
599396.76
 20
4315116.14
  0
VERTEX
  8
PS2-LT
 10
599398.96
 20
4315116.35
  0
VERTEX
  8
PS2-LT
 10
599395.19
 20
4315143.93
  0
VERTEX
  8
PS2-LT
 10
599394.93
 20
4315145.80
  0
VERTEX
  8
PS2-LT
 10
599392.74
 20
4315145.55
  0
VERTEX
  8
PS2-LT
 10
599391.74
 20
4315145.43
  0
VERTEX
  8
PS2-LT
 10
599389.96
 20
4315145.22
  0
VERTEX
  8
PS2-LT
 10
599378.09
 20
4315143.83
  0
SEQEND
  8
PS2-LT
  0
TEXT
  8
PG-AS
 10
599373.52
 20
4315130.26
 40
0.39
  1
344
 72
     1
 11
599373.99
 21
4315130.26
 73
     1
  0
TEXT
  8
PG-AA
 10
599373.68
 20
4315130.26
 40
0.39
  1
II
 72
     1
 11
599373.99
 21
4315130.26
 73
     3
  0
TEXT
  8
PG-AS
 10
599394.46
 20
4315138.06
 40
0.39
  1
66
 72
     1
 11
599394.77
 21
4315138.06
 73
     1
  0
TEXT
  8
PG-AA
 10
599394.61
 20
4315138.06
 40
0.39
  1
P
 72
     1
 11
599394.77
 21
4315138.06
 73
     3
  0
TEXT
  8
PG-AS
 10
599370.81
 20
4315114.59
 40
0.39
  1
5
 72
     1
 11
599370.96
 21
4315114.59
 73
     1
  0
TEXT
  8
PG-AA
 10
599370.81
 20
4315114.59
 40
0.39
  1
P
 72
     1
 11
599370.96
 21
4315114.59
 73
     3
  0
TEXT
  8
PG-AS
 10
599387.88
 20
4315131.05
 40
0.39
  1
305
 72
     1
 11
599388.35
 21
4315131.05
 73
     1
  0
TEXT
  8
PG-AA
 10
599387.88
 20
4315131.05
 40
0.39
  1
TEN
 72
     1
 11
599388.35
 21
4315131.05
 73
     3
  0
TEXT
  8
PG-AS
 10
599390.48
 20
4315116.97
 40
0.39
  1
130
 72
     1
 11
599390.95
 21
4315116.97
 73
     1
  0
TEXT
  8
PG-AA
 10
599390.79
 20
4315116.97
 40
0.39
  1
P
 72
     1
 11
599390.95
 21
4315116.97
 73
     3
  0
TEXT
  8
PG-CO
 10
599379.62
 20
4315146.02
 40
0.36
  1
28.93
 50
6.69
 72
     1
 11
599380.33
 21
4315146.11
 73
     3
  0
LINE
  8
PG-CO
 10
599365.96
 20
4315144.42
 11
599394.69
 21
4315147.79
  0
TEXT
  8
PG-CO
 10
599366.14
 20
4315128.46
 40
0.36
  1
29.09
 50
277.99
 72
     1
 11
599366.24
 21
4315127.75
 73
     3
  0
LINE
  8
PG-CO
 10
599364.22
 20
4315142.16
 11
599368.26
 21
4315113.35
  0
TEXT
  8
PG-CO
 10
599384.08
 20
4315112.93
 40
0.36
  1
28.85
 50
5.42
 72
     1
 11
599384.79
 21
4315113.00
 73
     3
  0
LINE
  8
PG-CO
 10
599370.43
 20
4315111.64
 11
599399.15
 21
4315114.36
  0
TEXT
  8
PG-CO
 10
599398.83
 20
4315132.06
 40
0.36
  1
29.72
 50
277.79
 72
     1
 11
599398.92
 21
4315131.35
 73
     3
  0
LINE
  8
PG-CO
 10
599396.91
 20
4315146.08
 11
599400.94
 21
4315116.63
  0
LINE
  8
PG-LF
 10
599365.12
 20
4315127.91
 11
599364.13
 21
4315127.77
  0
TEXT
  8
PG-TL
 10
599362.51
 20
4315130.27
 40
0.57
  1
AV ESPAÑA 63
 50
277.99
 72
     1
 11
599362.89
 21
4315127.60
 73
     1
  0
POLYLINE
  8
PG-LP
 66
     1
  0
VERTEX
  8
PG-LP
 10
599378.09
 20
4315143.83
  0
VERTEX
  8
PG-LP
 10
599389.96
 20
4315145.22
  0
VERTEX
  8
PG-LP
 10
599391.74
 20
4315145.43
  0
VERTEX
  8
PG-LP
 10
599392.74
 20
4315145.55
  0
SEQEND
  8
PG-LP
  0
POLYLINE
  8
PG-LP
 66
     1
  0
VERTEX
  8
PG-LP
 10
599392.74
 20
4315145.55
  0
VERTEX
  8
PG-LP
 10
599394.93
 20
4315145.80
  0
VERTEX
  8
PG-LP
 10
599395.19
 20
4315143.93
  0
VERTEX
  8
PG-LP
 10
599398.96
 20
4315116.35
  0
VERTEX
  8
PG-LP
 10
599396.76
 20
4315116.14
  0
SEQEND
  8
PG-LP
  0
POLYLINE
  8
PG-LP
 66
     1
  0
VERTEX
  8
PG-LP
 10
599396.76
 20
4315116.14
  0
VERTEX
  8
PG-LP
 10
599382.07
 20
4315114.75
  0
SEQEND
  8
PG-LP
  0
POLYLINE
  8
PG-LP
 66
     1
  0
VERTEX
  8
PG-LP
 10
599382.07
 20
4315114.75
  0
VERTEX
  8
PG-LP
 10
599373.24
 20
4315113.91
  0
SEQEND
  8
PG-LP
  0
POLYLINE
  8
PG-LP
 66
     1
  0
VERTEX
  8
PG-LP
 10
599373.24
 20
4315113.91
  0
VERTEX
  8
PG-LP
 10
599370.24
 20
4315113.63
  0
VERTEX
  8
PG-LP
 10
599369.82
 20
4315116.62
  0
SEQEND
  8
PG-LP
  0
POLYLINE
  8
PG-LP
 66
     1
  0
VERTEX
  8
PG-LP
 10
599369.82
 20
4315116.62
  0
VERTEX
  8
PG-LP
 10
599368.87
 20
4315123.34
  0
VERTEX
  8
PG-LP
 10
599368.36
 20
4315127.01
  0
VERTEX
  8
PG-LP
 10
599366.20
 20
4315142.43
  0
VERTEX
  8
PG-LP
 10
599375.21
 20
4315143.49
  0
VERTEX
  8
PG-LP
 10
599378.09
 20
4315143.83
  0
SEQEND
  8
PG-LP
  0
POLYLINE
  8
PG-LI
 66
     1
  0
VERTEX
  8
PG-LI
 10
599396.76
 20
4315116.14
  0
VERTEX
  8
PG-LI
 10
599396.37
 20
4315119.02
  0
SEQEND
  8
PG-LI
  0
POLYLINE
  8
PG-LI
 66
     1
  0
VERTEX
  8
PG-LI
 10
599396.37
 20
4315119.02
  0
VERTEX
  8
PG-LI
 10
599393.03
 20
4315143.40
  0
SEQEND
  8
PG-LI
  0
POLYLINE
  8
PG-LI
 66
     1
  0
VERTEX
  8
PG-LI
 10
599393.03
 20
4315143.40
  0
VERTEX
  8
PG-LI
 10
599380.74
 20
4315141.72
  0
VERTEX
  8
PG-LI
 10
599384.08
 20
4315117.34
  0
VERTEX
  8
PG-LI
 10
599396.37
 20
4315119.02
  0
SEQEND
  8
PG-LI
  0
POLYLINE
  8
PG-LI
 66
     1
  0
VERTEX
  8
PG-LI
 10
599373.24
 20
4315113.91
  0
VERTEX
  8
PG-LI
 10
599369.82
 20
4315116.62
  0
SEQEND
  8
PG-LI
  0
POLYLINE
  8
PG-LI
 66
     1
  0
VERTEX
  8
PG-LI
 10
599378.09
 20
4315143.83
  0
VERTEX
  8
PG-LI
 10
599382.07
 20
4315114.75
  0
SEQEND
  8
PG-LI
  0
POLYLINE
  8
PG-LI
 66
     1
  0
VERTEX
  8
PG-LI
 10
599393.03
 20
4315143.40
  0
VERTEX
  8
PG-LI
 10
599392.74
 20
4315145.55
  0
SEQEND
  8
PG-LI
  0
ENDSEC
  0
EOF
